SplineFontDB: 3.2
FontName: CMUTypewriterSlashed-BoldItalic
FullName: CMU Typewriter Slashed Bold Italic
FamilyName: CMU Typewriter Slashed
Weight: Bold
Copyright: Converted by Andrey V. Panov from TeX fonts
Version: 0.7.0
ItalicAngle: -14.04
UnderlinePosition: -150
UnderlineWidth: 50
Ascent: 775
Descent: 225
InvalidEm: 0
sfntRevision: 0x0000b333
LayerCount: 2
Layer: 0 1 "Back" 1
Layer: 1 1 "Fore" 0
XUID: [1021 306 -1528867943 6266064]
StyleMap: 0x0021
FSType: 0
OS2Version: 1
OS2_WeightWidthSlopeOnly: 0
OS2_UseTypoMetrics: 1
CreationTime: 1245315732
ModificationTime: 1781540695
PfmFamily: 17
TTFWeight: 700
TTFWidth: 5
LineGap: 200
VLineGap: 0
Panose: 2 0 8 9 0 0 0 0 0 0
OS2TypoAscent: 800
OS2TypoAOffset: 0
OS2TypoDescent: -200
OS2TypoDOffset: 0
OS2TypoLinegap: 0
OS2WinAscent: 800
OS2WinAOffset: 0
OS2WinDescent: 200
OS2WinDOffset: 0
HheadAscent: 800
HheadAOffset: 0
HheadDescent: -200
HheadDOffset: 0
OS2SubXSize: 650
OS2SubYSize: 700
OS2SubXOff: 33
OS2SubYOff: 140
OS2SupXSize: 650
OS2SupYSize: 700
OS2SupXOff: -116
OS2SupYOff: 480
OS2StrikeYSize: 49
OS2StrikeYPos: 258
OS2Vendor: 'PfEd'
OS2CodePages: 0000011f.d7d70000
OS2UnicodeRanges: e10002ff.5201e9eb.00020004.00000000
Lookup: 1 0 0 "'case' Case-Sensitive Forms lookup 0" { "'case' Case-Sensitive Forms lookup 0 subtable"  } ['case' ('cyrl' <'dflt' > 'grek' <'dflt' > 'latn' <'dflt' > ) ]
Lookup: 3 0 0 "'salt' Stylistic Alternatives in Greek lookup 1" { "'salt' Stylistic Alternatives in Greek lookup 1 subtable"  } ['salt' ('grek' <'dflt' > ) ]
Lookup: 1 0 0 "'locl' Localized Forms in Greek lookup 2" { "'locl' Localized Forms in Greek lookup 2 subtable"  } ['locl' ('grek' <'dflt' > ) ]
Lookup: 4 0 0 "'dlig' Discretionary Ligatures in Latin lookup 3" { "'dlig' Discretionary Ligatures in Latin lookup 3 subtable"  } ['dlig' ('latn' <'NLD ' > ) ]
Lookup: 4 0 0 "'dlig' Discretionary Ligatures in Latin lookup 4" { "'dlig' Discretionary Ligatures in Latin lookup 4 subtable"  } ['dlig' ('latn' <'NLD ' 'VIT ' 'dflt' > ) ]

StartChar: .notdef
Encoding: 0 0 0
Width: 525
GlyphClass: 1
Flags: W
LayerCount: 2
Fore
SplineSet
10 10 m 1,0,-1
 10 765 l 1,1,-1
 515 765 l 1,2,-1
 515 10 l 1,3,-1
 10 10 l 1,0,-1
70 112 m 1,4,-1
 232 388 l 1,5,-1
 70 663 l 1,6,-1
 70 112 l 1,4,-1
105 70 m 1,7,-1
 420 70 l 1,8,-1
 262 337 l 1,9,-1
 105 70 l 1,7,-1
105 705 m 1,10,-1
 262 438 l 1,11,-1
 420 705 l 1,12,-1
 105 705 l 1,10,-1
292 388 m 1,13,-1
 455 112 l 1,14,-1
 455 663 l 1,15,-1
 292 388 l 1,13,-1
EndSplineSet
EndChar

StartChar: exclam
Encoding: 33 33 4
Width: 525
GlyphClass: 2
Flags: W
LayerCount: 2
Fore
SplineSet
205 65 m 0,0,1
 205 98 205 98 231 123.5 c 128,-1,2
 257 149 257 149 292 149 c 0,3,4
 319 149 319 149 338 131 c 128,-1,5
 357 113 357 113 357 85 c 0,6,7
 357 53 357 53 331 26.5 c 128,-1,8
 305 0 305 0 270 0 c 0,9,10
 242 0 242 0 223.5 18 c 128,-1,11
 205 36 205 36 205 65 c 0,0,1
266 252 m 0,12,13
 266 256 266 256 267.5 263.5 c 128,-1,14
 269 271 269 271 269 272 c 2,15,-1
 321 534 l 2,16,17
 325 556 325 556 330 568 c 0,18,19
 341 591 341 591 363.5 605 c 128,-1,20
 386 619 386 619 410 619 c 0,21,22
 437 619 437 619 456 602 c 128,-1,23
 475 585 475 585 475 557 c 0,24,25
 475 542 475 542 467 518 c 2,26,-1
 389 260 l 2,27,28
 384 245 384 245 381.5 239 c 128,-1,29
 379 233 379 233 370.5 227.5 c 128,-1,30
 362 222 362 222 348 222 c 2,31,-1
 303 222 l 2,32,33
 266 222 266 222 266 252 c 0,12,13
EndSplineSet
EndChar

StartChar: quotedbl
Encoding: 34 34 5
Width: 525
GlyphClass: 2
Flags: W
LayerCount: 2
Fore
SplineSet
228 367 m 0,0,1
 228 372 228 372 271 559 c 0,2,3
 281 611 281 611 319 611 c 0,4,5
 335 611 335 611 346.5 600 c 128,-1,6
 358 589 358 589 358 572 c 0,7,8
 358 566 358 566 305 370 c 0,9,10
 297 337 297 337 271 336 c 2,11,-1
 263 336 l 2,12,13
 249 336 249 336 240.5 342.5 c 128,-1,14
 232 349 232 349 230 355 c 128,-1,15
 228 361 228 361 228 367 c 0,0,1
404 367 m 0,16,17
 404 372 404 372 447 559 c 1,18,-1
 448 562 l 2,19,20
 449 566 449 566 449.5 568.5 c 128,-1,21
 450 571 450 571 451.5 576 c 128,-1,22
 453 581 453 581 455 584.5 c 128,-1,23
 457 588 457 588 459.5 592 c 128,-1,24
 462 596 462 596 465.5 599 c 128,-1,25
 469 602 469 602 473 605 c 128,-1,26
 477 608 477 608 483 609.5 c 128,-1,27
 489 611 489 611 495 611 c 0,28,29
 512 611 512 611 523 600 c 128,-1,30
 534 589 534 589 534 572 c 0,31,32
 534 564 534 564 481 368 c 0,33,34
 473 336 473 336 447 336 c 2,35,-1
 437 336 l 2,36,37
 423 336 423 336 413.5 345 c 128,-1,38
 404 354 404 354 404 367 c 0,16,17
EndSplineSet
EndChar

StartChar: numbersign
Encoding: 35 35 6
Width: 525
GlyphClass: 2
Flags: W
ItalicCorrection: 173
LayerCount: 2
Fore
SplineSet
120 194 m 0,0,1
 120 225 120 225 150 231 c 0,2,3
 156 232 156 232 169 232 c 2,4,-1
 204 232 l 1,5,-1
 254 379 l 1,6,-1
 222 379 l 2,7,8
 175 379 175 379 175 417 c 128,-1,9
 175 455 175 455 223 455 c 2,10,-1
 280 455 l 1,11,12
 325 585 325 585 328 591 c 0,13,14
 338 610 338 610 361 610 c 0,15,16
 378 610 378 610 388 598.5 c 128,-1,17
 398 587 398 587 398 575 c 0,18,19
 398 568 398 568 391.5 547.5 c 128,-1,20
 385 527 385 527 374.5 498.5 c 128,-1,21
 364 470 364 470 360 455 c 1,22,-1
 419 455 l 1,23,24
 464 585 464 585 467 591 c 0,25,26
 477 610 477 610 500 610 c 0,27,28
 517 610 517 610 527 598.5 c 128,-1,29
 537 587 537 587 537 575 c 0,30,31
 537 568 537 568 530.5 547.5 c 128,-1,32
 524 527 524 527 513.5 498.5 c 128,-1,33
 503 470 503 470 499 455 c 1,34,-1
 510 455 l 2,35,36
 529 455 529 455 540.5 447 c 128,-1,37
 552 439 552 439 554.5 431.5 c 128,-1,38
 557 424 557 424 557 417 c 0,39,40
 557 403 557 403 548 392.5 c 128,-1,41
 539 382 539 382 526 380 c 0,42,43
 520 379 520 379 508 379 c 2,44,-1
 472 379 l 1,45,-1
 422 232 l 1,46,-1
 456 232 l 2,47,48
 501 232 501 232 501 194 c 128,-1,49
 501 156 501 156 453 156 c 2,50,-1
 396 156 l 1,51,52
 396 155 396 155 373.5 90 c 128,-1,53
 351 25 351 25 349 21 c 0,54,55
 338 0 338 0 315 0 c 0,56,57
 299 0 299 0 288.5 12 c 128,-1,58
 278 24 278 24 278 37 c 0,59,60
 278 44 278 44 316 156 c 1,61,-1
 257 156 l 1,62,63
 257 155 257 155 234.5 90 c 128,-1,64
 212 25 212 25 210 21 c 0,65,66
 199 0 199 0 176 0 c 0,67,68
 160 0 160 0 149.5 12 c 128,-1,69
 139 24 139 24 139 37 c 0,70,71
 139 44 139 44 177 156 c 1,72,-1
 166 156 l 2,73,74
 120 156 120 156 120 194 c 0,0,1
284 232 m 1,75,-1
 342 232 l 1,76,-1
 393 379 l 1,77,-1
 334 379 l 1,78,-1
 284 232 l 1,75,-1
EndSplineSet
EndChar

StartChar: dollar
Encoding: 36 36 7
Width: 525
GlyphClass: 2
Flags: W
ItalicCorrection: 173
LayerCount: 2
Fore
SplineSet
128 127 m 0,0,1
 128 217 128 217 180 217 c 0,2,3
 197 217 197 217 207.5 206 c 128,-1,4
 218 195 218 195 218 179 c 0,5,6
 218 175 218 175 215 158 c 128,-1,7
 212 141 212 141 212 130 c 0,8,9
 212 92 212 92 243 76 c 1,10,-1
 295 286 l 1,11,12
 244 301 244 301 221 337.5 c 128,-1,13
 198 374 198 374 198 414 c 0,14,15
 198 480 198 480 246.5 540.5 c 128,-1,16
 295 601 295 601 376 612 c 1,17,-1
 377 613 l 1,18,19
 388 665 388 665 396 679.5 c 128,-1,20
 404 694 404 694 425 694 c 2,21,-1
 429 694 l 2,22,23
 448 694 448 694 456.5 684.5 c 128,-1,24
 465 675 465 675 465 663 c 0,25,26
 465 658 465 658 463.5 651.5 c 128,-1,27
 462 645 462 645 458.5 633 c 128,-1,28
 455 621 455 621 453 610 c 1,29,30
 495 601 495 601 523 570 c 128,-1,31
 551 539 551 539 551 488 c 0,32,33
 551 455 551 455 539.5 430.5 c 128,-1,34
 528 406 528 406 500 406 c 0,35,36
 484 406 484 406 472.5 416.5 c 128,-1,37
 461 427 461 427 461 444 c 0,38,39
 461 447 461 447 463.5 461.5 c 128,-1,40
 466 476 466 476 466 485 c 0,41,42
 466 520 466 520 434 535 c 1,43,-1
 388 349 l 1,44,45
 426 338 426 338 454 304 c 128,-1,46
 482 270 482 270 482 214 c 0,47,48
 482 172 482 172 464 128.5 c 128,-1,49
 446 85 446 85 402.5 46.5 c 128,-1,50
 359 8 359 8 300 -2 c 1,51,52
 286 -64 286 -64 277 -74 c 0,53,54
 268 -83 268 -83 251 -83 c 2,55,-1
 248 -83 l 2,56,57
 227 -83 227 -83 219 -73 c 128,-1,58
 211 -63 211 -63 211 -53 c 0,59,60
 211 -47 211 -47 223 1 c 1,61,62
 179 12 179 12 153.5 44.5 c 128,-1,63
 128 77 128 77 128 127 c 0,0,1
279 425 m 0,64,65
 279 385 279 385 316 369 c 1,66,-1
 356 531 l 1,67,68
 317 516 317 516 298 484 c 128,-1,69
 279 452 279 452 279 425 c 0,64,65
321 81 m 1,70,71
 358 97 358 97 380 133.5 c 128,-1,72
 402 170 402 170 402 205 c 0,73,74
 402 247 402 247 368 266 c 1,75,-1
 321 81 l 1,70,71
EndSplineSet
EndChar

StartChar: percent
Encoding: 37 37 8
Width: 525
GlyphClass: 2
Flags: W
ItalicCorrection: 173
LayerCount: 2
Fore
SplineSet
92 -42 m 0,0,1
 92 -32 92 -32 103 -12 c 2,2,-1
 502 667 l 2,3,4
 517 694 517 694 542 694 c 0,5,6
 560 694 560 694 571.5 681.5 c 128,-1,7
 583 669 583 669 583 652 c 0,8,9
 583 642 583 642 573 624 c 2,10,-1
 179 -47 l 2,11,12
 178 -48 178 -48 175.5 -53 c 128,-1,13
 173 -58 173 -58 171.5 -60 c 128,-1,14
 170 -62 170 -62 166.5 -66.5 c 128,-1,15
 163 -71 163 -71 160 -73 c 128,-1,16
 157 -75 157 -75 153 -78 c 128,-1,17
 149 -81 149 -81 144.5 -82 c 128,-1,18
 140 -83 140 -83 134 -83 c 0,19,20
 117 -83 117 -83 104.5 -71 c 128,-1,21
 92 -59 92 -59 92 -42 c 0,0,1
202 505 m 0,22,23
 202 534 202 534 212.5 575.5 c 128,-1,24
 223 617 223 617 249 655.5 c 128,-1,25
 275 694 275 694 310 694 c 0,26,27
 331 694 331 694 348.5 676 c 128,-1,28
 366 658 366 658 366 616 c 0,29,30
 366 584 366 584 354.5 542 c 128,-1,31
 343 500 343 500 317 464 c 128,-1,32
 291 428 291 428 258 428 c 0,33,34
 236 428 236 428 219 445.5 c 128,-1,35
 202 463 202 463 202 505 c 0,22,23
272 517 m 1,36,37
 290 551 290 551 297 605 c 1,38,39
 275 571 275 571 272 517 c 1,36,37
310 -7 m 0,40,41
 310 26 310 26 321 68 c 128,-1,42
 332 110 332 110 358 146.5 c 128,-1,43
 384 183 384 183 417 183 c 0,44,45
 439 183 439 183 456.5 165.5 c 128,-1,46
 474 148 474 148 474 106 c 0,47,48
 474 83 474 83 467 52 c 128,-1,49
 460 21 460 21 447.5 -10 c 128,-1,50
 435 -41 435 -41 413 -62 c 128,-1,51
 391 -83 391 -83 366 -83 c 0,52,53
 345 -83 345 -83 327.5 -65.5 c 128,-1,54
 310 -48 310 -48 310 -7 c 0,40,41
380 7 m 1,55,56
 403 48 403 48 405 93 c 1,57,58
 394 77 394 77 387 50.5 c 128,-1,59
 380 24 380 24 380 7 c 1,55,56
EndSplineSet
EndChar

StartChar: ampersand
Encoding: 38 38 9
Width: 525
GlyphClass: 2
Flags: W
ItalicCorrection: 173
LayerCount: 2
Fore
SplineSet
89 164 m 0,0,1
 89 209 89 209 105.5 256.5 c 128,-1,2
 122 304 122 304 138.5 334.5 c 128,-1,3
 155 365 155 365 155 368 c 0,4,5
 155 370 155 370 154.5 374.5 c 128,-1,6
 154 379 154 379 154 382 c 0,7,8
 154 430 154 430 172 483 c 128,-1,9
 190 536 190 536 230.5 577.5 c 128,-1,10
 271 619 271 619 324 619 c 0,11,12
 362 619 362 619 389 597.5 c 128,-1,13
 416 576 416 576 416 540 c 0,14,15
 416 512 416 512 401.5 499 c 128,-1,16
 387 486 387 486 369 486 c 0,17,18
 353 486 353 486 341.5 496.5 c 128,-1,19
 330 507 330 507 330 524 c 2,20,-1
 330 534 l 2,21,22
 330 543 330 543 320 543 c 0,23,24
 313 543 313 543 304.5 538 c 128,-1,25
 296 533 296 533 285 522.5 c 128,-1,26
 274 512 274 512 263 489.5 c 128,-1,27
 252 467 252 467 245 436 c 1,28,29
 266 443 266 443 283 443 c 0,30,31
 308 443 308 443 321.5 426 c 128,-1,32
 335 409 335 409 335 383 c 0,33,34
 335 343 335 343 313.5 305 c 128,-1,35
 292 267 292 267 252 267 c 0,36,37
 230 267 230 267 202 282 c 1,38,39
 173 212 173 212 173 166 c 0,40,41
 173 115 173 115 207 91 c 128,-1,42
 241 67 241 67 291 67 c 0,43,44
 432 67 432 67 472 215 c 1,45,46
 435 220 435 220 408.5 245 c 128,-1,47
 382 270 382 270 382 310 c 0,48,49
 382 339 382 339 396 362.5 c 128,-1,50
 410 386 410 386 428 399.5 c 128,-1,51
 446 413 446 413 469 434 c 128,-1,52
 492 455 492 455 505 476 c 0,53,54
 521 502 521 502 531 539.5 c 128,-1,55
 541 577 541 577 551 594 c 128,-1,56
 561 611 561 611 586 611 c 0,57,58
 602 611 602 611 613.5 600 c 128,-1,59
 625 589 625 589 625 572 c 128,-1,60
 625 555 625 555 607 503 c 128,-1,61
 589 451 589 451 563 417 c 1,62,-1
 563 416 l 1,63,64
 582 385 582 385 582 346 c 0,65,66
 582 314 582 314 569 257.5 c 128,-1,67
 556 201 556 201 545 170 c 0,68,69
 527 119 527 119 497 82.5 c 128,-1,70
 467 46 467 46 431.5 27 c 128,-1,71
 396 8 396 8 361 0 c 128,-1,72
 326 -8 326 -8 288 -8 c 0,73,74
 198 -8 198 -8 143.5 36.5 c 128,-1,75
 89 81 89 81 89 164 c 0,0,1
466 313 m 0,76,77
 466 305 466 305 474 294 c 1,78,-1
 485 296 l 1,79,-1
 493 297 l 1,80,-1
 497 331 l 1,81,-1
 496 353 l 1,82,83
 495 352 495 352 490.5 348.5 c 128,-1,84
 486 345 486 345 482.5 342 c 128,-1,85
 479 339 479 339 475 334.5 c 128,-1,86
 471 330 471 330 468.5 324.5 c 128,-1,87
 466 319 466 319 466 313 c 0,76,77
EndSplineSet
EndChar

StartChar: quotesingle
Encoding: 39 39 10
Width: 525
GlyphClass: 2
Flags: W
ItalicCorrection: 173
LayerCount: 2
Fore
SplineSet
316 367 m 0,0,1
 316 373 316 373 359 559 c 1,2,3
 359 559 359 559 360 562 c 0,4,5
 361 566 361 566 361.5 568.5 c 128,-1,6
 362 571 362 571 363.5 576 c 128,-1,7
 365 581 365 581 367 584.5 c 128,-1,8
 369 588 369 588 371.5 592 c 128,-1,9
 374 596 374 596 377.5 599 c 128,-1,10
 381 602 381 602 385 605 c 128,-1,11
 389 608 389 608 395 609.5 c 128,-1,12
 401 611 401 611 407 611 c 0,13,14
 424 611 424 611 435 600.5 c 128,-1,15
 446 590 446 590 446 572 c 0,16,17
 446 563 446 563 393 368 c 0,18,19
 385 336 385 336 359 336 c 2,20,-1
 350 336 l 2,21,22
 316 337 316 337 316 367 c 0,0,1
EndSplineSet
EndChar

StartChar: parenleft
Encoding: 40 40 11
Width: 525
GlyphClass: 2
Flags: W
ItalicCorrection: 173
LayerCount: 2
Fore
SplineSet
234 172 m 0,0,1
 234 256 234 256 261 346.5 c 128,-1,2
 288 437 288 437 351 530.5 c 128,-1,3
 414 624 414 624 504 684 c 0,4,5
 520 694 520 694 537 694 c 2,6,-1
 538 694 l 2,7,8
 575 694 575 694 575 665 c 0,9,10
 575 650 575 650 552 634 c 0,11,12
 442 557 442 557 379.5 424.5 c 128,-1,13
 317 292 317 292 317 162 c 0,14,15
 317 109 317 109 329 67.5 c 128,-1,16
 341 26 341 26 356 6.5 c 128,-1,17
 371 -13 371 -13 383 -29.5 c 128,-1,18
 395 -46 395 -46 395 -55 c 0,19,20
 395 -83 395 -83 358 -83 c 0,21,22
 342 -83 342 -83 331 -76 c 128,-1,23
 320 -69 320 -69 299 -42 c 0,24,25
 234 42 234 42 234 172 c 0,0,1
EndSplineSet
EndChar

StartChar: parenright
Encoding: 41 41 12
Width: 525
GlyphClass: 2
Flags: W
ItalicCorrection: 173
LayerCount: 2
Fore
SplineSet
101 -54 m 0,0,1
 101 -49 101 -49 102.5 -44.5 c 128,-1,2
 104 -40 104 -40 108 -36 c 128,-1,3
 112 -32 112 -32 114.5 -30 c 128,-1,4
 117 -28 117 -28 121.5 -25 c 128,-1,5
 126 -22 126 -22 127 -21 c 0,6,7
 235 56 235 56 297 187.5 c 128,-1,8
 359 319 359 319 359 446 c 0,9,10
 359 501 359 501 347 543.5 c 128,-1,11
 335 586 335 586 320 605 c 128,-1,12
 305 624 305 624 293 640 c 128,-1,13
 281 656 281 656 281 665 c 0,14,15
 281 694 281 694 316 694 c 2,16,-1
 319 694 l 2,17,18
 339 694 339 694 355 678 c 0,19,20
 442 591 442 591 442 439 c 0,21,22
 442 306 442 306 373 160.5 c 128,-1,23
 304 15 304 15 172 -73 c 0,24,25
 156 -83 156 -83 141 -83 c 2,26,-1
 139 -83 l 2,27,28
 101 -83 101 -83 101 -54 c 0,0,1
EndSplineSet
EndChar

StartChar: asterisk
Encoding: 42 42 13
Width: 525
GlyphClass: 2
Flags: W
ItalicCorrection: 173
LayerCount: 2
Fore
SplineSet
149 208 m 0,0,1
 149 213 149 213 150 217.5 c 128,-1,2
 151 222 151 222 153.5 226.5 c 128,-1,3
 156 231 156 231 158.5 234 c 128,-1,4
 161 237 161 237 166 241 c 128,-1,5
 171 245 171 245 175 248 c 128,-1,6
 179 251 179 251 187 255.5 c 128,-1,7
 195 260 195 260 200 262.5 c 128,-1,8
 205 265 205 265 216 270.5 c 128,-1,9
 227 276 227 276 234 280 c 2,10,-1
 282 305 l 1,11,-1
 282 306 l 1,12,13
 271 314 271 314 259 323 c 128,-1,14
 247 332 247 332 240 336.5 c 128,-1,15
 233 341 233 341 225 347 c 128,-1,16
 217 353 217 353 213 356 c 128,-1,17
 209 359 209 359 205 362.5 c 128,-1,18
 201 366 201 366 199 368.5 c 128,-1,19
 197 371 197 371 195.5 374 c 128,-1,20
 194 377 194 377 193.5 379.5 c 128,-1,21
 193 382 193 382 193 385 c 0,22,23
 193 401 193 401 207.5 417 c 128,-1,24
 222 433 222 433 242 433 c 0,25,26
 245 433 245 433 247 432.5 c 128,-1,27
 249 432 249 432 251.5 431 c 128,-1,28
 254 430 254 430 256 429 c 128,-1,29
 258 428 258 428 262 425 c 128,-1,30
 266 422 266 422 269 419 c 128,-1,31
 272 416 272 416 278 410 c 128,-1,32
 284 404 284 404 289 399 c 128,-1,33
 294 394 294 394 303 385 c 128,-1,34
 312 376 312 376 321 368 c 1,35,36
 344 490 344 490 353 505 c 0,37,38
 368 527 368 527 393 527 c 0,39,40
 406 527 406 527 414.5 519.5 c 128,-1,41
 423 512 423 512 423 500 c 0,42,43
 423 490 423 490 386 368 c 1,44,45
 400 377 400 377 415 387 c 128,-1,46
 430 397 430 397 438.5 402.5 c 128,-1,47
 447 408 447 408 455.5 413.5 c 128,-1,48
 464 419 464 419 468.5 422 c 128,-1,49
 473 425 473 425 478 427.5 c 128,-1,50
 483 430 483 430 485.5 431 c 128,-1,51
 488 432 488 432 491 432.5 c 128,-1,52
 494 433 494 433 497 433 c 0,53,54
 509 433 509 433 518 424.5 c 128,-1,55
 527 416 527 416 527 403 c 0,56,57
 527 383 527 383 512 371.5 c 128,-1,58
 497 360 497 360 435 327 c 0,59,60
 409 313 409 313 394 305 c 1,61,62
 474 246 474 246 479 240 c 0,63,64
 483 235 483 235 483 226 c 0,65,66
 483 209 483 209 467.5 193.5 c 128,-1,67
 452 178 452 178 434 178 c 0,68,69
 430 178 430 178 427 178.5 c 128,-1,70
 424 179 424 179 420 182 c 128,-1,71
 416 185 416 185 412.5 187.5 c 128,-1,72
 409 190 409 190 402.5 196 c 128,-1,73
 396 202 396 202 390.5 207.5 c 128,-1,74
 385 213 385 213 374.5 223.5 c 128,-1,75
 364 234 364 234 355 243 c 1,76,77
 352 227 352 227 347.5 202 c 128,-1,78
 343 177 343 177 340.5 165.5 c 128,-1,79
 338 154 338 154 334 137.5 c 128,-1,80
 330 121 330 121 326 113.5 c 128,-1,81
 322 106 322 106 315.5 98 c 128,-1,82
 309 90 309 90 301 87 c 128,-1,83
 293 84 293 84 282 84 c 0,84,85
 270 84 270 84 261.5 91.5 c 128,-1,86
 253 99 253 99 253 111 c 0,87,88
 253 118 253 118 290 243 c 1,89,90
 198 182 198 182 188 179 c 0,91,92
 183 178 183 178 178 178 c 0,93,94
 166 178 166 178 157.5 186.5 c 128,-1,95
 149 195 149 195 149 208 c 0,0,1
EndSplineSet
EndChar

StartChar: plus
Encoding: 43 43 14
Width: 525
GlyphClass: 2
Flags: W
ItalicCorrection: 173
LayerCount: 2
Fore
SplineSet
149 305 m 0,0,1
 149 343 149 343 196 343 c 2,2,-1
 309 343 l 1,3,-1
 309 344 l 2,4,5
 310 350 310 350 312.5 359.5 c 128,-1,6
 315 369 315 369 324 404 c 128,-1,7
 333 439 333 439 344 486 c 0,8,9
 355 530 355 530 385 530 c 0,10,11
 400 530 400 530 411 519.5 c 128,-1,12
 422 509 422 509 422 493 c 0,13,14
 422 487 422 487 386 343 c 1,15,-1
 481 343 l 2,16,17
 500 343 500 343 511 335 c 128,-1,18
 522 327 522 327 524.5 319.5 c 128,-1,19
 527 312 527 312 527 305 c 0,20,21
 527 297 527 297 524.5 290 c 128,-1,22
 522 283 522 283 511 275.5 c 128,-1,23
 500 268 500 268 481 268 c 2,24,-1
 367 268 l 1,25,26
 364 252 364 252 329 115 c 0,27,28
 321 81 321 81 291 81 c 0,29,30
 276 81 276 81 265 91.5 c 128,-1,31
 254 102 254 102 254 118 c 0,32,33
 254 125 254 125 290 268 c 1,34,-1
 194 268 l 2,35,36
 176 268 176 268 165 276 c 128,-1,37
 154 284 154 284 151.5 291 c 128,-1,38
 149 298 149 298 149 305 c 0,0,1
EndSplineSet
EndChar

StartChar: comma
Encoding: 44 44 15
Width: 525
GlyphClass: 2
Flags: W
ItalicCorrection: 173
LayerCount: 2
Fore
SplineSet
158 -97 m 0,0,1
 158 -84 158 -84 167.5 -76 c 128,-1,2
 177 -68 177 -68 191.5 -63.5 c 128,-1,3
 206 -59 206 -59 227.5 -43 c 128,-1,4
 249 -27 249 -27 268 0 c 1,5,6
 239 1 239 1 221.5 18.5 c 128,-1,7
 204 36 204 36 204 63 c 0,8,9
 204 96 204 96 229.5 122.5 c 128,-1,10
 255 149 255 149 292 149 c 0,11,12
 326 149 326 149 346.5 125.5 c 128,-1,13
 367 102 367 102 367 65 c 0,14,15
 367 19 367 19 329 -42 c 128,-1,16
 291 -103 291 -103 215 -134 c 0,17,18
 203 -138 203 -138 196 -138 c 0,19,20
 182 -138 182 -138 170 -123.5 c 128,-1,21
 158 -109 158 -109 158 -97 c 0,0,1
EndSplineSet
EndChar

StartChar: hyphen
Encoding: 45 45 16
Width: 525
GlyphClass: 2
Flags: W
ItalicCorrection: 173
LayerCount: 2
Fore
SplineSet
168 215 m 0,0,1
 168 222 168 222 170 230.5 c 128,-1,2
 172 239 172 239 182 249.5 c 128,-1,3
 192 260 192 260 210 260 c 2,4,-1
 429 260 l 2,5,6
 445 260 445 260 454 253 c 128,-1,7
 463 246 463 246 464.5 240 c 128,-1,8
 466 234 466 234 466 229 c 0,9,10
 466 222 466 222 464.5 214 c 128,-1,11
 463 206 463 206 453 195.5 c 128,-1,12
 443 185 443 185 425 185 c 2,13,-1
 214 185 l 2,14,15
 212 185 212 185 209 184.5 c 128,-1,16
 206 184 206 184 205 184 c 0,17,18
 184 184 184 184 176 194.5 c 128,-1,19
 168 205 168 205 168 215 c 0,0,1
EndSplineSet
EndChar

StartChar: period
Encoding: 46 46 17
Width: 525
GlyphClass: 2
Flags: W
ItalicCorrection: 173
LayerCount: 2
Fore
SplineSet
204 64 m 0,0,1
 204 97 204 97 230.5 123 c 128,-1,2
 257 149 257 149 292 149 c 0,3,4
 319 149 319 149 337.5 131 c 128,-1,5
 356 113 356 113 356 85 c 0,6,7
 356 52 356 52 330 26 c 128,-1,8
 304 0 304 0 269 0 c 0,9,10
 242 0 242 0 223 18 c 128,-1,11
 204 36 204 36 204 64 c 0,0,1
EndSplineSet
EndChar

StartChar: slash
Encoding: 47 47 18
Width: 525
GlyphClass: 2
Flags: W
ItalicCorrection: 173
LayerCount: 2
Fore
SplineSet
79 -46 m 4,0,1
 79 -34 79 -34 91 -15 c 6,2,-1
 523 670 l 6,3,4
 537 694 537 694 559 694 c 4,5,6
 575 694 575 694 586 683 c 132,-1,7
 597 672 597 672 597 657 c 4,8,9
 597 646 597 646 586 628 c 6,10,-1
 160 -47 l 6,11,12
 159 -48 159 -48 155 -55 c 132,-1,13
 151 -62 151 -62 148.5 -65.5 c 132,-1,14
 146 -69 146 -69 141 -73.5 c 132,-1,15
 136 -78 136 -78 130 -80.5 c 132,-1,16
 124 -83 124 -83 117 -83 c 4,17,18
 101 -83 101 -83 90 -72.5 c 132,-1,19
 79 -62 79 -62 79 -46 c 4,0,1
EndSplineSet
EndChar

StartChar: zero
Encoding: 48 48 19
Width: 525
GlyphClass: 2
Flags: W
ItalicCorrection: 173
LayerCount: 2
Fore
SplineSet
130 167 m 0,0,1
 130 259 130 259 164.5 361.5 c 128,-1,2
 199 464 199 464 267.5 541.5 c 128,-1,3
 336 619 336 619 417 619 c 0,4,5
 439 619 439 619 459.5 611 c 128,-1,6
 480 603 480 603 501 585 c 128,-1,7
 522 567 522 567 534.5 530 c 128,-1,8
 547 493 547 493 547 442 c 0,9,10
 547 353 547 353 505.5 231.5 c 128,-1,11
 464 110 464 110 386 44 c 0,12,13
 325 -8 325 -8 260 -8 c 0,14,15
 210 -8 210 -8 170 32 c 128,-1,16
 130 72 130 72 130 167 c 0,0,1
241.368055817 81.9571213245 m 1,17,18
 255.977337536 67 255.977337536 67 279 67 c 0,19,20
 317 67 317 67 353 108.5 c 128,-1,21
 389 150 389 150 412.5 209.5 c 128,-1,22
 436 269 436 269 450 330 c 128,-1,23
 464 391 464 391 464 433 c 0,24,25
 464 433.834324078 464 433.834324078 463.995893562 434.662322022 c 1,26,-1
 241.368055817 81.9571213245 l 1,17,18
434.440040518 529.629878771 m 1,27,28
 418.963407039 544 418.963407039 544 398 544 c 0,29,30
 347 544 347 544 303.5 477.5 c 128,-1,31
 260 411 260 411 238 328 c 0,32,33
 216.697437819 247.63124268 216.697437819 247.63124268 216.022109978 183.201711896 c 1,34,-1
 434.440040518 529.629878771 l 1,27,28
EndSplineSet
Substitution2: "'onum' Oldstyle Figures lookup 14 subtable" zerooldstyle
EndChar

StartChar: one
Encoding: 49 49 20
Width: 525
GlyphClass: 2
Flags: W
ItalicCorrection: 173
LayerCount: 2
Fore
SplineSet
130 31 m 0,0,1
 130 75 130 75 170 75 c 2,2,-1
 250 75 l 1,3,-1
 342 442 l 1,4,5
 304 419 304 419 264 419 c 0,6,7
 230 419 230 419 230 451 c 0,8,9
 230 472 230 472 243 485 c 0,10,11
 250 491 250 491 266 494 c 128,-1,12
 282 497 282 497 298 501 c 128,-1,13
 314 505 314 505 340.5 528 c 128,-1,14
 367 551 367 551 394 592 c 0,15,16
 409 616 409 616 428 616 c 0,17,18
 429 616 429 616 431 615.5 c 128,-1,19
 433 615 433 615 434 615 c 1,20,-1
 434 616 l 1,21,22
 462 610 462 610 462 585 c 0,23,24
 462 580 462 580 460 570 c 2,25,-1
 349 128 l 2,26,27
 347 119 347 119 342.5 101.5 c 128,-1,28
 338 84 338 84 336 75 c 1,29,-1
 394 75 l 2,30,31
 432 75 432 75 432 43 c 0,32,33
 432 0 432 0 391 0 c 2,34,-1
 168 0 l 2,35,36
 130 0 130 0 130 31 c 0,0,1
EndSplineSet
Substitution2: "'onum' Oldstyle Figures lookup 14 subtable" oneoldstyle
EndChar

StartChar: two
Encoding: 50 50 21
Width: 525
GlyphClass: 2
Flags: W
ItalicCorrection: 173
LayerCount: 2
Fore
SplineSet
79 21 m 0,0,1
 79 34 79 34 89 61 c 128,-1,2
 99 88 99 88 119 123.5 c 128,-1,3
 139 159 139 159 178 197.5 c 128,-1,4
 217 236 217 236 266 261 c 0,5,6
 369 315 369 315 398 338 c 0,7,8
 459 387 459 387 459 463 c 0,9,10
 459 507 459 507 436 525.5 c 128,-1,11
 413 544 413 544 381 544 c 0,12,13
 338 544 338 544 298.5 515.5 c 128,-1,14
 259 487 259 487 245 446 c 0,15,16
 238 426 238 426 231 420.5 c 128,-1,17
 224 415 224 415 204 415 c 2,18,-1
 199 415 l 2,19,20
 160 415 160 415 160 444 c 0,21,22
 160 494 160 494 226 556.5 c 128,-1,23
 292 619 292 619 385 619 c 0,24,25
 456 619 456 619 499.5 578 c 128,-1,26
 543 537 543 537 543 465 c 0,27,28
 543 412 543 412 524.5 369 c 128,-1,29
 506 326 506 326 472 296.5 c 128,-1,30
 438 267 438 267 408 247.5 c 128,-1,31
 378 228 378 228 337 207 c 128,-1,32
 296 186 296 186 281 176 c 0,33,34
 248 155 248 155 216 118 c 1,35,36
 241 114 241 114 293.5 94 c 128,-1,37
 346 74 346 74 368 74 c 0,38,39
 402 74 402 74 425 105 c 128,-1,40
 448 136 448 136 457 166 c 0,41,42
 461 179 461 179 463 183.5 c 128,-1,43
 465 188 465 188 474 193 c 128,-1,44
 483 198 483 198 500 198 c 0,45,46
 542 198 542 198 542 168 c 0,47,48
 542 154 542 154 530.5 127 c 128,-1,49
 519 100 519 100 498.5 69 c 128,-1,50
 478 38 478 38 442 15 c 128,-1,51
 406 -8 406 -8 365 -8 c 128,-1,52
 324 -8 324 -8 267 18 c 128,-1,53
 210 44 210 44 191 44 c 0,54,55
 178 44 178 44 171.5 36 c 128,-1,56
 165 28 165 28 163 18 c 128,-1,57
 161 8 161 8 152 0 c 128,-1,58
 143 -8 143 -8 126 -8 c 2,59,-1
 116 -8 l 2,60,61
 79 -8 79 -8 79 21 c 0,0,1
EndSplineSet
Substitution2: "'onum' Oldstyle Figures lookup 14 subtable" twooldstyle
EndChar

StartChar: three
Encoding: 51 51 22
Width: 525
GlyphClass: 2
Flags: W
ItalicCorrection: 173
LayerCount: 2
Fore
SplineSet
111 118 m 0,0,1
 111 190 111 190 160 190 c 0,2,3
 176 190 176 190 187.5 178.5 c 128,-1,4
 199 167 199 167 199 151 c 0,5,6
 199 146 199 146 197 137 c 128,-1,7
 195 128 195 128 195 120 c 0,8,9
 195 98 195 98 208.5 82.5 c 128,-1,10
 222 67 222 67 253 67 c 128,-1,11
 284 67 284 67 314 78 c 128,-1,12
 344 89 344 89 370 123.5 c 128,-1,13
 396 158 396 158 396 212 c 0,14,15
 396 280 396 280 332 280 c 2,16,-1
 300 280 l 2,17,18
 261 280 261 280 261 312 c 0,19,20
 261 320 261 320 263 328 c 128,-1,21
 265 336 265 336 274.5 345.5 c 128,-1,22
 284 355 284 355 301 355 c 2,23,-1
 339 355 l 2,24,25
 401 355 401 355 433.5 399 c 128,-1,26
 466 443 466 443 466 488 c 0,27,28
 466 544 466 544 405 544 c 0,29,30
 372 544 372 544 341.5 527.5 c 128,-1,31
 311 511 311 511 298 485 c 0,32,33
 296 481 296 481 293 473 c 128,-1,34
 290 465 290 465 288 462.5 c 128,-1,35
 286 460 286 460 282 456 c 128,-1,36
 278 452 278 452 271.5 451 c 128,-1,37
 265 450 265 450 254 450 c 2,38,-1
 249 450 l 2,39,40
 211 450 211 450 211 479 c 0,41,42
 211 522 211 522 268 570.5 c 128,-1,43
 325 619 325 619 409 619 c 0,44,45
 471 619 471 619 511 585 c 128,-1,46
 551 551 551 551 551 490 c 0,47,48
 551 438 551 438 523.5 388 c 128,-1,49
 496 338 496 338 449 310 c 1,50,51
 479 268 479 268 479 214 c 0,52,53
 479 108 479 108 411.5 50 c 128,-1,54
 344 -8 344 -8 246 -8 c 0,55,56
 181 -8 181 -8 146 29.5 c 128,-1,57
 111 67 111 67 111 118 c 0,0,1
EndSplineSet
Substitution2: "'onum' Oldstyle Figures lookup 14 subtable" threeoldstyle
EndChar

StartChar: four
Encoding: 52 52 23
Width: 525
GlyphClass: 2
Flags: W
ItalicCorrection: 173
LayerCount: 2
Fore
SplineSet
64 41 m 0,0,1
 64 52 64 52 70 59.5 c 128,-1,2
 76 67 76 67 86.5 74 c 128,-1,3
 97 81 97 81 120.5 101 c 128,-1,4
 144 121 144 121 170 149 c 0,5,6
 228 212 228 212 274.5 292.5 c 128,-1,7
 321 373 321 373 341.5 430.5 c 128,-1,8
 362 488 362 488 377.5 539.5 c 128,-1,9
 393 591 393 591 393 592 c 0,10,11
 408 619 408 619 434 619 c 0,12,13
 450 619 450 619 461.5 608.5 c 128,-1,14
 473 598 473 598 473 581 c 0,15,16
 473 575 473 575 466 545 c 128,-1,17
 459 515 459 515 439.5 460 c 128,-1,18
 420 405 420 405 392 345 c 128,-1,19
 364 285 364 285 316 214 c 128,-1,20
 268 143 268 143 211 85 c 1,21,22
 252 80 252 80 307 57 c 1,23,24
 311 72 311 72 315.5 92 c 128,-1,25
 320 112 320 112 322.5 123 c 128,-1,26
 325 134 325 134 329 148 c 128,-1,27
 333 162 333 162 335.5 169 c 128,-1,28
 338 176 338 176 341.5 185 c 128,-1,29
 345 194 345 194 348.5 198 c 128,-1,30
 352 202 352 202 357.5 206 c 128,-1,31
 363 210 363 210 368.5 211.5 c 128,-1,32
 374 213 374 213 382 213 c 0,33,34
 398 213 398 213 409.5 203 c 128,-1,35
 421 193 421 193 421 176 c 0,36,37
 421 171 421 171 388 38 c 1,38,39
 399 39 399 39 414.5 44.5 c 128,-1,40
 430 50 430 50 436 50 c 0,41,42
 449 50 449 50 461 35 c 128,-1,43
 473 20 473 20 473 8 c 0,44,45
 473 -11 473 -11 442 -24 c 128,-1,46
 411 -37 411 -37 380 -37 c 2,47,-1
 369 -37 l 1,48,49
 363 -65 363 -65 335 -176 c 0,50,51
 324 -222 324 -222 288 -222 c 0,52,53
 271 -222 271 -222 260 -211 c 128,-1,54
 249 -200 249 -200 249 -183 c 0,55,56
 249 -176 249 -176 255.5 -150.5 c 128,-1,57
 262 -125 262 -125 272.5 -85.5 c 128,-1,58
 283 -46 283 -46 289 -17 c 1,59,60
 275 -12 275 -12 255.5 -4.5 c 128,-1,61
 236 3 236 3 228.5 5 c 128,-1,62
 221 7 221 7 206 9 c 128,-1,63
 191 11 191 11 169 11 c 0,64,65
 134 11 134 11 120 5.5 c 128,-1,66
 106 0 106 0 104 0 c 0,67,68
 88 0 88 0 76 14.5 c 128,-1,69
 64 29 64 29 64 41 c 0,0,1
EndSplineSet
Substitution2: "'onum' Oldstyle Figures lookup 14 subtable" fouroldstyle
EndChar

StartChar: five
Encoding: 53 53 24
Width: 525
GlyphClass: 2
Flags: W
ItalicCorrection: 173
LayerCount: 2
Fore
SplineSet
117 112 m 0,0,1
 117 150 117 150 131.5 165.5 c 128,-1,2
 146 181 146 181 165 181 c 0,3,4
 183 181 183 181 194 169.5 c 128,-1,5
 205 158 205 158 205 142 c 0,6,7
 205 137 205 137 203 128.5 c 128,-1,8
 201 120 201 120 201 116 c 0,9,10
 201 98 201 98 213.5 82.5 c 128,-1,11
 226 67 226 67 255 67 c 0,12,13
 325 67 325 67 367.5 123 c 128,-1,14
 410 179 410 179 410 246 c 0,15,16
 410 310 410 310 356 310 c 0,17,18
 300 310 300 310 258 268 c 0,19,20
 256 266 256 266 252.5 262.5 c 128,-1,21
 249 259 249 259 247.5 257.5 c 128,-1,22
 246 256 246 256 243 253.5 c 128,-1,23
 240 251 240 251 237 250 c 128,-1,24
 234 249 234 249 229.5 248.5 c 128,-1,25
 225 248 225 248 219 248 c 0,26,27
 205 248 205 248 199 250 c 0,28,29
 178 257 178 257 178 279 c 0,30,31
 178 288 178 288 180 294 c 2,32,-1
 250 572 l 2,33,34
 250 573 250 573 251.5 577.5 c 128,-1,35
 253 582 253 582 253 583 c 128,-1,36
 253 584 253 584 254.5 588 c 128,-1,37
 256 592 256 592 257 593.5 c 128,-1,38
 258 595 258 595 260 598 c 128,-1,39
 262 601 262 601 263.5 602.5 c 128,-1,40
 265 604 265 604 268 606 c 128,-1,41
 271 608 271 608 274 609 c 128,-1,42
 277 610 277 610 281 610.5 c 128,-1,43
 285 611 285 611 290 611 c 2,44,-1
 515 611 l 2,45,46
 554 611 554 611 554 580 c 0,47,48
 554 572 554 572 551.5 563 c 128,-1,49
 549 554 549 554 539.5 544.5 c 128,-1,50
 530 535 530 535 515 535 c 2,51,-1
 326 535 l 1,52,-1
 285 371 l 1,53,54
 328 386 328 386 361 386 c 0,55,56
 422 386 422 386 458 348.5 c 128,-1,57
 494 311 494 311 494 248 c 0,58,59
 494 142 494 142 423.5 67 c 128,-1,60
 353 -8 353 -8 251 -8 c 0,61,62
 187 -8 187 -8 152 28 c 128,-1,63
 117 64 117 64 117 112 c 0,0,1
EndSplineSet
Substitution2: "'onum' Oldstyle Figures lookup 14 subtable" fiveoldstyle
EndChar

StartChar: six
Encoding: 54 54 25
Width: 525
GlyphClass: 2
Flags: W
ItalicCorrection: 173
LayerCount: 2
Fore
SplineSet
131 160 m 0,0,1
 131 202 131 202 145 270.5 c 128,-1,2
 159 339 159 339 180 391 c 0,3,4
 222 497 222 497 297.5 558 c 128,-1,5
 373 619 373 619 457 619 c 0,6,7
 501 619 501 619 528 597.5 c 128,-1,8
 555 576 555 576 555 536 c 0,9,10
 555 503 555 503 540 489 c 128,-1,11
 525 475 525 475 507 475 c 0,12,13
 491 475 491 475 480 485.5 c 128,-1,14
 469 496 469 496 469 513 c 0,15,16
 469 517 469 517 470 523 c 128,-1,17
 471 529 471 529 471 531 c 0,18,19
 471 544 471 544 450 544 c 0,20,21
 393 544 393 544 338.5 491 c 128,-1,22
 284 438 284 438 256 360 c 1,23,24
 314 398 314 398 373 398 c 0,25,26
 443 398 443 398 473.5 354.5 c 128,-1,27
 504 311 504 311 504 260 c 0,28,29
 504 216 504 216 489 170.5 c 128,-1,30
 474 125 474 125 445.5 84.5 c 128,-1,31
 417 44 417 44 371 18 c 128,-1,32
 325 -8 325 -8 269 -8 c 0,33,34
 245 -8 245 -8 223.5 -1 c 128,-1,35
 202 6 202 6 180 22.5 c 128,-1,36
 158 39 158 39 144.5 74.5 c 128,-1,37
 131 110 131 110 131 160 c 0,0,1
215 151 m 0,38,39
 215 67 215 67 275 67 c 0,40,41
 322 67 322 67 356.5 102 c 128,-1,42
 391 137 391 137 405 178 c 128,-1,43
 419 219 419 219 419 253 c 0,44,45
 419 323 419 323 355 323 c 0,46,47
 334 323 334 323 311.5 314 c 128,-1,48
 289 305 289 305 266.5 286 c 128,-1,49
 244 267 244 267 229.5 232 c 128,-1,50
 215 197 215 197 215 151 c 0,38,39
EndSplineSet
Substitution2: "'onum' Oldstyle Figures lookup 14 subtable" sixoldstyle
EndChar

StartChar: seven
Encoding: 55 55 26
Width: 525
GlyphClass: 2
Flags: W
ItalicCorrection: 173
LayerCount: 2
Fore
SplineSet
135 444 m 0,0,1
 135 453 135 453 169 521 c 0,2,3
 190 563 190 563 205 594 c 0,4,5
 212 608 212 608 219.5 613.5 c 128,-1,6
 227 619 227 619 243 619 c 2,7,-1
 251 619 l 2,8,9
 280 619 280 619 289 599 c 1,10,11
 336 619 336 619 378 619 c 0,12,13
 401 619 401 619 417 610.5 c 128,-1,14
 433 602 433 602 440 592.5 c 128,-1,15
 447 583 447 583 456.5 574.5 c 128,-1,16
 466 566 466 566 477 566 c 0,17,18
 519 566 519 566 553 603 c 0,19,20
 569 619 569 619 588 619 c 2,21,-1
 598 619 l 2,22,23
 635 619 635 619 635 590 c 0,24,25
 635 585 635 585 633 579.5 c 128,-1,26
 631 574 631 574 628.5 570.5 c 128,-1,27
 626 567 626 567 622 562 c 128,-1,28
 618 557 618 557 617 555 c 0,29,30
 431 297 431 297 363 37 c 1,31,-1
 362 34 l 2,32,33
 361 30 361 30 360 27.5 c 128,-1,34
 359 25 359 25 357 20.5 c 128,-1,35
 355 16 355 16 353 12.5 c 128,-1,36
 351 9 351 9 347.5 5 c 128,-1,37
 344 1 344 1 339.5 -2 c 128,-1,38
 335 -5 335 -5 329.5 -6.5 c 128,-1,39
 324 -8 324 -8 317 -8 c 0,40,41
 298 -8 298 -8 287.5 3.5 c 128,-1,42
 277 15 277 15 277 28 c 0,43,44
 277 47 277 47 296 109 c 128,-1,45
 315 171 315 171 364 280 c 128,-1,46
 413 389 413 389 477 490 c 1,47,-1
 470 490 l 2,48,49
 443 490 443 490 426 502 c 128,-1,50
 409 514 409 514 397.5 525.5 c 128,-1,51
 386 537 386 537 373 537 c 0,52,53
 342 537 342 537 296.5 514.5 c 128,-1,54
 251 492 251 492 222 443 c 0,55,56
 211 424 211 424 204 419.5 c 128,-1,57
 197 415 197 415 179 415 c 2,58,-1
 171 415 l 2,59,60
 152 415 152 415 143.5 424 c 128,-1,61
 135 433 135 433 135 444 c 0,0,1
EndSplineSet
Substitution2: "'onum' Oldstyle Figures lookup 14 subtable" sevenoldstyle
EndChar

StartChar: eight
Encoding: 56 56 27
Width: 525
GlyphClass: 2
Flags: W
ItalicCorrection: 173
LayerCount: 2
Fore
SplineSet
115 123 m 0,0,1
 115 144 115 144 120 168 c 128,-1,2
 125 192 125 192 138 221.5 c 128,-1,3
 151 251 151 251 178 277.5 c 128,-1,4
 205 304 205 304 243 321 c 2,5,-1
 264 330 l 1,6,7
 200 356 200 356 200 422 c 0,8,9
 200 463 200 463 223 507 c 128,-1,10
 246 551 246 551 297.5 585 c 128,-1,11
 349 619 349 619 416 619 c 0,12,13
 479 619 479 619 516 588.5 c 128,-1,14
 553 558 553 558 553 501 c 0,15,16
 553 471 553 471 543.5 442 c 128,-1,17
 534 413 534 413 503.5 380.5 c 128,-1,18
 473 348 473 348 423 330 c 1,19,20
 496 301 496 301 496 223 c 0,21,22
 496 188 496 188 481 149.5 c 128,-1,23
 466 111 466 111 438 75 c 128,-1,24
 410 39 410 39 363 15.5 c 128,-1,25
 316 -8 316 -8 258 -8 c 0,26,27
 191 -8 191 -8 153 27 c 128,-1,28
 115 62 115 62 115 123 c 0,0,1
201 143 m 0,29,30
 201 108 201 108 221 87.5 c 128,-1,31
 241 67 241 67 278 67 c 0,32,33
 337 67 337 67 374 114.5 c 128,-1,34
 411 162 411 162 411 216 c 0,35,36
 411 251 411 251 391 271.5 c 128,-1,37
 371 292 371 292 334 292 c 0,38,39
 275 292 275 292 238 244.5 c 128,-1,40
 201 197 201 197 201 143 c 0,29,30
284 430 m 0,41,42
 284 396 284 396 305 382 c 128,-1,43
 326 368 326 368 353 368 c 0,44,45
 404 368 404 368 435 403 c 128,-1,46
 466 438 466 438 466 481 c 0,47,48
 466 515 466 515 445 529.5 c 128,-1,49
 424 544 424 544 397 544 c 0,50,51
 347 544 347 544 315.5 508.5 c 128,-1,52
 284 473 284 473 284 430 c 0,41,42
EndSplineSet
Substitution2: "'onum' Oldstyle Figures lookup 14 subtable" eightoldstyle
EndChar

StartChar: nine
Encoding: 57 57 28
Width: 525
GlyphClass: 2
Flags: W
ItalicCorrection: 173
LayerCount: 2
Fore
SplineSet
121 76 m 0,0,1
 121 108 121 108 136 122 c 128,-1,2
 151 136 151 136 169 136 c 0,3,4
 185 136 185 136 196 125.5 c 128,-1,5
 207 115 207 115 207 98 c 0,6,7
 207 96 207 96 206.5 91 c 128,-1,8
 206 86 206 86 206 83 c 0,9,10
 206 67 206 67 234 67 c 0,11,12
 289 67 289 67 341 119.5 c 128,-1,13
 393 172 393 172 421 252 c 1,14,15
 364 212 364 212 302 212 c 0,16,17
 233 212 233 212 202.5 255.5 c 128,-1,18
 172 299 172 299 172 350 c 0,19,20
 172 377 172 377 182 420.5 c 128,-1,21
 192 464 192 464 210 496 c 0,22,23
 219 512 219 512 232.5 528.5 c 128,-1,24
 246 545 246 545 270.5 568 c 128,-1,25
 295 591 295 591 332 605 c 128,-1,26
 369 619 369 619 411 619 c 0,27,28
 434 619 434 619 455.5 612 c 128,-1,29
 477 605 477 605 498.5 588.5 c 128,-1,30
 520 572 520 572 533 538 c 128,-1,31
 546 504 546 504 546 455 c 0,32,33
 546 403 546 403 531.5 332.5 c 128,-1,34
 517 262 517 262 474 174 c 128,-1,35
 431 86 431 86 367 40 c 0,36,37
 301 -8 301 -8 230 -8 c 0,38,39
 182 -8 182 -8 151.5 13.5 c 128,-1,40
 121 35 121 35 121 76 c 0,0,1
257 358 m 0,41,42
 257 331 257 331 271 309.5 c 128,-1,43
 285 288 285 288 320 288 c 0,44,45
 372 288 372 288 417 331.5 c 128,-1,46
 462 375 462 375 462 461 c 0,47,48
 462 544 462 544 404 544 c 0,49,50
 340 544 340 544 298.5 482.5 c 128,-1,51
 257 421 257 421 257 358 c 0,41,42
EndSplineSet
Substitution2: "'onum' Oldstyle Figures lookup 14 subtable" nineoldstyle
EndChar

StartChar: less
Encoding: 60 60 31
Width: 525
GlyphClass: 2
Flags: W
ItalicCorrection: 173
LayerCount: 2
Fore
SplineSet
165 305 m 0,0,1
 165 327 165 327 194 345 c 2,2,-1
 503 555 l 2,3,4
 518 565 518 565 530 565 c 0,5,6
 545 565 545 565 556 555 c 128,-1,7
 567 545 567 545 567 528 c 0,8,9
 567 521 567 521 565.5 515.5 c 128,-1,10
 564 510 564 510 559 505 c 128,-1,11
 554 500 554 500 552 497.5 c 128,-1,12
 550 495 550 495 542 490 c 128,-1,13
 534 485 534 485 533 484 c 2,14,-1
 261 299 l 1,15,16
 286 275 286 275 436 120 c 0,17,18
 456 100 456 100 456 82 c 0,19,20
 456 67 456 67 445.5 56.5 c 128,-1,21
 435 46 435 46 419 46 c 128,-1,22
 403 46 403 46 380 69 c 2,23,-1
 186 269 l 2,24,25
 165 290 165 290 165 305 c 0,0,1
EndSplineSet
EndChar

StartChar: equal
Encoding: 61 61 32
Width: 525
GlyphClass: 2
Flags: W
ItalicCorrection: 173
LayerCount: 2
Fore
SplineSet
131 227 m 0,0,1
 131 241 131 241 139.5 251.5 c 128,-1,2
 148 262 148 262 162 264 c 0,3,4
 169 265 169 265 182 265 c 2,5,-1
 464 265 l 2,6,7
 484 265 484 265 496 254.5 c 128,-1,8
 508 244 508 244 508 227 c 0,9,10
 508 220 508 220 505.5 213 c 128,-1,11
 503 206 503 206 491.5 198 c 128,-1,12
 480 190 480 190 461 190 c 2,13,-1
 176 190 l 2,14,15
 149 190 149 190 140 202 c 128,-1,16
 131 214 131 214 131 227 c 0,0,1
170 383 m 0,17,18
 170 391 170 391 172.5 398 c 128,-1,19
 175 405 175 405 186.5 413 c 128,-1,20
 198 421 198 421 217 421 c 2,21,-1
 501 421 l 2,22,23
 520 421 520 421 531 413 c 128,-1,24
 542 405 542 405 544.5 398 c 128,-1,25
 547 391 547 391 547 383 c 0,26,27
 547 376 547 376 544.5 368.5 c 128,-1,28
 542 361 542 361 531.5 353.5 c 128,-1,29
 521 346 521 346 503 346 c 2,30,-1
 213 346 l 2,31,32
 188 346 188 346 179 358 c 128,-1,33
 170 370 170 370 170 383 c 0,17,18
EndSplineSet
EndChar

StartChar: greater
Encoding: 62 62 33
Width: 525
GlyphClass: 2
Flags: W
ItalicCorrection: 173
LayerCount: 2
Fore
SplineSet
109 83 m 0,0,1
 109 89 109 89 111 94.5 c 128,-1,2
 113 100 113 100 115.5 103.5 c 128,-1,3
 118 107 118 107 122 111 c 128,-1,4
 126 115 126 115 129 117 c 128,-1,5
 132 119 132 119 137 122.5 c 128,-1,6
 142 126 142 126 143 127 c 2,7,-1
 366 278 l 2,8,9
 410 308 410 308 415 312 c 1,10,-1
 240 492 l 2,11,12
 220 512 220 512 220 528 c 0,13,14
 220 546 220 546 232 555.5 c 128,-1,15
 244 565 244 565 258 565 c 0,16,17
 274 565 274 565 297 542 c 2,18,-1
 490 343 l 2,19,20
 511 320 511 320 511 306 c 0,21,22
 511 284 511 284 483 266 c 2,23,-1
 174 56 l 2,24,25
 158 46 158 46 147 46 c 0,26,27
 131 46 131 46 120 57 c 128,-1,28
 109 68 109 68 109 83 c 0,0,1
EndSplineSet
EndChar

StartChar: question
Encoding: 63 63 34
Width: 525
GlyphClass: 2
Flags: W
ItalicCorrection: 173
LayerCount: 2
Fore
SplineSet
212 483 m 0,0,1
 212 528 212 528 268.5 573.5 c 128,-1,2
 325 619 325 619 408 619 c 0,3,4
 463 619 463 619 497.5 590.5 c 128,-1,5
 532 562 532 562 532 509 c 0,6,7
 532 430 532 430 462 375 c 0,8,9
 448 365 448 365 348 305 c 1,10,-1
 342 293 l 1,11,-1
 337 278 l 1,12,13
 353 284 353 284 361 292.5 c 128,-1,14
 369 301 369 301 370.5 308 c 128,-1,15
 372 315 372 315 380.5 320 c 128,-1,16
 389 325 389 325 406 325 c 2,17,-1
 411 325 l 2,18,19
 450 325 450 325 450 295 c 0,20,21
 450 264 450 264 411.5 232 c 128,-1,22
 373 200 373 200 321 200 c 0,23,24
 293 200 293 200 275.5 219 c 128,-1,25
 258 238 258 238 258 269 c 0,26,27
 258 330 258 330 300 367 c 0,28,29
 314 380 314 380 357 402.5 c 128,-1,30
 400 425 400 425 426.5 449.5 c 128,-1,31
 453 474 453 474 453 506 c 0,32,33
 453 544 453 544 404 544 c 0,34,35
 377 544 377 544 356 536.5 c 128,-1,36
 335 529 335 529 323 518 c 128,-1,37
 311 507 311 507 303.5 496 c 128,-1,38
 296 485 296 485 294 478 c 2,39,-1
 291 470 l 2,40,41
 278 444 278 444 250 444 c 0,42,43
 235 444 235 444 223.5 455 c 128,-1,44
 212 466 212 466 212 483 c 0,0,1
216 53 m 0,45,46
 216 81 216 81 237.5 100.5 c 128,-1,47
 259 120 259 120 284 120 c 0,48,49
 306 120 306 120 321.5 105 c 128,-1,50
 337 90 337 90 337 67 c 0,51,52
 337 40 337 40 316.5 20 c 128,-1,53
 296 0 296 0 270 0 c 0,54,55
 247 0 247 0 231.5 15 c 128,-1,56
 216 30 216 30 216 53 c 0,45,46
EndSplineSet
EndChar

StartChar: at
Encoding: 64 64 35
Width: 525
GlyphClass: 2
Flags: W
ItalicCorrection: 173
LayerCount: 2
Fore
SplineSet
138 194 m 0,0,1
 138 257 138 257 159 329 c 128,-1,2
 180 401 180 401 217 465.5 c 128,-1,3
 254 530 254 530 314 572.5 c 128,-1,4
 374 615 374 615 443 615 c 0,5,6
 485 615 485 615 518.5 586 c 128,-1,7
 552 557 552 557 552 481 c 0,8,9
 552 393 552 393 511 262 c 0,10,11
 487 190 487 190 443.5 147.5 c 128,-1,12
 400 105 400 105 352 105 c 0,13,14
 315 105 315 105 285.5 134 c 128,-1,15
 256 163 256 163 256 229 c 0,16,17
 256 263 256 263 267.5 308.5 c 128,-1,18
 279 354 279 354 300 399 c 128,-1,19
 321 444 321 444 357.5 475 c 128,-1,20
 394 506 394 506 438 506 c 0,21,22
 459 506 459 506 481 495 c 1,23,24
 474 539 474 539 438 539 c 0,25,26
 372 539 372 539 317 481 c 128,-1,27
 262 423 262 423 234.5 346.5 c 128,-1,28
 207 270 207 270 207 201 c 0,29,30
 207 129 207 129 238 100 c 128,-1,31
 269 71 269 71 309 71 c 0,32,33
 333 71 333 71 354.5 81 c 128,-1,34
 376 91 376 91 391 103 c 128,-1,35
 406 115 406 115 410 116 c 0,36,37
 413 117 413 117 427 117 c 2,38,-1
 431 117 l 2,39,40
 467 117 467 117 467 88 c 0,41,42
 467 64 467 64 415.5 30 c 128,-1,43
 364 -4 364 -4 304 -4 c 0,44,45
 275 -4 275 -4 247.5 6 c 128,-1,46
 220 16 220 16 194.5 37 c 128,-1,47
 169 58 169 58 153.5 99 c 128,-1,48
 138 140 138 140 138 194 c 0,0,1
325 235 m 0,49,50
 325 181 325 181 357 181 c 0,51,52
 399 181 399 181 431.5 248.5 c 128,-1,53
 464 316 464 316 464 376 c 0,54,55
 464 430 464 430 432 430 c 0,56,57
 390 430 390 430 357.5 362.5 c 128,-1,58
 325 295 325 295 325 235 c 0,49,50
EndSplineSet
EndChar

StartChar: A
Encoding: 65 65 36
Width: 525
GlyphClass: 2
Flags: W
ItalicCorrection: 173
AnchorPoint: "Anchor-5" 420 619 basechar 0
AnchorPoint: "Anchor-4" 262 0 basechar 0
AnchorPoint: "Anchor-1" 396 0 basechar 0
LayerCount: 2
Fore
SplineSet
73 31 m 0,0,1
 73 76 73 76 112 76 c 1,2,3
 112 76 112 76 117 75 c 2,4,-1
 134 75 l 1,5,-1
 345 571 l 2,6,7
 357 599 357 599 368 609 c 128,-1,8
 379 619 379 619 406 619 c 2,9,-1
 434 619 l 2,10,11
 466 619 466 619 466 587 c 0,12,13
 466 586 466 586 465.5 583 c 128,-1,14
 465 580 465 580 465 579 c 2,15,-1
 431 124 l 2,16,17
 429 90 429 90 427 75 c 1,18,-1
 429 75 l 2,19,20
 471 75 471 75 471 45 c 0,21,22
 471 0 471 0 428 0 c 2,23,-1
 322 0 l 2,24,25
 302 0 302 0 293.5 9.5 c 128,-1,26
 285 19 285 19 285 31 c 0,27,28
 285 75 285 75 327 75 c 2,29,-1
 342 75 l 1,30,-1
 348 150 l 1,31,-1
 251 150 l 1,32,-1
 220 75 l 1,33,34
 258 75 258 75 258 45 c 0,35,36
 258 0 258 0 217 0 c 2,37,-1
 140 0 l 2,38,39
 138 0 138 0 131 -0.5 c 128,-1,40
 124 -1 124 -1 120 -1 c 0,41,42
 73 -1 73 -1 73 31 c 0,0,1
282 225 m 1,43,-1
 355 225 l 1,44,45
 366 398 366 398 397 541 c 1,46,47
 367 436 367 436 282 225 c 1,43,-1
EndSplineSet
EndChar

StartChar: B
Encoding: 66 66 37
Width: 525
GlyphClass: 2
Flags: W
ItalicCorrection: 173
AnchorPoint: "Anchor-5" 369 619 basechar 0
AnchorPoint: "Anchor-4" 215 0 basechar 0
LayerCount: 2
Fore
SplineSet
62 31 m 0,0,1
 62 75 62 75 106 75 c 2,2,-1
 130 75 l 1,3,-1
 244 535 l 1,4,-1
 232 535 l 2,5,6
 211 536 211 536 203.5 546.5 c 128,-1,7
 196 557 196 557 196 566 c 0,8,9
 196 572 196 572 197.5 580 c 128,-1,10
 199 588 199 588 208.5 599.5 c 128,-1,11
 218 611 218 611 235 611 c 2,12,-1
 442 611 l 2,13,14
 486 611 486 611 518 586.5 c 128,-1,15
 550 562 550 562 550 505 c 0,16,17
 550 476 550 476 541.5 444 c 128,-1,18
 533 412 533 412 503.5 374.5 c 128,-1,19
 474 337 474 337 428 320 c 1,20,21
 496 301 496 301 496 221 c 0,22,23
 496 191 496 191 484.5 155 c 128,-1,24
 473 119 473 119 451.5 83 c 128,-1,25
 430 47 430 47 391 23.5 c 128,-1,26
 352 0 352 0 303 0 c 2,27,-1
 100 0 l 2,28,29
 85 0 85 0 76 6.5 c 128,-1,30
 67 13 67 13 64.5 19 c 128,-1,31
 62 25 62 25 62 31 c 0,0,1
215 75 m 1,32,-1
 306 75 l 2,33,34
 344 75 344 75 370 103.5 c 128,-1,35
 396 132 396 132 404.5 162.5 c 128,-1,36
 413 193 413 193 413 220 c 0,37,38
 413 280 413 280 362 280 c 2,39,-1
 266 280 l 1,40,-1
 215 75 l 1,32,-1
285 355 m 1,41,-1
 359 355 l 2,42,43
 409 355 409 355 436.5 400 c 128,-1,44
 464 445 464 445 464 487 c 0,45,46
 464 535 464 535 418 535 c 2,47,-1
 330 535 l 1,48,-1
 285 355 l 1,41,-1
EndSplineSet
EndChar

StartChar: C
Encoding: 67 67 38
Width: 525
GlyphClass: 2
Flags: W
ItalicCorrection: 173
AnchorPoint: "Anchor-5" 426 619 basechar 0
AnchorPoint: "Anchor-4" 285 0 basechar 0
LayerCount: 2
Fore
SplineSet
134 181 m 0,0,1
 134 243 134 243 153.5 317 c 128,-1,2
 173 391 173 391 208.5 459.5 c 128,-1,3
 244 528 244 528 301.5 573.5 c 128,-1,4
 359 619 359 619 426 619 c 0,5,6
 474 619 474 619 516 585 c 1,7,8
 535 607 535 607 543.5 613 c 128,-1,9
 552 619 552 619 564 619 c 0,10,11
 581 619 581 619 588.5 609.5 c 128,-1,12
 596 600 596 600 596 590 c 0,13,14
 596 584 596 584 559 436 c 0,15,16
 555 422 555 422 548 415.5 c 128,-1,17
 541 409 541 409 536 408 c 128,-1,18
 531 407 531 407 520 407 c 2,19,-1
 512 407 l 2,20,21
 475 407 475 407 475 440 c 0,22,23
 475 445 475 445 476 458 c 128,-1,24
 477 471 477 471 477 479 c 0,25,26
 477 503 477 503 466.5 523.5 c 128,-1,27
 456 544 456 544 432 544 c 0,28,29
 372 544 372 544 321 480.5 c 128,-1,30
 270 417 270 417 244.5 336 c 128,-1,31
 219 255 219 255 219 188 c 128,-1,32
 219 121 219 121 243.5 94 c 128,-1,33
 268 67 268 67 299 67 c 0,34,35
 332 67 332 67 361 95 c 128,-1,36
 390 123 390 123 403 159 c 0,37,38
 404 161 404 161 406 167 c 128,-1,39
 408 173 408 173 408.5 174.5 c 128,-1,40
 409 176 409 176 411 180.5 c 128,-1,41
 413 185 413 185 414.5 186 c 128,-1,42
 416 187 416 187 419.5 190 c 128,-1,43
 423 193 423 193 426.5 193.5 c 128,-1,44
 430 194 430 194 435 195 c 128,-1,45
 440 196 440 196 446 196 c 0,46,47
 490 196 490 196 490 166 c 0,48,49
 490 120 490 120 428.5 56 c 128,-1,50
 367 -8 367 -8 283 -8 c 0,51,52
 258 -8 258 -8 234.5 0.5 c 128,-1,53
 211 9 211 9 187 29 c 128,-1,54
 163 49 163 49 148.5 88 c 128,-1,55
 134 127 134 127 134 181 c 0,0,1
EndSplineSet
EndChar

StartChar: D
Encoding: 68 68 39
Width: 525
GlyphClass: 2
Flags: W
ItalicCorrection: 173
AnchorPoint: "Anchor-5" 371 619 basechar 0
AnchorPoint: "Anchor-4" 216 0 basechar 0
LayerCount: 2
Fore
SplineSet
62 30 m 0,0,1
 62 49 62 49 70.5 60 c 128,-1,2
 79 71 79 71 86 73.5 c 128,-1,3
 93 76 93 76 101 76 c 2,4,-1
 103 75 l 1,5,-1
 124 75 l 1,6,-1
 239 535 l 1,7,-1
 235 535 l 2,8,9
 195 535 195 535 195 566 c 0,10,11
 195 574 195 574 197 583 c 128,-1,12
 199 592 199 592 209.5 601.5 c 128,-1,13
 220 611 220 611 238 611 c 2,14,-1
 418 611 l 2,15,16
 454 611 454 611 480 595.5 c 128,-1,17
 506 580 506 580 519.5 554 c 128,-1,18
 533 528 533 528 539 500 c 128,-1,19
 545 472 545 472 545 440 c 0,20,21
 545 381 545 381 527 308.5 c 128,-1,22
 509 236 509 236 476 165.5 c 128,-1,23
 443 95 443 95 387 47.5 c 128,-1,24
 331 0 331 0 265 0 c 2,25,-1
 100 0 l 2,26,27
 62 0 62 0 62 30 c 0,0,1
210 75 m 1,28,-1
 262 75 l 2,29,30
 310 75 310 75 350 115 c 128,-1,31
 390 155 390 155 412 212.5 c 128,-1,32
 434 270 434 270 446 324.5 c 128,-1,33
 458 379 458 379 458 416 c 0,34,35
 458 535 458 535 377 535 c 2,36,-1
 325 535 l 1,37,-1
 210 75 l 1,28,-1
EndSplineSet
EndChar

StartChar: E
Encoding: 69 69 40
Width: 525
GlyphClass: 2
Flags: W
ItalicCorrection: 173
AnchorPoint: "Anchor-5" 414 619 basechar 0
AnchorPoint: "Anchor-4" 259 0 basechar 0
AnchorPoint: "Anchor-1" 259 0 basechar 0
LayerCount: 2
Fore
SplineSet
63 31 m 0,0,1
 63 68 63 68 91 74 c 0,2,3
 96 75 96 75 107 75 c 2,4,-1
 132 75 l 1,5,-1
 247 535 l 1,6,-1
 234 535 l 2,7,8
 197 535 197 535 197 566 c 0,9,10
 197 611 197 611 234 611 c 2,11,-1
 553 611 l 2,12,13
 590 611 590 611 590 580 c 0,14,15
 590 572 590 572 576 517.5 c 128,-1,16
 562 463 562 463 560 459 c 0,17,18
 551 441 551 441 523 441 c 0,19,20
 506 441 506 441 502 442 c 0,21,22
 480 448 480 448 480 470 c 0,23,24
 480 475 480 475 495 535 c 1,25,-1
 332 535 l 1,26,-1
 287 354 l 1,27,-1
 366 354 l 1,28,-1
 366 355 l 1,29,30
 374 392 374 392 382 401.5 c 128,-1,31
 390 411 390 411 413 411 c 0,32,33
 432 411 432 411 439 407 c 0,34,35
 457 397 457 397 457 380 c 0,36,37
 457 375 457 375 427 255 c 0,38,39
 422 233 422 233 412 227.5 c 128,-1,40
 402 222 402 222 385 222 c 2,41,-1
 380 222 l 2,42,43
 342 222 342 222 342 253 c 0,44,45
 342 259 342 259 347 279 c 1,46,-1
 268 279 l 1,47,-1
 218 75 l 1,48,-1
 398 75 l 1,49,50
 401 87 401 87 404.5 102 c 128,-1,51
 408 117 408 117 410 124.5 c 128,-1,52
 412 132 412 132 414.5 142 c 128,-1,53
 417 152 417 152 419 156.5 c 128,-1,54
 421 161 421 161 423 167 c 128,-1,55
 425 173 425 173 427.5 175 c 128,-1,56
 430 177 430 177 433 180 c 128,-1,57
 436 183 436 183 440 183.5 c 128,-1,58
 444 184 444 184 448.5 184.5 c 128,-1,59
 453 185 453 185 460 185 c 2,60,-1
 462 185 l 2,61,62
 502 185 502 185 502 157 c 0,63,64
 502 146 502 146 475 41 c 0,65,66
 471 24 471 24 468 17.5 c 128,-1,67
 465 11 465 11 457 5.5 c 128,-1,68
 449 0 449 0 434 0 c 2,69,-1
 100 0 l 2,70,71
 63 0 63 0 63 31 c 0,0,1
EndSplineSet
EndChar

StartChar: F
Encoding: 70 70 41
Width: 525
GlyphClass: 2
Flags: W
ItalicCorrection: 173
AnchorPoint: "Anchor-5" 409 619 basechar 0
AnchorPoint: "Anchor-4" 254 0 basechar 0
LayerCount: 2
Fore
SplineSet
64 31 m 0,0,1
 64 75 64 75 107 75 c 2,2,-1
 136 75 l 1,3,-1
 250 535 l 1,4,-1
 235 535 l 2,5,6
 198 535 198 535 198 566 c 0,7,8
 198 611 198 611 235 611 c 2,9,-1
 560 611 l 2,10,11
 598 611 598 611 598 580 c 0,12,13
 598 572 598 572 584 517.5 c 128,-1,14
 570 463 570 463 568 459 c 0,15,16
 559 441 559 441 531 441 c 0,17,18
 514 441 514 441 511 442 c 0,19,20
 488 449 488 449 488 470 c 0,21,22
 488 475 488 475 503 535 c 1,23,-1
 336 535 l 1,24,-1
 288 343 l 1,25,-1
 372 343 l 1,26,27
 373 347 373 347 375.5 357 c 128,-1,28
 378 367 378 367 378.5 369.5 c 128,-1,29
 379 372 379 372 381 378.5 c 128,-1,30
 383 385 383 385 385 387 c 128,-1,31
 387 389 387 389 390 392.5 c 128,-1,32
 393 396 393 396 397 397 c 128,-1,33
 401 398 401 398 406.5 399 c 128,-1,34
 412 400 412 400 419 400 c 2,35,-1
 425 400 l 2,36,37
 462 400 462 400 462 369 c 0,38,39
 462 364 462 364 453 325 c 0,40,41
 431 234 431 234 425 225 c 0,42,43
 417 211 417 211 391 211 c 2,44,-1
 388 211 l 2,45,46
 348 211 348 211 348 243 c 1,47,-1
 353 268 l 1,48,-1
 269 268 l 1,49,-1
 221 75 l 1,50,-1
 251 75 l 2,51,52
 290 75 290 75 290 44 c 0,53,54
 290 0 290 0 250 0 c 2,55,-1
 102 0 l 2,56,57
 64 0 64 0 64 31 c 0,0,1
EndSplineSet
EndChar

StartChar: G
Encoding: 71 71 42
Width: 525
GlyphClass: 2
Flags: W
ItalicCorrection: 173
AnchorPoint: "Anchor-5" 406 619 basechar 0
AnchorPoint: "Anchor-4" 267 0 basechar 0
LayerCount: 2
Fore
SplineSet
130 174 m 0,0,1
 130 225 130 225 144 293 c 128,-1,2
 158 361 158 361 195.5 441 c 128,-1,3
 233 521 233 521 285 567 c 0,4,5
 344 619 344 619 407 619 c 0,6,7
 456 619 456 619 488 588 c 1,8,-1
 489 588 l 1,9,10
 506 607 506 607 514 613 c 128,-1,11
 522 619 522 619 535 619 c 0,12,13
 552 619 552 619 559.5 609.5 c 128,-1,14
 567 600 567 600 567 590 c 0,15,16
 567 589 567 589 530 439 c 0,17,18
 525 418 525 418 516 412.5 c 128,-1,19
 507 407 507 407 489 407 c 2,20,-1
 484 407 l 2,21,22
 446 407 446 407 446 438 c 0,23,24
 446 443 446 443 447.5 457.5 c 128,-1,25
 449 472 449 472 449 482 c 0,26,27
 449 543 449 543 413 543 c 0,28,29
 387 543 387 543 352.5 519 c 128,-1,30
 318 495 318 495 285 438 c 0,31,32
 252 380 252 380 233 302 c 128,-1,33
 214 224 214 224 214 177 c 0,34,35
 214 133 214 133 229 100 c 128,-1,36
 244 67 244 67 278 67 c 0,37,38
 300 67 300 67 318.5 82 c 128,-1,39
 337 97 337 97 350 121 c 128,-1,40
 363 145 363 145 369.5 160.5 c 128,-1,41
 376 176 376 176 381 192 c 1,42,-1
 358 192 l 2,43,44
 321 192 321 192 321 225 c 0,45,46
 321 233 321 233 323 241 c 128,-1,47
 325 249 325 249 335 258.5 c 128,-1,48
 345 268 345 268 362 268 c 2,49,-1
 481 268 l 2,50,51
 518 268 518 268 518 237 c 0,52,53
 518 192 518 192 476 192 c 2,54,-1
 468 192 l 1,55,56
 466 180 466 180 430 37 c 0,57,58
 425 12 425 12 416 5.5 c 128,-1,59
 407 -1 407 -1 389 -1 c 2,60,-1
 382 -1 l 2,61,62
 357 -1 357 -1 346 16 c 1,63,64
 305 -8 305 -8 265 -8 c 0,65,66
 213 -8 213 -8 171.5 34 c 128,-1,67
 130 76 130 76 130 174 c 0,0,1
EndSplineSet
EndChar

StartChar: H
Encoding: 72 72 43
Width: 525
GlyphClass: 2
Flags: W
ItalicCorrection: 173
AnchorPoint: "Anchor-5" 417 619 basechar 0
AnchorPoint: "Anchor-4" 262 0 basechar 0
LayerCount: 2
Fore
SplineSet
63 31 m 0,0,1
 64 51 64 51 72.5 61.5 c 128,-1,2
 81 72 81 72 87.5 73.5 c 128,-1,3
 94 75 94 75 104 75 c 2,4,-1
 127 75 l 1,5,-1
 242 535 l 1,6,-1
 235 535 l 2,7,8
 197 535 197 535 197 569 c 0,9,10
 197 611 197 611 237 611 c 2,11,-1
 356 611 l 2,12,13
 393 611 393 611 393 580 c 0,14,15
 393 561 393 561 384.5 550 c 128,-1,16
 376 539 376 539 368.5 537 c 128,-1,17
 361 535 361 535 353 535 c 2,18,-1
 328 535 l 1,19,-1
 283 355 l 1,20,-1
 419 355 l 1,21,-1
 464 535 l 1,22,-1
 457 535 l 2,23,24
 419 535 419 535 419 569 c 0,25,26
 419 611 419 611 459 611 c 2,27,-1
 577 611 l 2,28,29
 614 611 614 611 614 580 c 0,30,31
 614 535 614 535 572 535 c 2,32,-1
 549 535 l 1,33,-1
 435 75 l 1,34,-1
 442 75 l 2,35,36
 480 75 480 75 480 43 c 0,37,38
 480 0 480 0 441 0 c 2,39,-1
 322 0 l 2,40,41
 284 0 284 0 284 31 c 0,42,43
 285 51 285 51 293.5 61.5 c 128,-1,44
 302 72 302 72 308.5 73.5 c 128,-1,45
 315 75 315 75 325 75 c 2,46,-1
 349 75 l 1,47,-1
 400 280 l 1,48,-1
 264 280 l 1,49,-1
 213 75 l 1,50,-1
 220 75 l 2,51,52
 259 75 259 75 259 43 c 0,53,54
 259 35 259 35 257 27 c 128,-1,55
 255 19 255 19 245 9.5 c 128,-1,56
 235 0 235 0 219 0 c 2,57,-1
 100 0 l 2,58,59
 63 0 63 0 63 31 c 0,0,1
EndSplineSet
EndChar

StartChar: I
Encoding: 73 73 44
Width: 525
GlyphClass: 2
Flags: W
ItalicCorrection: 173
AnchorPoint: "Anchor-5" 416 619 basechar 0
AnchorPoint: "Anchor-4" 261 0 basechar 0
AnchorPoint: "Anchor-1" 261 0 basechar 0
LayerCount: 2
Fore
SplineSet
103 31 m 0,0,1
 103 75 103 75 144 75 c 2,2,-1
 237 75 l 1,3,-1
 352 535 l 1,4,-1
 274 535 l 2,5,6
 253 535 253 535 244.5 545 c 128,-1,7
 236 555 236 555 236 567 c 0,8,9
 237 586 237 586 245 596.5 c 128,-1,10
 253 607 253 607 260 609 c 128,-1,11
 267 611 267 611 277 611 c 2,12,-1
 535 611 l 2,13,14
 573 611 573 611 573 580 c 0,15,16
 573 535 573 535 532 535 c 2,17,-1
 438 535 l 1,18,-1
 323 75 l 1,19,-1
 402 75 l 2,20,21
 439 75 439 75 439 44 c 0,22,23
 438 25 438 25 430 14.5 c 128,-1,24
 422 4 422 4 415 2 c 128,-1,25
 408 0 408 0 398 0 c 2,26,-1
 140 0 l 2,27,28
 103 0 103 0 103 31 c 0,0,1
EndSplineSet
EndChar

StartChar: J
Encoding: 74 74 45
Width: 525
GlyphClass: 2
Flags: W
ItalicCorrection: 173
AnchorPoint: "Anchor-5" 498 619 basechar 0
AnchorPoint: "Anchor-4" 269 0 basechar 0
LayerCount: 2
Fore
SplineSet
116 86 m 0,0,1
 116 116 116 116 130.5 129.5 c 128,-1,2
 145 143 145 143 163 143 c 0,3,4
 180 143 180 143 191 132 c 128,-1,5
 202 121 202 121 202 105 c 0,6,7
 202 102 202 102 201.5 98 c 128,-1,8
 201 94 201 94 201 91 c 0,9,10
 201 67 201 67 247 67 c 0,11,12
 261 67 261 67 273.5 70.5 c 128,-1,13
 286 74 286 74 294.5 79.5 c 128,-1,14
 303 85 303 85 310.5 93 c 128,-1,15
 318 101 318 101 322 108.5 c 128,-1,16
 326 116 326 116 330 125 c 128,-1,17
 334 134 334 134 335.5 139.5 c 128,-1,18
 337 145 337 145 338 152 c 2,19,-1
 340 158 l 1,20,-1
 434 535 l 1,21,-1
 379 535 l 2,22,23
 340 535 340 535 340 568 c 0,24,25
 340 611 340 611 383 611 c 2,26,-1
 549 611 l 2,27,28
 589 611 589 611 589 580 c 0,29,30
 589 535 589 535 546 535 c 2,31,-1
 519 535 l 1,32,33
 514 508 514 508 509 492 c 2,34,-1
 418 129 l 2,35,36
 401 59 401 59 351.5 25.5 c 128,-1,37
 302 -8 302 -8 243 -8 c 0,38,39
 187 -8 187 -8 151.5 18 c 128,-1,40
 116 44 116 44 116 86 c 0,0,1
EndSplineSet
EndChar

StartChar: K
Encoding: 75 75 46
Width: 525
GlyphClass: 2
Flags: W
ItalicCorrection: 173
AnchorPoint: "Anchor-5" 410 619 basechar 0
AnchorPoint: "Anchor-4" 255 0 basechar 0
LayerCount: 2
Fore
SplineSet
62 31 m 0,0,1
 62 75 62 75 104 75 c 2,2,-1
 124 75 l 1,3,-1
 239 535 l 1,4,5
 196 535 196 535 196 567 c 0,6,7
 196 611 196 611 236 611 c 2,8,-1
 335 611 l 2,9,10
 371 611 371 611 371 579 c 0,11,12
 371 535 371 535 330 535 c 2,13,-1
 309 535 l 1,14,-1
 256 321 l 1,15,-1
 448 537 l 1,16,17
 427 548 427 548 427 566 c 0,18,19
 427 611 427 611 468 611 c 2,20,-1
 557 611 l 2,21,22
 594 611 594 611 594 580 c 0,23,24
 594 535 594 535 550 535 c 2,25,-1
 528 535 l 1,26,-1
 369 357 l 1,27,-1
 427 75 l 1,28,29
 468 75 468 75 468 46 c 0,30,31
 468 41 468 41 466 29 c 0,32,33
 460 0 460 0 429 0 c 2,34,-1
 351 0 l 2,35,36
 313 0 313 0 313 31 c 0,37,38
 313 39 313 39 315 47.5 c 128,-1,39
 317 56 317 56 327 65.5 c 128,-1,40
 337 75 337 75 353 75 c 1,41,-1
 309 289 l 1,42,-1
 236 209 l 1,43,-1
 225 194 l 2,44,45
 222 186 222 186 194 75 c 1,46,47
 237 75 237 75 237 44 c 0,48,49
 237 0 237 0 199 0 c 2,50,-1
 98 0 l 2,51,52
 62 0 62 0 62 31 c 0,0,1
EndSplineSet
EndChar

StartChar: L
Encoding: 76 76 47
Width: 525
GlyphClass: 2
Flags: W
ItalicCorrection: 173
AnchorPoint: "Anchor-5" 409 619 basechar 0
AnchorPoint: "Anchor-4" 255 0 basechar 0
LayerCount: 2
Fore
SplineSet
65 31 m 0,0,1
 65 58 65 58 78.5 67 c 128,-1,2
 92 76 92 76 106 76 c 2,3,-1
 110 75 l 1,4,-1
 140 75 l 1,5,-1
 255 535 l 1,6,-1
 238 535 l 2,7,8
 200 535 200 535 200 566 c 0,9,10
 200 611 200 611 240 611 c 2,11,-1
 393 611 l 2,12,13
 432 611 432 611 432 579 c 0,14,15
 432 535 432 535 385 535 c 2,16,-1
 340 535 l 1,17,-1
 226 75 l 1,18,-1
 387 75 l 1,19,20
 409 162 409 162 413 171 c 0,21,22
 421 185 421 185 448 185 c 0,23,24
 465 186 465 186 473 183 c 0,25,26
 491 176 491 176 491 155 c 0,27,28
 491 148 491 148 464 41 c 0,29,30
 458 17 458 17 451.5 9 c 128,-1,31
 445 1 445 1 424 0 c 2,32,-1
 102 0 l 2,33,34
 65 0 65 0 65 31 c 0,0,1
EndSplineSet
EndChar

StartChar: M
Encoding: 77 77 48
Width: 525
GlyphClass: 2
Flags: W
ItalicCorrection: 173
AnchorPoint: "Anchor-5" 416 619 basechar 0
AnchorPoint: "Anchor-4" 261 0 basechar 0
LayerCount: 2
Fore
SplineSet
59 31 m 0,0,1
 59 75 59 75 101 75 c 2,2,-1
 114 75 l 1,3,-1
 229 535 l 1,4,-1
 228 535 l 2,5,6
 193 535 193 535 193 568 c 0,7,8
 193 576 193 576 195 584 c 128,-1,9
 197 592 197 592 207 601.5 c 128,-1,10
 217 611 217 611 234 611 c 2,11,-1
 315 611 l 2,12,13
 350 611 350 611 350 576 c 2,14,-1
 350 526 l 2,15,16
 349 456 349 456 346.5 409 c 128,-1,17
 344 362 344 362 342 346.5 c 128,-1,18
 340 331 340 331 336 308 c 128,-1,19
 332 285 332 285 331 277 c 1,20,21
 348 344 348 344 452 558 c 0,22,23
 453 560 453 560 457 567.5 c 128,-1,24
 461 575 461 575 462 577 c 128,-1,25
 463 579 463 579 467 585.5 c 128,-1,26
 471 592 471 592 473.5 594 c 128,-1,27
 476 596 476 596 480.5 600.5 c 128,-1,28
 485 605 485 605 489.5 606.5 c 128,-1,29
 494 608 494 608 500.5 609.5 c 128,-1,30
 507 611 507 611 514 611 c 2,31,-1
 579 611 l 2,32,33
 617 611 617 611 617 580 c 0,34,35
 614 535 614 535 575 535 c 2,36,-1
 562 535 l 1,37,-1
 447 75 l 1,38,39
 483 75 483 75 483 43 c 0,40,41
 483 0 483 0 442 0 c 2,42,-1
 361 0 l 2,43,44
 323 0 323 0 323 33 c 0,45,46
 323 75 323 75 364 75 c 2,47,-1
 377 75 l 1,48,-1
 487 516 l 1,49,50
 467 447 467 447 373 258 c 0,51,52
 373 257 373 257 369 249 c 128,-1,53
 365 241 365 241 363.5 238.5 c 128,-1,54
 362 236 362 236 357.5 229 c 128,-1,55
 353 222 353 222 349.5 219 c 128,-1,56
 346 216 346 216 340 211.5 c 128,-1,57
 334 207 334 207 327.5 205.5 c 128,-1,58
 321 204 321 204 313 204 c 0,59,60
 279 204 279 204 279 241 c 0,61,62
 279 327 279 327 282.5 396 c 128,-1,63
 286 465 286 465 290 491 c 2,64,-1
 294 517 l 1,65,-1
 184 75 l 1,66,67
 219 75 219 75 219 43 c 0,68,69
 219 0 219 0 179 0 c 2,70,-1
 98 0 l 2,71,72
 75 0 75 0 67 10.5 c 128,-1,73
 59 21 59 21 59 31 c 0,0,1
EndSplineSet
EndChar

StartChar: N
Encoding: 78 78 49
Width: 525
GlyphClass: 2
Flags: W
ItalicCorrection: 173
AnchorPoint: "Anchor-5" 416 619 basechar 0
AnchorPoint: "Anchor-4" 261 0 basechar 0
LayerCount: 2
Fore
SplineSet
63 31 m 0,0,1
 63 75 63 75 105 75 c 2,2,-1
 127 75 l 1,3,-1
 242 535 l 1,4,5
 219 535 219 535 207.5 541 c 128,-1,6
 196 547 196 547 196 569 c 0,7,8
 196 576 196 576 198.5 584.5 c 128,-1,9
 201 593 201 593 211 602 c 128,-1,10
 221 611 221 611 237 611 c 2,11,-1
 325 611 l 2,12,13
 355 611 355 611 361 590 c 128,-1,14
 367 569 367 569 368 467 c 0,15,16
 369 374 369 374 371 307 c 2,17,-1
 371 282 l 1,18,-1
 372 265 l 1,19,-1
 372 201 l 1,20,-1
 371 187 l 1,21,-1
 371 171 l 2,22,23
 371 148 371 148 367 83 c 1,24,-1
 480 535 l 1,25,-1
 473 535 l 2,26,27
 434 535 434 535 434 569 c 0,28,29
 434 577 434 577 436.5 585 c 128,-1,30
 439 593 439 593 449 602 c 128,-1,31
 459 611 459 611 475 611 c 2,32,-1
 577 611 l 2,33,34
 614 611 614 611 614 580 c 0,35,36
 614 535 614 535 572 535 c 2,37,-1
 549 535 l 1,38,39
 546 519 546 519 538 489 c 2,40,-1
 425 38 l 2,41,42
 420 16 420 16 412 8 c 128,-1,43
 404 0 404 0 383 0 c 2,44,-1
 349 0 l 2,45,46
 326 1 326 1 319.5 11 c 128,-1,47
 313 21 313 21 312 39 c 0,48,49
 310 113 310 113 308.5 178 c 128,-1,50
 307 243 307 243 306.5 278.5 c 128,-1,51
 306 314 306 314 306 323 c 2,52,-1
 306 385 l 2,53,54
 306 413 306 413 310 529 c 1,55,-1
 197 75 l 1,56,-1
 205 75 l 2,57,58
 243 75 243 75 243 42 c 0,59,60
 243 33 243 33 240.5 24.5 c 128,-1,61
 238 16 238 16 227.5 8 c 128,-1,62
 217 0 217 0 200 0 c 2,63,-1
 100 0 l 2,64,65
 63 0 63 0 63 31 c 0,0,1
EndSplineSet
EndChar

StartChar: O
Encoding: 79 79 50
Width: 525
GlyphClass: 2
Flags: W
ItalicCorrection: 173
AnchorPoint: "Anchor-5" 418 619 basechar 0
AnchorPoint: "Anchor-4" 261 0 basechar 0
AnchorPoint: "Anchor-1" 261 0 basechar 0
LayerCount: 2
Fore
SplineSet
120 66 m 0,0,1
 120 128 120 128 155 269.5 c 128,-1,2
 190 411 190 411 212 475 c 0,3,4
 233 537 233 537 252.5 565 c 128,-1,5
 272 593 272 593 307 606 c 128,-1,6
 342 619 342 619 408 619 c 2,7,-1
 429 619 l 2,8,9
 497 619 497 619 526.5 604.5 c 128,-1,10
 556 590 556 590 556 544 c 0,11,12
 556 483 556 483 520.5 339 c 128,-1,13
 485 195 485 195 464 133 c 0,14,15
 434 46 434 46 400 20 c 128,-1,16
 366 -6 366 -6 282 -8 c 2,17,-1
 259 -8 l 2,18,19
 232 -8 232 -8 222.5 -7.5 c 128,-1,20
 213 -7 213 -7 190 -5 c 128,-1,21
 167 -3 167 -3 153 4 c 128,-1,22
 139 11 139 11 131 23 c 0,23,24
 120 38 120 38 120 66 c 0,0,1
211 114 m 0,25,26
 211 67 211 67 281 67 c 0,27,28
 308 67 308 67 326.5 73.5 c 128,-1,29
 345 80 345 80 356 94 c 128,-1,30
 367 108 367 108 369.5 112.5 c 128,-1,31
 372 117 372 117 377 131 c 0,32,33
 398 183 398 183 432.5 320.5 c 128,-1,34
 467 458 467 458 467 498 c 0,35,36
 467 521 467 521 452 532.5 c 128,-1,37
 437 544 437 544 399 544 c 0,38,39
 366 544 366 544 344.5 534.5 c 128,-1,40
 323 525 323 525 316 515.5 c 128,-1,41
 309 506 309 506 302 489 c 0,42,43
 279 437 279 437 245 295 c 128,-1,44
 211 153 211 153 211 114 c 0,25,26
EndSplineSet
EndChar

StartChar: P
Encoding: 80 80 51
Width: 525
GlyphClass: 2
Flags: W
ItalicCorrection: 173
AnchorPoint: "Anchor-5" 369 619 basechar 0
AnchorPoint: "Anchor-4" 214 0 basechar 0
LayerCount: 2
Fore
SplineSet
63 31 m 0,0,1
 63 75 63 75 106 75 c 2,2,-1
 132 75 l 1,3,-1
 247 535 l 1,4,-1
 233 535 l 2,5,6
 197 535 197 535 197 566 c 0,7,8
 197 611 197 611 237 611 c 2,9,-1
 437 611 l 2,10,11
 504 611 504 611 531.5 574.5 c 128,-1,12
 559 538 559 538 559 487 c 0,13,14
 559 450 559 450 546.5 408.5 c 128,-1,15
 534 367 534 367 509.5 325.5 c 128,-1,16
 485 284 485 284 439.5 257 c 128,-1,17
 394 230 394 230 335 230 c 2,18,-1
 256 230 l 1,19,-1
 218 75 l 1,20,-1
 231 75 l 2,21,22
 268 75 268 75 268 44 c 0,23,24
 268 0 268 0 229 0 c 2,25,-1
 100 0 l 2,26,27
 63 0 63 0 63 31 c 0,0,1
275 305 m 1,28,-1
 335 305 l 2,29,30
 373 305 373 305 402 322.5 c 128,-1,31
 431 340 431 340 445 366.5 c 128,-1,32
 459 393 459 393 465.5 417 c 128,-1,33
 472 441 472 441 472 460 c 0,34,35
 472 536 472 536 396 536 c 0,36,37
 394 536 394 536 391 535.5 c 128,-1,38
 388 535 388 535 387 535 c 2,39,-1
 332 535 l 1,40,-1
 275 305 l 1,28,-1
EndSplineSet
EndChar

StartChar: Q
Encoding: 81 81 52
Width: 525
GlyphClass: 2
Flags: W
ItalicCorrection: 173
AnchorPoint: "Anchor-5" 418 619 basechar 0
AnchorPoint: "Anchor-4" 206 -222 basechar 0
LayerCount: 2
Fore
SplineSet
120 68 m 0,0,1
 120 143 120 143 194 418 c 0,2,3
 231 548 231 548 267.5 583.5 c 128,-1,4
 304 619 304 619 406 619 c 2,5,-1
 431 619 l 2,6,7
 500 619 500 619 528 603 c 128,-1,8
 556 587 556 587 556 543 c 0,9,10
 556 491 556 491 528 371 c 128,-1,11
 500 251 500 251 475 168 c 0,12,13
 451 88 451 88 431 54.5 c 128,-1,14
 411 21 411 21 378 7 c 1,15,16
 396 -112 396 -112 396 -113 c 0,17,18
 396 -121 396 -121 390 -127 c 0,19,20
 381 -139 381 -139 359 -139 c 2,21,-1
 326 -139 l 2,22,23
 299 -139 299 -139 297 -115 c 0,24,25
 282 -10 282 -10 282 -8 c 1,26,-1
 252 -8 l 2,27,28
 183 -8 183 -8 151.5 6 c 128,-1,29
 120 20 120 20 120 68 c 0,0,1
210 113 m 0,30,31
 210 88 210 88 225 79 c 128,-1,32
 240 70 240 70 271 67 c 1,33,34
 269 85 269 85 266.5 101.5 c 128,-1,35
 264 118 264 118 262.5 127 c 128,-1,36
 261 136 261 136 261 141 c 0,37,38
 261 171 261 171 300 171 c 2,39,-1
 336 171 l 2,40,41
 348 171 348 171 350.5 166.5 c 128,-1,42
 353 162 353 162 357 138 c 0,43,44
 360 117 360 117 363 101 c 1,45,46
 388 143 388 143 427 299 c 128,-1,47
 466 455 466 455 466 497 c 0,48,49
 466 523 466 523 449 533 c 128,-1,50
 432 543 432 543 397 544 c 0,51,52
 370 544 370 544 351 538 c 128,-1,53
 332 532 332 532 321 519 c 128,-1,54
 310 506 310 506 307.5 501 c 128,-1,55
 305 496 305 496 299 482 c 0,56,57
 280 434 280 434 245 294.5 c 128,-1,58
 210 155 210 155 210 113 c 0,30,31
EndSplineSet
EndChar

StartChar: R
Encoding: 82 82 53
Width: 525
GlyphClass: 2
Flags: W
ItalicCorrection: 173
AnchorPoint: "Anchor-5" 369 619 basechar 0
AnchorPoint: "Anchor-4" 214 0 basechar 0
LayerCount: 2
Fore
SplineSet
63 31 m 0,0,1
 64 51 64 51 72.5 61.5 c 128,-1,2
 81 72 81 72 87.5 73.5 c 128,-1,3
 94 75 94 75 104 75 c 2,4,-1
 127 75 l 1,5,-1
 242 535 l 1,6,-1
 236 535 l 2,7,8
 197 535 197 535 197 569 c 0,9,10
 197 611 197 611 237 611 c 2,11,-1
 392 611 l 2,12,13
 464 611 464 611 493.5 576.5 c 128,-1,14
 523 542 523 542 523 492 c 0,15,16
 523 437 523 437 494 381 c 128,-1,17
 465 325 465 325 416 297 c 1,18,19
 437 261 437 261 437 226 c 0,20,21
 437 203 437 203 422.5 148.5 c 128,-1,22
 408 94 408 94 408 76 c 2,23,-1
 408 67 l 1,24,25
 415 76 415 76 418.5 94.5 c 128,-1,26
 422 113 422 113 431 121.5 c 128,-1,27
 440 130 440 130 463 130 c 2,28,-1
 466 130 l 2,29,30
 505 130 505 130 505 99 c 0,31,32
 505 71 505 71 477 31.5 c 128,-1,33
 449 -8 449 -8 406 -8 c 0,34,35
 370 -8 370 -8 347.5 15 c 128,-1,36
 325 38 325 38 325 80 c 0,37,38
 325 106 325 106 339 159 c 128,-1,39
 353 212 353 212 353 225 c 0,40,41
 353 268 353 268 312 268 c 2,42,-1
 261 268 l 1,43,-1
 213 75 l 1,44,-1
 220 75 l 2,45,46
 259 75 259 75 259 43 c 0,47,48
 259 0 259 0 216 0 c 2,49,-1
 100 0 l 2,50,51
 63 0 63 0 63 31 c 0,0,1
280 343 m 1,52,-1
 309 343 l 2,53,54
 348 343 348 343 375.5 358 c 128,-1,55
 403 373 403 373 415.5 396 c 128,-1,56
 428 419 428 419 432.5 437 c 128,-1,57
 437 455 437 455 437 469 c 0,58,59
 437 535 437 535 363 535 c 2,60,-1
 328 535 l 1,61,-1
 280 343 l 1,52,-1
EndSplineSet
EndChar

StartChar: S
Encoding: 83 83 54
Width: 525
GlyphClass: 2
Flags: W
ItalicCorrection: 173
AnchorPoint: "Anchor-5" 388 619 basechar 0
AnchorPoint: "Anchor-4" 288 0 basechar 0
LayerCount: 2
Fore
SplineSet
91 21 m 0,0,1
 91 26 91 26 127 172 c 0,2,3
 131 187 131 187 137.5 194 c 128,-1,4
 144 201 144 201 149.5 202 c 128,-1,5
 155 203 155 203 167 203 c 2,6,-1
 174 203 l 2,7,8
 211 203 211 203 211 174 c 0,9,10
 211 168 211 168 209 155 c 128,-1,11
 207 142 207 142 207 135 c 0,12,13
 207 98 207 98 231.5 82.5 c 128,-1,14
 256 67 256 67 290 67 c 0,15,16
 327 67 327 67 354.5 93 c 128,-1,17
 382 119 382 119 393.5 149.5 c 128,-1,18
 405 180 405 180 405 206 c 0,19,20
 405 219 405 219 402 229.5 c 128,-1,21
 399 240 399 240 395.5 246 c 128,-1,22
 392 252 392 252 384 257 c 128,-1,23
 376 262 376 262 372.5 263.5 c 128,-1,24
 369 265 369 265 359.5 267.5 c 128,-1,25
 350 270 350 270 348 271 c 0,26,27
 343 273 343 273 322.5 278.5 c 128,-1,28
 302 284 302 284 292 287.5 c 128,-1,29
 282 291 282 291 264 298.5 c 128,-1,30
 246 306 246 306 236 315.5 c 128,-1,31
 226 325 226 325 214.5 339 c 128,-1,32
 203 353 203 353 198 372.5 c 128,-1,33
 193 392 193 392 193 416 c 0,34,35
 193 461 193 461 214 506 c 128,-1,36
 235 551 235 551 281.5 585 c 128,-1,37
 328 619 328 619 388 619 c 0,38,39
 443 619 443 619 488 585 c 1,40,41
 498 600 498 600 501 604.5 c 128,-1,42
 504 609 504 609 512.5 614 c 128,-1,43
 521 619 521 619 531 619 c 0,44,45
 548 619 548 619 555.5 609.5 c 128,-1,46
 563 600 563 600 563 590 c 0,47,48
 563 585 563 585 527 440 c 0,49,50
 522 420 522 420 513.5 414 c 128,-1,51
 505 408 505 408 487 408 c 0,52,53
 486 408 486 408 483.5 407.5 c 128,-1,54
 481 407 481 407 480 407 c 0,55,56
 469 407 469 407 462 408.5 c 128,-1,57
 455 410 455 410 448.5 418 c 128,-1,58
 442 426 442 426 442 441 c 0,59,60
 442 447 442 447 443 457.5 c 128,-1,61
 444 468 444 468 444 473 c 0,62,63
 444 544 444 544 383 544 c 0,64,65
 335 543 335 543 305 504.5 c 128,-1,66
 275 466 275 466 275 425 c 0,67,68
 275 401 275 401 289.5 386.5 c 128,-1,69
 304 372 304 372 323 367 c 128,-1,70
 342 362 342 362 372 354 c 128,-1,71
 402 346 402 346 421 336 c 0,72,73
 446 323 446 323 466 293 c 128,-1,74
 486 263 486 263 486 215 c 0,75,76
 486 168 486 168 465.5 118.5 c 128,-1,77
 445 69 445 69 397.5 30.5 c 128,-1,78
 350 -8 350 -8 286 -8 c 0,79,80
 218 -8 218 -8 168 28 c 1,81,82
 153 5 153 5 145 -1.5 c 128,-1,83
 137 -8 137 -8 123 -8 c 0,84,85
 108 -8 108 -8 99.5 0.5 c 128,-1,86
 91 9 91 9 91 21 c 0,0,1
EndSplineSet
EndChar

StartChar: T
Encoding: 84 84 55
Width: 525
GlyphClass: 2
Flags: W
ItalicCorrection: 173
AnchorPoint: "Anchor-5" 417 619 basechar 0
AnchorPoint: "Anchor-4" 262 0 basechar 0
LayerCount: 2
Fore
SplineSet
150 31 m 0,0,1
 150 76 150 76 191 76 c 1,2,3
 191 76 191 76 196 75 c 2,4,-1
 238 75 l 1,5,-1
 353 535 l 1,6,-1
 282 535 l 1,7,8
 268 469 268 469 259 455 c 128,-1,9
 250 441 250 441 226 441 c 2,10,-1
 221 441 l 2,11,12
 183 441 183 441 182 471 c 0,13,14
 182 482 182 482 207 580 c 0,15,16
 211 597 211 597 219.5 604 c 128,-1,17
 228 611 228 611 245 611 c 2,18,-1
 567 611 l 2,19,20
 605 611 605 611 605 580 c 0,21,22
 605 577 605 577 579 470 c 0,23,24
 572 441 572 441 541 441 c 2,25,-1
 538 441 l 2,26,27
 522 441 522 441 518 442 c 0,28,29
 495 449 495 449 495 470 c 0,30,31
 495 475 495 475 510 535 c 1,32,-1
 438 535 l 1,33,-1
 324 75 l 1,34,-1
 352 75 l 2,35,36
 392 75 392 75 392 44 c 0,37,38
 392 0 392 0 350 0 c 2,39,-1
 190 0 l 2,40,41
 150 0 150 0 150 31 c 0,0,1
EndSplineSet
EndChar

StartChar: U
Encoding: 85 85 56
Width: 525
GlyphClass: 2
Flags: W
ItalicCorrection: 173
AnchorPoint: "Anchor-5" 416 619 basechar 0
AnchorPoint: "Anchor-4" 270 0 basechar 0
AnchorPoint: "Anchor-1" 270 0 basechar 0
LayerCount: 2
Fore
SplineSet
138 137 m 0,0,1
 138 170 138 170 149 214 c 2,2,-1
 229 535 l 1,3,-1
 216 535 l 2,4,5
 179 535 179 535 179 566 c 0,6,7
 179 611 179 611 219 611 c 2,8,-1
 346 611 l 2,9,10
 384 611 384 611 384 580 c 0,11,12
 384 535 384 535 341 535 c 2,13,-1
 315 535 l 1,14,15
 312 521 312 521 304 493 c 2,16,-1
 230 197 l 2,17,18
 222 165 222 165 222 136 c 0,19,20
 222 67 222 67 271 67 c 0,21,22
 284 67 284 67 298 72.5 c 128,-1,23
 312 78 312 78 331 93.5 c 128,-1,24
 350 109 350 109 368.5 144 c 128,-1,25
 387 179 387 179 400 229 c 2,26,-1
 477 535 l 1,27,-1
 464 535 l 2,28,29
 427 535 427 535 427 566 c 0,30,31
 427 611 427 611 466 611 c 2,32,-1
 594 611 l 2,33,34
 632 611 632 611 632 580 c 0,35,36
 632 535 632 535 588 535 c 2,37,-1
 562 535 l 1,38,-1
 482 214 l 2,39,40
 476 188 476 188 467 162 c 0,41,42
 440 82 440 82 385 37 c 128,-1,43
 330 -8 330 -8 268 -8 c 0,44,45
 218 -8 218 -8 178 25.5 c 128,-1,46
 138 59 138 59 138 137 c 0,0,1
EndSplineSet
EndChar

StartChar: V
Encoding: 86 86 57
Width: 525
GlyphClass: 2
Flags: W
ItalicCorrection: 173
AnchorPoint: "Anchor-5" 417 619 basechar 0
AnchorPoint: "Anchor-4" 260 0 basechar 0
LayerCount: 2
Fore
SplineSet
198 566 m 0,0,1
 198 611 198 611 239 611 c 2,2,-1
 344 611 l 2,3,4
 381 611 381 611 381 580 c 0,5,6
 381 535 381 535 341 535 c 2,7,-1
 325 535 l 1,8,9
 320 410 320 410 309 294.5 c 128,-1,10
 298 179 298 179 290 126 c 2,11,-1
 281 74 l 1,12,13
 304 165 304 165 467 535 c 1,14,-1
 465 535 l 2,15,16
 446 535 446 535 437.5 545 c 128,-1,17
 429 555 429 555 429 566 c 0,18,19
 429 611 429 611 471 611 c 2,20,-1
 577 611 l 2,21,22
 596 611 596 611 604 601 c 128,-1,23
 612 591 612 591 612 581 c 0,24,25
 612 535 612 535 569 535 c 2,26,-1
 552 535 l 1,27,-1
 334 42 l 2,28,29
 322 14 322 14 310.5 4.5 c 128,-1,30
 299 -5 299 -5 272 -5 c 2,31,-1
 245 -5 l 2,32,33
 211 -4 211 -4 211 28 c 2,34,-1
 211 35 l 1,35,-1
 236 478 l 2,36,37
 238 516 238 516 240 535 c 1,38,39
 198 535 198 535 198 566 c 0,0,1
EndSplineSet
EndChar

StartChar: W
Encoding: 87 87 58
Width: 525
GlyphClass: 2
Flags: W
ItalicCorrection: 173
AnchorPoint: "Anchor-5" 416 619 basechar 0
AnchorPoint: "Anchor-4" 261 0 basechar 0
LayerCount: 2
Fore
SplineSet
145 22 m 2,0,-1
 145 32 l 1,1,-1
 210 485 l 2,2,3
 211 494 211 494 213.5 511 c 128,-1,4
 216 528 216 528 217 536 c 1,5,-1
 212 538 l 2,6,7
 208 540 208 540 204 542.5 c 128,-1,8
 200 545 200 545 196.5 551.5 c 128,-1,9
 193 558 193 558 193 566 c 0,10,11
 193 611 193 611 233 611 c 2,12,-1
 313 611 l 2,13,14
 350 611 350 611 350 576 c 0,15,16
 350 535 350 535 306 535 c 2,17,-1
 285 535 l 1,18,19
 269 412 269 412 250 297.5 c 128,-1,20
 231 183 231 183 220 130 c 2,21,-1
 209 77 l 1,22,23
 222 130 222 130 258 230 c 128,-1,24
 294 330 294 330 306 346 c 0,25,26
 323 368 323 368 355 368 c 0,27,28
 391 368 391 368 391 335 c 0,29,30
 391 298 391 298 381.5 234 c 128,-1,31
 372 170 372 170 363 124 c 2,32,-1
 354 78 l 1,33,34
 366 134 366 134 506 535 c 1,35,-1
 502 535 l 2,36,37
 489 535 489 535 482 536.5 c 128,-1,38
 475 538 475 538 467.5 545.5 c 128,-1,39
 460 553 460 553 460 567 c 0,40,41
 460 611 460 611 499 611 c 2,42,-1
 579 611 l 2,43,44
 617 611 617 611 617 580 c 0,45,46
 617 535 617 535 574 535 c 1,47,48
 571 526 571 526 564.5 508.5 c 128,-1,49
 558 491 558 491 555 482 c 2,50,-1
 394 32 l 2,51,52
 383 -5 383 -5 344 -5 c 2,53,-1
 341 -5 l 2,54,55
 302 -5 302 -5 302 24 c 2,56,-1
 304 54 l 2,57,58
 310 133 310 133 315.5 178 c 128,-1,59
 321 223 321 223 327 252 c 128,-1,60
 333 281 333 281 334 289 c 1,61,62
 324 248 324 248 299 181.5 c 128,-1,63
 274 115 274 115 254 69.5 c 128,-1,64
 234 24 234 24 233 23 c 0,65,66
 218 -5 218 -5 183 -5 c 2,67,-1
 178 -5 l 2,68,69
 145 -5 145 -5 145 22 c 2,0,-1
EndSplineSet
EndChar

StartChar: X
Encoding: 88 88 59
Width: 525
GlyphClass: 2
Flags: W
ItalicCorrection: 173
AnchorPoint: "Anchor-5" 416 619 basechar 0
AnchorPoint: "Anchor-4" 261 0 basechar 0
LayerCount: 2
Fore
SplineSet
71 31 m 0,0,1
 71 58 71 58 84.5 67 c 128,-1,2
 98 76 98 76 112 76 c 2,3,-1
 116 75 l 1,4,-1
 139 75 l 1,5,-1
 299 328 l 1,6,-1
 265 535 l 1,7,-1
 252 535 l 2,8,9
 231 535 231 535 223 545.5 c 128,-1,10
 215 556 215 556 215 567 c 0,11,12
 215 611 215 611 257 611 c 2,13,-1
 352 611 l 2,14,15
 373 611 373 611 381.5 601 c 128,-1,16
 390 591 390 591 390 580 c 0,17,18
 390 537 390 537 355 535 c 1,19,-1
 370 448 l 1,20,-1
 425 537 l 1,21,22
 405 548 405 548 405 566 c 0,23,24
 405 585 405 585 413.5 596 c 128,-1,25
 422 607 422 607 429 609 c 128,-1,26
 436 611 436 611 443 611 c 2,27,-1
 543 611 l 2,28,29
 580 611 580 611 580 580 c 0,30,31
 580 535 580 535 536 535 c 2,32,-1
 512 535 l 1,33,-1
 386 338 l 1,34,-1
 381 327 l 1,35,-1
 382 315 l 1,36,-1
 421 75 l 1,37,-1
 434 75 l 2,38,39
 470 75 470 75 470 44 c 0,40,41
 470 0 470 0 428 0 c 2,42,-1
 324 0 l 2,43,44
 287 0 287 0 287 31 c 0,45,46
 287 75 287 75 328 75 c 2,47,-1
 332 75 l 1,48,-1
 312 219 l 1,49,-1
 226 75 l 1,50,51
 229 75 229 75 234.5 73.5 c 128,-1,52
 240 72 240 72 248 64 c 128,-1,53
 256 56 256 56 256 44 c 0,54,55
 256 0 256 0 214 0 c 2,56,-1
 110 0 l 2,57,58
 94 0 94 0 85 6.5 c 128,-1,59
 76 13 76 13 73.5 19 c 128,-1,60
 71 25 71 25 71 31 c 0,0,1
EndSplineSet
EndChar

StartChar: Y
Encoding: 89 89 60
Width: 525
GlyphClass: 2
Flags: W
ItalicCorrection: 173
AnchorPoint: "Anchor-5" 415 619 basechar 0
AnchorPoint: "Anchor-4" 260 0 basechar 0
LayerCount: 2
Fore
SplineSet
173 31 m 0,0,1
 174 51 174 51 182.5 61.5 c 128,-1,2
 191 72 191 72 197.5 73.5 c 128,-1,3
 204 75 204 75 214 75 c 2,4,-1
 238 75 l 1,5,-1
 280 245 l 1,6,-1
 245 535 l 1,7,-1
 236 535 l 2,8,9
 198 535 198 535 198 566 c 0,10,11
 198 611 198 611 240 611 c 2,12,-1
 344 611 l 2,13,14
 381 611 381 611 381 580 c 0,15,16
 381 535 381 535 340 535 c 2,17,-1
 335 535 l 1,18,19
 346 421 346 421 346 382 c 0,20,21
 346 357 346 357 341 317 c 1,22,23
 356 369 356 369 456 535 c 1,24,25
 427 541 427 541 427 567 c 0,26,27
 427 574 427 574 429 582 c 128,-1,28
 431 590 431 590 441.5 600.5 c 128,-1,29
 452 611 452 611 470 611 c 2,30,-1
 574 611 l 2,31,32
 612 611 612 611 612 580 c 0,33,34
 612 553 612 553 598.5 544 c 128,-1,35
 585 535 585 535 571 535 c 2,36,-1
 545 535 l 1,37,-1
 373 259 l 1,38,-1
 365 245 l 1,39,-1
 322 75 l 1,40,-1
 331 75 l 2,41,42
 369 75 369 75 369 41 c 0,43,44
 369 33 369 33 366.5 25 c 128,-1,45
 364 17 364 17 354 8.5 c 128,-1,46
 344 0 344 0 328 0 c 2,47,-1
 210 0 l 2,48,49
 173 0 173 0 173 31 c 0,0,1
EndSplineSet
EndChar

StartChar: Z
Encoding: 90 90 61
Width: 525
GlyphClass: 2
Flags: W
ItalicCorrection: 173
AnchorPoint: "Anchor-5" 419 619 basechar 0
AnchorPoint: "Anchor-4" 264 0 basechar 0
LayerCount: 2
Fore
SplineSet
88 24 m 0,0,1
 90 50 90 50 107 73 c 2,2,-1
 473 535 l 1,3,-1
 310 535 l 1,4,5
 296 468 296 468 287 454.5 c 128,-1,6
 278 441 278 441 252 441 c 2,7,-1
 248 441 l 2,8,9
 210 441 210 441 210 470 c 0,10,11
 210 475 210 475 234 574 c 0,12,13
 237 587 237 587 239.5 593 c 128,-1,14
 242 599 242 599 251 605 c 128,-1,15
 260 611 260 611 274 611 c 2,16,-1
 558 611 l 2,17,18
 588 611 588 611 588 587 c 0,19,20
 587 556 587 556 569 538 c 2,21,-1
 203 75 l 1,22,-1
 381 75 l 1,23,24
 404 167 404 167 409 175 c 0,25,26
 423 189 423 189 447 189 c 0,27,28
 469 189 469 189 477 179.5 c 128,-1,29
 485 170 485 170 485 160 c 0,30,31
 485 152 485 152 457 39 c 0,32,33
 453 25 453 25 451 19 c 128,-1,34
 449 13 449 13 440.5 6.5 c 128,-1,35
 432 0 432 0 417 0 c 2,36,-1
 119 0 l 2,37,38
 88 0 88 0 88 24 c 0,0,1
EndSplineSet
EndChar

StartChar: bracketleft
Encoding: 91 91 62
Width: 525
GlyphClass: 2
Flags: W
ItalicCorrection: 173
LayerCount: 2
Fore
SplineSet
198 -52 m 0,0,1
 198 -42 198 -42 201 -32 c 2,2,-1
 374 659 l 2,3,4
 379 678 379 678 387 686 c 128,-1,5
 395 694 395 694 415 694 c 2,6,-1
 577 694 l 2,7,8
 614 694 614 694 614 663 c 0,9,10
 614 630 614 630 590 621 c 0,11,12
 584 619 584 619 570 619 c 2,13,-1
 450 619 l 1,14,-1
 293 -8 l 1,15,-1
 399 -8 l 2,16,17
 438 -8 438 -8 438 -42 c 0,18,19
 438 -83 438 -83 396 -83 c 2,20,-1
 230 -83 l 2,21,22
 212 -82 212 -82 205 -72.5 c 128,-1,23
 198 -63 198 -63 198 -52 c 0,0,1
EndSplineSet
EndChar

StartChar: backslash
Encoding: 92 92 63
Width: 525
GlyphClass: 2
Flags: W
ItalicCorrection: 173
LayerCount: 2
Fore
SplineSet
255 656 m 0,0,1
 255 672 255 672 266.5 683 c 128,-1,2
 278 694 278 694 292 694 c 0,3,4
 299 694 299 694 304.5 692 c 128,-1,5
 310 690 310 690 314 687.5 c 128,-1,6
 318 685 318 685 321 681 c 128,-1,7
 324 677 324 677 325.5 673.5 c 128,-1,8
 327 670 327 670 328.5 665.5 c 128,-1,9
 330 661 330 661 330.5 658 c 128,-1,10
 331 655 331 655 332 652 c 2,11,-1
 332 649 l 1,12,-1
 421 -31 l 2,13,14
 422 -36 422 -36 422 -45 c 0,15,16
 422 -62 422 -62 410.5 -72.5 c 128,-1,17
 399 -83 399 -83 385 -83 c 0,18,19
 354 -83 354 -83 346 -38 c 2,20,-1
 256 642 l 2,21,22
 255 647 255 647 255 656 c 0,0,1
EndSplineSet
EndChar

StartChar: bracketright
Encoding: 93 93 64
Width: 525
GlyphClass: 2
Flags: W
ItalicCorrection: 173
LayerCount: 2
Fore
SplineSet
63 -53 m 0,0,1
 63 -18 63 -18 86 -10 c 0,2,3
 92 -8 92 -8 106 -8 c 2,4,-1
 227 -8 l 1,5,-1
 384 619 l 1,6,-1
 278 619 l 2,7,8
 238 619 238 619 238 653 c 0,9,10
 238 694 238 694 279 694 c 2,11,-1
 446 694 l 2,12,13
 460 694 460 694 469.5 685.5 c 128,-1,14
 479 677 479 677 479 663 c 0,15,16
 479 657 479 657 475 643 c 2,17,-1
 303 -48 l 2,18,19
 298 -68 298 -68 290 -75.5 c 128,-1,20
 282 -83 282 -83 262 -83 c 2,21,-1
 99 -83 l 2,22,23
 63 -83 63 -83 63 -53 c 0,0,1
EndSplineSet
EndChar

StartChar: asciicircum
Encoding: 94 94 65
Width: 525
GlyphClass: 2
Flags: W
ItalicCorrection: 173
LayerCount: 2
Fore
SplineSet
216 476 m 0,0,1
 216 479 216 479 216.5 482 c 128,-1,2
 217 485 217 485 218 487.5 c 128,-1,3
 219 490 219 490 220.5 492 c 128,-1,4
 222 494 222 494 223.5 495.5 c 128,-1,5
 225 497 225 497 227.5 499 c 128,-1,6
 230 501 230 501 231 501.5 c 128,-1,7
 232 502 232 502 235 503.5 c 128,-1,8
 238 505 238 505 239 505.5 c 128,-1,9
 240 506 240 506 244 508 c 2,10,-1
 247 509 l 1,11,12
 392 569 392 569 397 569 c 2,13,-1
 398 569 l 2,14,15
 406 569 406 569 523 507 c 0,16,17
 547 494 547 494 547 476 c 0,18,19
 547 462 547 462 532 443.5 c 128,-1,20
 517 425 517 425 502 425 c 2,21,-1
 500 425 l 2,22,23
 493 425 493 425 453 449 c 0,24,25
 424 466 424 466 402 479 c 0,26,27
 390 486 390 486 378 480 c 0,28,29
 359 471 359 471 340 462.5 c 128,-1,30
 321 454 321 454 310.5 449 c 128,-1,31
 300 444 300 444 289.5 439 c 128,-1,32
 279 434 279 434 273.5 432 c 128,-1,33
 268 430 268 430 263 428 c 128,-1,34
 258 426 258 426 255.5 425.5 c 128,-1,35
 253 425 253 425 250 425 c 0,36,37
 236 425 236 425 227.5 438 c 128,-1,38
 219 451 219 451 217.5 460.5 c 128,-1,39
 216 470 216 470 216 476 c 0,0,1
EndSplineSet
EndChar

StartChar: underscore
Encoding: 95 95 66
Width: 525
GlyphClass: 2
Flags: W
ItalicCorrection: 173
LayerCount: 2
Fore
SplineSet
70 -72 m 0,0,1
 70 -64 70 -64 73 -56 c 128,-1,2
 76 -48 76 -48 87.5 -39 c 128,-1,3
 99 -30 99 -30 119 -30 c 2,4,-1
 368 -30 l 2,5,6
 396 -30 396 -30 406.5 -44 c 128,-1,7
 417 -58 417 -58 417 -72 c 0,8,9
 417 -80 417 -80 414.5 -88 c 128,-1,10
 412 -96 412 -96 400 -105 c 128,-1,11
 388 -114 388 -114 368 -114 c 2,12,-1
 119 -114 l 2,13,14
 91 -114 91 -114 80.5 -100.5 c 128,-1,15
 70 -87 70 -87 70 -72 c 0,0,1
EndSplineSet
EndChar

StartChar: grave
Encoding: 96 96 67
Width: 525
GlyphClass: 2
Flags: W
ItalicCorrection: 173
LayerCount: 2
Fore
SplineSet
287 596 m 0,0,1
 287 613 287 613 299.5 627 c 128,-1,2
 312 641 312 641 330 641 c 0,3,4
 340 641 340 641 436 609 c 0,5,6
 464 599 464 599 464 578 c 0,7,8
 464 566 464 566 452 546 c 128,-1,9
 440 526 440 526 422 526 c 0,10,11
 413 526 413 526 361.5 543 c 128,-1,12
 310 560 310 560 307 562 c 0,13,14
 287 572 287 572 287 596 c 0,0,1
EndSplineSet
EndChar

StartChar: a
Encoding: 97 97 68
Width: 525
GlyphClass: 2
Flags: W
ItalicCorrection: 173
AnchorPoint: "Anchor-5" 341 448 basechar 0
AnchorPoint: "Anchor-4" 229 0 basechar 0
AnchorPoint: "Anchor-3" 678 611 basechar 0
AnchorPoint: "Anchor-2" 469 -222 basechar 0
AnchorPoint: "Anchor-1" 359 0 basechar 0
LayerCount: 2
Fore
SplineSet
117 143 m 0,0,1
 117 207 117 207 142 275.5 c 128,-1,2
 167 344 167 344 220 396 c 128,-1,3
 273 448 273 448 341 448 c 0,4,5
 387 448 387 448 424 417 c 1,6,-1
 425 417 l 1,7,8
 443 435 443 435 461 435 c 0,9,10
 477 435 477 435 488.5 424.5 c 128,-1,11
 500 414 500 414 500 397 c 0,12,13
 500 388 500 388 496 376 c 2,14,-1
 433 124 l 2,15,16
 427 98 427 98 427 92 c 0,17,18
 427 85 427 85 430 80 c 128,-1,19
 433 75 433 75 435.5 73.5 c 128,-1,20
 438 72 438 72 440 72 c 0,21,22
 455 72 455 72 473 138 c 0,23,24
 480 164 480 164 487.5 170.5 c 128,-1,25
 495 177 495 177 519 177 c 2,26,-1
 521 177 l 2,27,28
 560 177 560 177 560 148 c 0,29,30
 560 142 560 142 554 121 c 128,-1,31
 548 100 548 100 535.5 70 c 128,-1,32
 523 40 523 40 497 18 c 128,-1,33
 471 -4 471 -4 438 -4 c 0,34,35
 384 -4 384 -4 356 40 c 1,36,37
 303 -4 303 -4 243 -4 c 0,38,39
 195 -4 195 -4 156 31 c 128,-1,40
 117 66 117 66 117 143 c 0,0,1
201 142 m 0,41,42
 201 113 201 113 212 92 c 128,-1,43
 223 71 223 71 248 71 c 0,44,45
 286 71 286 71 319 111.5 c 128,-1,46
 352 152 352 152 368 204 c 128,-1,47
 384 256 384 256 384 300 c 0,48,49
 384 373 384 373 336 373 c 0,50,51
 307 373 307 373 270.5 338.5 c 128,-1,52
 234 304 234 304 212 221 c 0,53,54
 201 173 201 173 201 142 c 0,41,42
EndSplineSet
EndChar

StartChar: b
Encoding: 98 98 69
Width: 525
GlyphClass: 2
Flags: W
ItalicCorrection: 173
AnchorPoint: "Anchor-5" 414 611 basechar 0
AnchorPoint: "Anchor-4" 261 0 basechar 0
AnchorPoint: "Anchor-3" 678 611 basechar 0
AnchorPoint: "Anchor-2" 469 -222 basechar 0
LayerCount: 2
Fore
SplineSet
119 566 m 0,0,1
 119 611 119 611 161 611 c 2,2,-1
 271 611 l 2,3,4
 310 611 310 611 310 580 c 0,5,6
 310 575 310 575 272 423 c 1,7,8
 322 448 322 448 367 448 c 0,9,10
 429 448 429 448 468 407.5 c 128,-1,11
 507 367 507 367 507 295 c 0,12,13
 507 230 507 230 480.5 163 c 128,-1,14
 454 96 454 96 397 46 c 128,-1,15
 340 -4 340 -4 268 -4 c 0,16,17
 205 -4 205 -4 166 37 c 128,-1,18
 127 78 127 78 127 149 c 0,19,20
 127 183 127 183 143 249 c 2,21,-1
 215 535 l 1,22,-1
 157 535 l 2,23,24
 119 535 119 535 119 566 c 0,0,1
211 148 m 0,25,26
 211 117 211 117 225 94 c 128,-1,27
 239 71 239 71 272 71 c 0,28,29
 315 71 315 71 351 109 c 128,-1,30
 387 147 387 147 405 197 c 128,-1,31
 423 247 423 247 423 293 c 0,32,33
 423 373 423 373 362 373 c 0,34,35
 299 373 299 373 255 299.5 c 128,-1,36
 211 226 211 226 211 148 c 0,25,26
EndSplineSet
EndChar

StartChar: c
Encoding: 99 99 70
Width: 525
GlyphClass: 2
Flags: W
ItalicCorrection: 173
AnchorPoint: "Anchor-5" 392 448 basechar 0
AnchorPoint: "Anchor-4" 303 0 basechar 0
AnchorPoint: "Anchor-3" 678 611 basechar 0
AnchorPoint: "Anchor-2" 469 -222 basechar 0
LayerCount: 2
Fore
SplineSet
129 159 m 0,0,1
 129 267 129 267 202.5 357.5 c 128,-1,2
 276 448 276 448 392 448 c 0,3,4
 444 448 444 448 478 420.5 c 128,-1,5
 512 393 512 393 512 348 c 0,6,7
 512 316 512 316 497.5 301.5 c 128,-1,8
 483 287 483 287 465 287 c 0,9,10
 450 287 450 287 438 298 c 128,-1,11
 426 309 426 309 426 325 c 0,12,13
 426 329 426 329 426.5 335 c 128,-1,14
 427 341 427 341 427 344 c 0,15,16
 427 357 427 357 416.5 365 c 128,-1,17
 406 373 406 373 389 373 c 0,18,19
 309 372 309 372 261 303 c 128,-1,20
 213 234 213 234 213 161 c 0,21,22
 213 71 213 71 306 71 c 0,23,24
 363 71 363 71 399 76.5 c 128,-1,25
 435 82 435 82 445 89 c 128,-1,26
 455 96 455 96 463.5 101.5 c 128,-1,27
 472 107 472 107 482 107 c 0,28,29
 495 107 495 107 510.5 91.5 c 128,-1,30
 526 76 526 76 526 62 c 0,31,32
 526 47 526 47 510 33 c 128,-1,33
 494 19 494 19 440.5 7.5 c 128,-1,34
 387 -4 387 -4 302 -4 c 0,35,36
 253 -4 253 -4 217.5 11 c 128,-1,37
 182 26 182 26 163.5 51.5 c 128,-1,38
 145 77 145 77 137 103.5 c 128,-1,39
 129 130 129 130 129 159 c 0,0,1
EndSplineSet
EndChar

StartChar: d
Encoding: 100 100 71
Width: 525
GlyphClass: 2
Flags: W
ItalicCorrection: 173
AnchorPoint: "Anchor-5" 389 611 basechar 0
AnchorPoint: "Anchor-4" 298 0 basechar 0
AnchorPoint: "Anchor-3" 678 611 basechar 0
AnchorPoint: "Anchor-2" 469 -222 basechar 0
LayerCount: 2
Fore
SplineSet
117 143 m 0,0,1
 117 207 117 207 142 275.5 c 128,-1,2
 167 344 167 344 220 396 c 128,-1,3
 273 448 273 448 341 448 c 0,4,5
 387 448 387 448 422 420 c 1,6,-1
 450 535 l 1,7,-1
 404 535 l 2,8,9
 366 535 366 535 366 568 c 0,10,11
 366 611 366 611 408 611 c 2,12,-1
 507 611 l 2,13,14
 545 611 545 611 545 580 c 0,15,16
 545 568 545 568 543 562 c 2,17,-1
 431 117 l 2,18,19
 427 101 427 101 427 93 c 0,20,21
 427 86 427 86 430 81 c 128,-1,22
 433 76 433 76 435.5 74.5 c 128,-1,23
 438 73 438 73 440 73 c 0,24,25
 450 73 450 73 457.5 90.5 c 128,-1,26
 465 108 465 108 471 131.5 c 128,-1,27
 477 155 477 155 480 160 c 0,28,29
 490 178 490 178 521 178 c 0,30,31
 560 178 560 178 560 148 c 0,32,33
 560 144 560 144 556.5 129.5 c 128,-1,34
 553 115 553 115 544.5 92 c 128,-1,35
 536 69 536 69 523 48 c 128,-1,36
 510 27 510 27 487.5 11.5 c 128,-1,37
 465 -4 465 -4 438 -4 c 0,38,39
 384 -4 384 -4 356 40 c 1,40,41
 302 -4 302 -4 243 -4 c 0,42,43
 195 -4 195 -4 156 30 c 128,-1,44
 117 64 117 64 117 143 c 0,0,1
201 142 m 0,45,46
 201 113 201 113 212 92 c 128,-1,47
 223 71 223 71 248 71 c 0,48,49
 304 71 304 71 344 149.5 c 128,-1,50
 384 228 384 228 384 300 c 0,51,52
 384 373 384 373 336 373 c 0,53,54
 307 373 307 373 270.5 338.5 c 128,-1,55
 234 304 234 304 212 221 c 0,56,57
 201 173 201 173 201 142 c 0,45,46
EndSplineSet
EndChar

StartChar: e
Encoding: 101 101 72
Width: 525
GlyphClass: 2
Flags: W
ItalicCorrection: 173
AnchorPoint: "Anchor-5" 393 448 basechar 0
AnchorPoint: "Anchor-4" 306 0 basechar 0
AnchorPoint: "Anchor-3" 678 611 basechar 0
AnchorPoint: "Anchor-2" 469 -222 basechar 0
AnchorPoint: "Anchor-1" 306 0 basechar 0
LayerCount: 2
Fore
SplineSet
128 155 m 0,0,1
 128 220 128 220 158 285.5 c 128,-1,2
 188 351 188 351 250.5 399.5 c 128,-1,3
 313 448 313 448 393 448 c 0,4,5
 449 448 449 448 486 416.5 c 128,-1,6
 523 385 523 385 523 335 c 0,7,8
 523 320 523 320 518.5 304 c 128,-1,9
 514 288 514 288 501.5 264 c 128,-1,10
 489 240 489 240 457 219.5 c 128,-1,11
 425 199 425 199 378 189 c 0,12,13
 328 178 328 178 248 176 c 2,14,-1
 213 176 l 1,15,16
 212 165 212 165 212 158 c 0,17,18
 212 71 212 71 309 71 c 0,19,20
 365 71 365 71 400.5 76.5 c 128,-1,21
 436 82 436 82 446 89 c 128,-1,22
 456 96 456 96 464.5 101.5 c 128,-1,23
 473 107 473 107 483 107 c 0,24,25
 497 107 497 107 512 91 c 128,-1,26
 527 75 527 75 527 62 c 0,27,28
 527 47 527 47 510.5 33 c 128,-1,29
 494 19 494 19 441.5 7.5 c 128,-1,30
 389 -4 389 -4 307 -4 c 2,31,-1
 302 -4 l 2,32,33
 252 -4 252 -4 216.5 10.5 c 128,-1,34
 181 25 181 25 162.5 50 c 128,-1,35
 144 75 144 75 136 100.5 c 128,-1,36
 128 126 128 126 128 155 c 0,0,1
233 252 m 1,37,-1
 245 252 l 2,38,39
 272 252 272 252 289 252.5 c 128,-1,40
 306 253 306 253 337.5 257 c 128,-1,41
 369 261 369 261 388 269 c 128,-1,42
 407 277 407 277 422.5 293 c 128,-1,43
 438 309 438 309 438 332 c 0,44,45
 438 351 438 351 424.5 362 c 128,-1,46
 411 373 411 373 388 373 c 0,47,48
 341 373 341 373 299 340.5 c 128,-1,49
 257 308 257 308 233 252 c 1,37,-1
EndSplineSet
EndChar

StartChar: f
Encoding: 102 102 73
Width: 525
GlyphClass: 2
Flags: W
ItalicCorrection: 173
AnchorPoint: "Anchor-5" 450 611 basechar 0
AnchorPoint: "Anchor-4" 259 0 basechar 0
AnchorPoint: "Anchor-3" 678 611 basechar 0
AnchorPoint: "Anchor-2" 469 -222 basechar 0
LayerCount: 2
Fore
SplineSet
44 -157 m 0,0,1
 44 -133 44 -133 58 -119 c 128,-1,2
 72 -105 72 -105 90 -105 c 0,3,4
 107 -105 107 -105 118.5 -117 c 128,-1,5
 130 -129 130 -129 129 -148 c 1,6,7
 146 -151 146 -151 154 -151 c 0,8,9
 193 -151 193 -151 214 -74.5 c 128,-1,10
 235 2 235 2 286 297 c 2,11,-1
 298 369 l 1,12,-1
 228 369 l 2,13,14
 192 369 192 369 192 400 c 0,15,16
 192 444 192 444 230 444 c 2,17,-1
 312 444 l 1,18,19
 313 451 313 451 316.5 470.5 c 128,-1,20
 320 490 320 490 321 497 c 128,-1,21
 322 504 322 504 326 520.5 c 128,-1,22
 330 537 330 537 333 544 c 128,-1,23
 336 551 336 551 342 563.5 c 128,-1,24
 348 576 348 576 354.5 581.5 c 128,-1,25
 361 587 361 587 370.5 595 c 128,-1,26
 380 603 380 603 391.5 606.5 c 128,-1,27
 403 610 403 610 418 612.5 c 128,-1,28
 433 615 433 615 451 615 c 0,29,30
 570 615 570 615 570 546 c 0,31,32
 570 521 570 521 555.5 507.5 c 128,-1,33
 541 494 541 494 524 494 c 0,34,35
 509 494 509 494 496.5 504.5 c 128,-1,36
 484 515 484 515 485 537 c 1,37,38
 467 540 467 540 447 540 c 2,39,-1
 446 540 l 2,40,41
 439 540 439 540 435.5 540 c 128,-1,42
 432 540 432 540 427.5 539.5 c 128,-1,43
 423 539 423 539 421 537 c 128,-1,44
 419 535 419 535 416.5 533.5 c 128,-1,45
 414 532 414 532 413 527.5 c 128,-1,46
 412 523 412 523 410 519 c 128,-1,47
 408 515 408 515 407 506.5 c 128,-1,48
 406 498 406 498 404.5 490.5 c 128,-1,49
 403 483 403 483 400.5 469.5 c 128,-1,50
 398 456 398 456 396 444 c 1,51,-1
 485 444 l 2,52,53
 522 444 522 444 522 413 c 0,54,55
 522 369 522 369 481 369 c 2,56,-1
 383 369 l 1,57,-1
 383 368 l 1,58,59
 324 18 324 18 300 -75 c 0,60,61
 287 -124 287 -124 266.5 -157 c 128,-1,62
 246 -190 246 -190 223.5 -203.5 c 128,-1,63
 201 -217 201 -217 185.5 -221.5 c 128,-1,64
 170 -226 170 -226 155 -226 c 0,65,66
 110 -226 110 -226 77 -210.5 c 128,-1,67
 44 -195 44 -195 44 -157 c 0,0,1
EndSplineSet
EndChar

StartChar: g
Encoding: 103 103 74
Width: 525
GlyphClass: 2
Flags: W
ItalicCorrection: 173
AnchorPoint: "Anchor-5" 373 448 basechar 0
AnchorPoint: "Anchor-4" 201 -222 basechar 0
AnchorPoint: "Anchor-3" 678 611 basechar 0
AnchorPoint: "Anchor-2" 469 -222 basechar 0
LayerCount: 2
Fore
SplineSet
69 -165 m 0,0,1
 69 -145 69 -145 82.5 -131 c 128,-1,2
 96 -117 96 -117 115 -117 c 0,3,4
 146 -117 146 -117 154 -148 c 1,5,6
 178 -151 178 -151 203 -151 c 0,7,8
 295 -151 295 -151 331 -89 c 1,9,10
 337 -90 337 -90 363 25 c 1,11,12
 310 0 310 0 269 0 c 0,13,14
 206 0 206 0 167 41 c 128,-1,15
 128 82 128 82 128 152 c 0,16,17
 128 200 128 200 144.5 251.5 c 128,-1,18
 161 303 161 303 190.5 347 c 128,-1,19
 220 391 220 391 266.5 419.5 c 128,-1,20
 313 448 313 448 367 448 c 0,21,22
 420 448 420 448 463 414 c 1,23,24
 484 435 484 435 501 435 c 0,25,26
 517 435 517 435 528.5 424.5 c 128,-1,27
 540 414 540 414 540 397 c 0,28,29
 540 388 540 388 537 377 c 2,30,-1
 427 -62 l 2,31,32
 421 -86 421 -86 416.5 -99 c 128,-1,33
 412 -112 412 -112 398 -133.5 c 128,-1,34
 384 -155 384 -155 362 -173 c 0,35,36
 294 -226 294 -226 206 -226 c 2,37,-1
 194 -226 l 2,38,39
 69 -226 69 -226 69 -165 c 0,0,1
212 155 m 0,40,41
 212 76 212 76 274 76 c 0,42,43
 338 76 338 76 380.5 149 c 128,-1,44
 423 222 423 222 423 294 c 0,45,46
 423 373 423 373 362 373 c 0,47,48
 317 373 317 373 281 333.5 c 128,-1,49
 245 294 245 294 228.5 245.5 c 128,-1,50
 212 197 212 197 212 155 c 0,40,41
EndSplineSet
EndChar

StartChar: h
Encoding: 104 104 75
Width: 525
GlyphClass: 2
Flags: W
ItalicCorrection: 173
AnchorPoint: "Anchor-5" 388 611 basechar 0
AnchorPoint: "Anchor-4" 235 0 basechar 0
AnchorPoint: "Anchor-3" 678 611 basechar 0
AnchorPoint: "Anchor-2" 469 -222 basechar 0
LayerCount: 2
Fore
SplineSet
82 35 m 0,0,1
 82 38 82 38 87 61 c 2,2,-1
 206 535 l 1,3,-1
 160 535 l 2,4,5
 122 535 122 535 122 568 c 0,6,7
 122 583 122 583 130.5 597 c 128,-1,8
 139 611 139 611 159 611 c 2,9,-1
 262 611 l 2,10,11
 301 611 301 611 301 580 c 0,12,13
 301 571 301 571 262 416 c 1,14,15
 313 448 313 448 366 448 c 0,16,17
 412 448 412 448 446.5 423.5 c 128,-1,18
 481 399 481 399 481 341 c 0,19,20
 481 287 481 287 416 102 c 0,21,22
 411 84 411 84 415 72 c 1,23,-1
 419 72 l 2,24,25
 433 72 433 72 448 89 c 0,26,27
 462 105 462 105 468.5 123.5 c 128,-1,28
 475 142 475 142 477 152.5 c 128,-1,29
 479 163 479 163 488.5 170 c 128,-1,30
 498 177 498 177 520 177 c 0,31,32
 561 177 561 177 561 148 c 0,33,34
 561 136 561 136 551.5 112.5 c 128,-1,35
 542 89 542 89 525 62 c 128,-1,36
 508 35 508 35 478.5 15.5 c 128,-1,37
 449 -4 449 -4 415 -4 c 0,38,39
 378 -4 378 -4 353 20.5 c 128,-1,40
 328 45 328 45 328 83 c 0,41,42
 328 102 328 102 362.5 202 c 128,-1,43
 397 302 397 302 397 337 c 0,44,45
 397 373 397 373 359 373 c 0,46,47
 313 373 313 373 274 321.5 c 128,-1,48
 235 270 235 270 215.5 210.5 c 128,-1,49
 196 151 196 151 180 89 c 128,-1,50
 164 27 164 27 162 23 c 0,51,52
 159 14 159 14 148 5 c 128,-1,53
 137 -4 137 -4 121 -4 c 0,54,55
 106 -4 106 -4 94 7 c 128,-1,56
 82 18 82 18 82 35 c 0,0,1
EndSplineSet
EndChar

StartChar: i
Encoding: 105 105 76
Width: 525
GlyphClass: 2
Flags: W
ItalicCorrection: 173
AnchorPoint: "Anchor-5" 409 591 basechar 0
AnchorPoint: "Anchor-4" 261 0 basechar 0
AnchorPoint: "Anchor-3" 678 611 basechar 0
AnchorPoint: "Anchor-2" 469 -222 basechar 0
AnchorPoint: "Anchor-1" 262 0 basechar 0
LayerCount: 2
Fore
SplineSet
137 297 m 0,0,1
 141 343 141 343 189.5 395.5 c 128,-1,2
 238 448 238 448 304 448 c 0,3,4
 347 448 347 448 377.5 423 c 128,-1,5
 408 398 408 398 408 358 c 2,6,-1
 408 352 l 2,7,8
 408 340 408 340 359 216 c 0,9,10
 334 152 334 152 317 108 c 0,11,12
 313 96 313 96 313 90 c 0,13,14
 313 72 313 72 336 72 c 0,15,16
 360 73 360 73 381.5 94.5 c 128,-1,17
 403 116 403 116 414 148 c 0,18,19
 422 169 422 169 432 174 c 0,20,21
 440 177 440 177 452 177 c 2,22,-1
 457 177 l 2,23,24
 469 177 469 177 476.5 176 c 128,-1,25
 484 175 484 175 491 168 c 128,-1,26
 498 161 498 161 498 148 c 0,27,28
 496 106 496 106 447.5 51 c 128,-1,29
 399 -4 399 -4 331 -4 c 0,30,31
 287 -4 287 -4 257 21 c 128,-1,32
 227 46 227 46 227 86 c 2,33,-1
 227 92 l 2,34,35
 227 107 227 107 275 228 c 128,-1,36
 323 349 323 349 323 354 c 0,37,38
 323 372 323 372 300 372 c 0,39,40
 274 372 274 372 253.5 350 c 128,-1,41
 233 328 233 328 226 306 c 2,42,-1
 218 285 l 2,43,44
 210 267 210 267 184 267 c 2,45,-1
 175 267 l 2,46,47
 137 267 137 267 137 297 c 0,0,1
363 566 m 0,48,49
 363 585 363 585 377 598 c 128,-1,50
 391 611 391 611 408 611 c 128,-1,51
 425 611 425 611 435.5 599 c 128,-1,52
 446 587 446 587 446 572 c 0,53,54
 446 553 446 553 432 540.5 c 128,-1,55
 418 528 418 528 401 528 c 0,56,57
 386 528 386 528 374.5 538.5 c 128,-1,58
 363 549 363 549 363 566 c 0,48,49
EndSplineSet
EndChar

StartChar: j
Encoding: 106 106 77
Width: 525
GlyphClass: 2
Flags: W
ItalicCorrection: 173
AnchorPoint: "Anchor-4" 238 -222 basechar 0
AnchorPoint: "Anchor-3" 678 611 basechar 0
AnchorPoint: "Anchor-2" 469 -222 basechar 0
LayerCount: 2
Fore
SplineSet
90 -166 m 0,0,1
 90 -145 90 -145 103.5 -131 c 128,-1,2
 117 -117 117 -117 136 -117 c 0,3,4
 168 -117 168 -117 175 -150 c 0,5,6
 177 -150 177 -150 181.5 -150.5 c 128,-1,7
 186 -151 186 -151 188 -151 c 0,8,9
 201 -151 201 -151 215.5 -147 c 128,-1,10
 230 -143 230 -143 250.5 -131 c 128,-1,11
 271 -119 271 -119 289.5 -90 c 128,-1,12
 308 -61 308 -61 318 -19 c 2,13,-1
 405 330 l 2,14,15
 408 339 408 339 408 349 c 0,16,17
 406 373 406 373 377 373 c 128,-1,18
 348 373 348 373 320.5 350 c 128,-1,19
 293 327 293 327 278 294 c 0,20,21
 270 276 270 276 262.5 271.5 c 128,-1,22
 255 267 255 267 240 267 c 2,23,-1
 227 267 l 2,24,25
 193 267 193 267 193 295 c 0,26,27
 193 333 193 333 251 390.5 c 128,-1,28
 309 448 309 448 382 448 c 0,29,30
 429 448 429 448 461 421.5 c 128,-1,31
 493 395 493 395 493 352 c 0,32,33
 493 342 493 342 483 302 c 2,34,-1
 400 -32 l 2,35,36
 378 -123 378 -123 319 -174 c 0,37,38
 259 -226 259 -226 185 -226 c 0,39,40
 132 -226 132 -226 111 -208 c 128,-1,41
 90 -190 90 -190 90 -166 c 0,0,1
466 566 m 0,42,43
 466 585 466 585 480 598 c 128,-1,44
 494 611 494 611 511 611 c 128,-1,45
 528 611 528 611 538.5 599 c 128,-1,46
 549 587 549 587 549 572 c 0,47,48
 549 553 549 553 535 540.5 c 128,-1,49
 521 528 521 528 504 528 c 0,50,51
 489 528 489 528 477.5 538.5 c 128,-1,52
 466 549 466 549 466 566 c 0,42,43
EndSplineSet
EndChar

StartChar: k
Encoding: 107 107 78
Width: 525
GlyphClass: 2
Flags: W
ItalicCorrection: 173
AnchorPoint: "Anchor-5" 402 611 basechar 0
AnchorPoint: "Anchor-4" 250 0 basechar 0
AnchorPoint: "Anchor-3" 678 611 basechar 0
AnchorPoint: "Anchor-2" 469 -222 basechar 0
LayerCount: 2
Fore
SplineSet
91 34 m 0,0,1
 91 41 91 41 95 55 c 2,2,-1
 215 535 l 1,3,-1
 154 535 l 2,4,5
 119 536 119 536 119 569 c 0,6,7
 119 611 119 611 160 611 c 2,8,-1
 273 611 l 2,9,10
 294 611 294 611 302 601 c 128,-1,11
 310 591 310 591 310 580 c 0,12,13
 310 573 310 573 305 553 c 2,14,-1
 234 271 l 1,15,16
 260 290 260 290 304.5 339.5 c 128,-1,17
 349 389 349 389 389.5 418.5 c 128,-1,18
 430 448 430 448 475 448 c 0,19,20
 542 448 542 448 542 370 c 0,21,22
 542 327 542 327 529 301 c 0,23,24
 515 276 515 276 489 276 c 0,25,26
 472 276 472 276 461 287.5 c 128,-1,27
 450 299 450 299 450 314 c 0,28,29
 450 320 450 320 454 337 c 128,-1,30
 458 354 458 354 461 372 c 1,31,32
 448 369 448 369 437 364 c 128,-1,33
 426 359 426 359 417.5 354 c 128,-1,34
 409 349 409 349 395.5 336 c 128,-1,35
 382 323 382 323 373 313.5 c 128,-1,36
 364 304 364 304 341 279.5 c 128,-1,37
 318 255 318 255 301 237 c 1,38,39
 402 208 402 208 402 130 c 0,40,41
 402 123 402 123 400 111.5 c 128,-1,42
 398 100 398 100 398 95 c 0,43,44
 398 72 398 72 424 72 c 0,45,46
 440 72 440 72 452.5 91.5 c 128,-1,47
 465 111 465 111 473.5 136.5 c 128,-1,48
 482 162 482 162 482 163 c 0,49,50
 491 177 491 177 510 177 c 2,51,-1
 523 177 l 2,52,53
 560 177 560 177 560 148 c 0,54,55
 560 138 560 138 551.5 115 c 128,-1,56
 543 92 543 92 527.5 64.5 c 128,-1,57
 512 37 512 37 483.5 16.5 c 128,-1,58
 455 -4 455 -4 421 -4 c 0,59,60
 378 -4 378 -4 345.5 21.5 c 128,-1,61
 313 47 313 47 313 90 c 0,62,63
 313 97 313 97 315 109 c 128,-1,64
 317 121 317 121 317 126 c 0,65,66
 317 168 317 168 210 175 c 1,67,68
 206 154 206 154 177 40 c 0,69,70
 166 -4 166 -4 131 -4 c 0,71,72
 114 -4 114 -4 102.5 7.5 c 128,-1,73
 91 19 91 19 91 34 c 0,0,1
EndSplineSet
EndChar

StartChar: l
Encoding: 108 108 79
Width: 525
GlyphClass: 2
Flags: W
ItalicCorrection: 173
AnchorPoint: "Anchor-5" 378 611 basechar 0
AnchorPoint: "Anchor-4" 225 0 basechar 0
AnchorPoint: "Anchor-3" 678 611 basechar 0
AnchorPoint: "Anchor-2" 469 -222 basechar 0
LayerCount: 2
Fore
SplineSet
185 566 m 0,0,1
 185 573 185 573 187 581.5 c 128,-1,2
 189 590 189 590 199 600.5 c 128,-1,3
 209 611 209 611 226 611 c 2,4,-1
 375 611 l 2,5,6
 411 611 411 611 411 580 c 0,7,8
 411 571 411 571 410 566 c 2,9,-1
 296 110 l 2,10,11
 294 101 294 101 294 97 c 0,12,13
 297 72 297 72 343 72 c 0,14,15
 358 72 358 72 370 84 c 128,-1,16
 382 96 382 96 388 109.5 c 128,-1,17
 394 123 394 123 399.5 140 c 128,-1,18
 405 157 405 157 406 159 c 0,19,20
 414 177 414 177 443 177 c 2,21,-1
 456 177 l 2,22,23
 470 177 470 177 478.5 168.5 c 128,-1,24
 487 160 487 160 487 148 c 0,25,26
 487 138 487 138 478 115 c 128,-1,27
 469 92 469 92 452.5 64.5 c 128,-1,28
 436 37 436 37 405.5 16.5 c 128,-1,29
 375 -4 375 -4 338 -4 c 0,30,31
 289 -4 289 -4 249 21 c 128,-1,32
 209 46 209 46 209 94 c 0,33,34
 209 111 209 111 217 140 c 2,35,-1
 316 535 l 1,36,-1
 224 535 l 2,37,38
 185 535 185 535 185 566 c 0,0,1
EndSplineSet
EndChar

StartChar: m
Encoding: 109 109 80
Width: 525
GlyphClass: 2
Flags: W
ItalicCorrection: 173
AnchorPoint: "Anchor-5" 380 448 basechar 0
AnchorPoint: "Anchor-4" 267 0 basechar 0
AnchorPoint: "Anchor-3" 678 611 basechar 0
AnchorPoint: "Anchor-2" 469 -222 basechar 0
LayerCount: 2
Fore
SplineSet
45 30 m 0,0,1
 45 41 45 41 64.5 113.5 c 128,-1,2
 84 186 84 186 100 231 c 0,3,4
 107 251 107 251 128.5 336.5 c 128,-1,5
 150 422 150 422 153 428 c 0,6,7
 163 444 163 444 182 444 c 0,8,9
 208 444 208 444 216 421 c 1,10,11
 258 448 258 448 298 448 c 0,12,13
 359 448 359 448 379 396 c 1,14,15
 435 448 435 448 490 448 c 0,16,17
 525 448 525 448 551.5 426 c 128,-1,18
 578 404 578 404 578 352 c 0,19,20
 578 305 578 305 545.5 207.5 c 128,-1,21
 513 110 513 110 513 91 c 0,22,23
 513 85 513 85 515 75 c 1,24,25
 532 74 532 74 539 64.5 c 128,-1,26
 546 55 546 55 546 47 c 0,27,28
 546 38 546 38 544 29 c 128,-1,29
 542 20 542 20 533.5 10 c 128,-1,30
 525 0 525 0 510 0 c 0,31,32
 485 0 485 0 464.5 20 c 128,-1,33
 444 40 444 40 444 82 c 0,34,35
 444 120 444 120 476.5 214 c 128,-1,36
 509 308 509 308 509 342 c 0,37,38
 509 373 509 373 485 373 c 0,39,40
 404 373 404 373 326 50 c 0,41,42
 324 41 324 41 323 38 c 0,43,44
 323 33 323 33 321 26 c 128,-1,45
 319 19 319 19 307.5 7.5 c 128,-1,46
 296 -4 296 -4 278 -4 c 0,47,48
 264 -4 264 -4 250.5 5.5 c 128,-1,49
 237 15 237 15 237 29 c 0,50,51
 237 51 237 51 277 183 c 128,-1,52
 317 315 317 315 317 342 c 0,53,54
 317 373 317 373 295 373 c 1,55,-1
 294 372 l 1,56,57
 273 372 273 372 252 351.5 c 128,-1,58
 231 331 231 331 215 297.5 c 128,-1,59
 199 264 199 264 193 248 c 128,-1,60
 187 232 187 232 181 215 c 0,61,62
 165 168 165 168 153.5 126.5 c 128,-1,63
 142 85 142 85 138.5 66 c 128,-1,64
 135 47 135 47 130.5 31.5 c 128,-1,65
 126 16 126 16 120.5 10.5 c 128,-1,66
 115 5 115 5 104 1 c 0,67,68
 89 -4 89 -4 86 -4 c 0,69,70
 73 -4 73 -4 59 5.5 c 128,-1,71
 45 15 45 15 45 30 c 0,0,1
EndSplineSet
EndChar

StartChar: n
Encoding: 110 110 81
Width: 525
GlyphClass: 2
Flags: W
ItalicCorrection: 173
AnchorPoint: "Anchor-5" 373 448 basechar 0
AnchorPoint: "Anchor-4" 261 0 basechar 0
AnchorPoint: "Anchor-3" 678 611 basechar 0
AnchorPoint: "Anchor-2" 469 -222 basechar 0
LayerCount: 2
Fore
SplineSet
74 296 m 0,0,1
 74 298 74 298 77 312 c 128,-1,2
 80 326 80 326 88 349.5 c 128,-1,3
 96 373 96 373 108.5 394.5 c 128,-1,4
 121 416 121 416 142.5 432 c 128,-1,5
 164 448 164 448 191 448 c 0,6,7
 246 448 246 448 270 400 c 1,8,9
 324 448 324 448 389 448 c 0,10,11
 438 448 438 448 466.5 421 c 128,-1,12
 495 394 495 394 495 344 c 0,13,14
 495 296 495 296 460.5 193 c 128,-1,15
 426 90 426 90 426 81 c 0,16,17
 426 74 426 74 427 71 c 0,18,19
 444 75 444 75 455 93 c 128,-1,20
 466 111 466 111 473 135 c 128,-1,21
 480 159 480 159 482 162 c 0,22,23
 490 177 490 177 515 177 c 2,24,-1
 530 177 l 2,25,26
 544 177 544 177 552.5 168.5 c 128,-1,27
 561 160 561 160 561 148 c 0,28,29
 561 132 561 132 547.5 98.5 c 128,-1,30
 534 65 534 65 500 30.5 c 128,-1,31
 466 -4 466 -4 423 -4 c 0,32,33
 387 -4 387 -4 364.5 20.5 c 128,-1,34
 342 45 342 45 342 81 c 0,35,36
 342 101 342 101 376.5 203 c 128,-1,37
 411 305 411 305 411 340 c 0,38,39
 411 373 411 373 384 373 c 0,40,41
 342 373 342 373 306 321 c 128,-1,42
 270 269 270 269 251 207.5 c 128,-1,43
 232 146 232 146 216.5 85 c 128,-1,44
 201 24 201 24 197 18 c 0,45,46
 184 -4 184 -4 158 -4 c 0,47,48
 142 -4 142 -4 130.5 6.5 c 128,-1,49
 119 17 119 17 119 34 c 0,50,51
 119 37 119 37 123 57 c 2,52,-1
 189 321 l 2,53,54
 195 343 195 343 195 355 c 0,55,56
 195 365 195 365 187 373 c 1,57,58
 170 349 170 349 164.5 320 c 128,-1,59
 159 291 159 291 151 279 c 128,-1,60
 143 267 143 267 116 267 c 2,61,-1
 109 267 l 2,62,63
 91 267 91 267 82.5 276 c 128,-1,64
 74 285 74 285 74 296 c 0,0,1
EndSplineSet
EndChar

StartChar: o
Encoding: 111 111 82
Width: 525
GlyphClass: 2
Flags: W
ItalicCorrection: 173
AnchorPoint: "Anchor-5" 367 448 basechar 0
AnchorPoint: "Anchor-4" 269 0 basechar 0
AnchorPoint: "Anchor-3" 678 611 basechar 0
AnchorPoint: "Anchor-2" 469 -222 basechar 0
AnchorPoint: "Anchor-1" 269 0 basechar 0
LayerCount: 2
Fore
SplineSet
119 154 m 0,0,1
 119 203 119 203 136 254 c 128,-1,2
 153 305 153 305 183.5 348.5 c 128,-1,3
 214 392 214 392 262.5 420 c 128,-1,4
 311 448 311 448 367 448 c 0,5,6
 425 448 425 448 470 411 c 128,-1,7
 515 374 515 374 515 291 c 0,8,9
 515 224 515 224 487 157.5 c 128,-1,10
 459 91 459 91 400.5 43.5 c 128,-1,11
 342 -4 342 -4 268 -4 c 0,12,13
 243 -4 243 -4 219 3.5 c 128,-1,14
 195 11 195 11 171.5 27.5 c 128,-1,15
 148 44 148 44 133.5 76.5 c 128,-1,16
 119 109 119 109 119 154 c 0,0,1
203 155 m 0,17,18
 203 71 203 71 273 71 c 0,19,20
 341 71 341 71 386.5 143 c 128,-1,21
 432 215 432 215 432 290 c 0,22,23
 432 338 432 338 410 355.5 c 128,-1,24
 388 373 388 373 362 373 c 0,25,26
 294 373 294 373 248.5 302.5 c 128,-1,27
 203 232 203 232 203 155 c 0,17,18
EndSplineSet
EndChar

StartChar: p
Encoding: 112 112 83
Width: 525
GlyphClass: 2
Flags: W
ItalicCorrection: 173
AnchorPoint: "Anchor-5" 398 448 basechar 0
AnchorPoint: "Anchor-4" 230 -222 basechar 0
AnchorPoint: "Anchor-3" 678 611 basechar 0
AnchorPoint: "Anchor-2" 469 -222 basechar 0
LayerCount: 2
Fore
SplineSet
4 -191 m 0,0,1
 4 -164 4 -164 17.5 -155 c 128,-1,2
 31 -146 31 -146 45 -146 c 2,3,-1
 49 -147 l 1,4,-1
 84 -147 l 1,5,6
 86 -138 86 -138 90.5 -122 c 128,-1,7
 95 -106 95 -106 97 -97 c 2,8,-1
 203 330 l 2,9,10
 207 344 207 344 207 352 c 0,11,12
 207 371 207 371 193 371 c 0,13,14
 183 371 183 371 175 350.5 c 128,-1,15
 167 330 167 330 160.5 306 c 128,-1,16
 154 282 154 282 150 277 c 0,17,18
 141 267 141 267 124 267 c 2,19,-1
 111 267 l 2,20,21
 75 267 75 267 75 294 c 0,22,23
 75 314 75 314 86 347.5 c 128,-1,24
 97 381 97 381 127 414.5 c 128,-1,25
 157 448 157 448 196 448 c 0,26,27
 251 448 251 448 278 404 c 1,28,29
 332 448 332 448 391 448 c 0,30,31
 442 448 442 448 479.5 411.5 c 128,-1,32
 517 375 517 375 517 301 c 0,33,34
 517 240 517 240 493 172 c 128,-1,35
 469 104 469 104 415.5 50 c 128,-1,36
 362 -4 362 -4 293 -4 c 0,37,38
 252 -4 252 -4 212 24 c 1,39,-1
 170 -147 l 1,40,-1
 216 -147 l 2,41,42
 254 -147 254 -147 254 -180 c 0,43,44
 254 -222 254 -222 211 -222 c 2,45,-1
 44 -222 l 2,46,47
 4 -222 4 -222 4 -191 c 0,0,1
250 142 m 0,48,49
 250 72 250 72 297 72 c 0,50,51
 334 72 334 72 366.5 111.5 c 128,-1,52
 399 151 399 151 416 203 c 128,-1,53
 433 255 433 255 433 300 c 0,54,55
 433 373 433 373 386 373 c 0,56,57
 348 373 348 373 315.5 333.5 c 128,-1,58
 283 294 283 294 266.5 241 c 128,-1,59
 250 188 250 188 250 142 c 0,48,49
EndSplineSet
EndChar

StartChar: q
Encoding: 113 113 84
Width: 525
GlyphClass: 2
Flags: W
ItalicCorrection: 173
AnchorPoint: "Anchor-5" 373 448 basechar 0
AnchorPoint: "Anchor-4" 205 -222 basechar 0
AnchorPoint: "Anchor-3" 678 611 basechar 0
AnchorPoint: "Anchor-2" 469 -222 basechar 0
LayerCount: 2
Fore
SplineSet
127 150 m 0,0,1
 127 216 127 216 154 283 c 128,-1,2
 181 350 181 350 238 399 c 128,-1,3
 295 448 295 448 366 448 c 0,4,5
 426 448 426 448 470 406 c 1,6,7
 495 448 495 448 515 448 c 0,8,9
 527 448 527 448 536 439.5 c 128,-1,10
 545 431 545 431 545 418 c 2,11,-1
 542 400 l 1,12,-1
 419 -95 l 2,13,14
 414 -117 414 -117 405 -147 c 1,15,-1
 462 -147 l 2,16,17
 501 -147 501 -147 501 -180 c 0,18,19
 501 -222 501 -222 460 -222 c 2,20,-1
 243 -222 l 2,21,22
 205 -222 205 -222 205 -189 c 0,23,24
 205 -181 205 -181 207 -173 c 128,-1,25
 209 -165 209 -165 219 -156 c 128,-1,26
 229 -147 229 -147 245 -147 c 2,27,-1
 320 -147 l 1,28,-1
 362 21 l 1,29,30
 314 -4 314 -4 268 -4 c 0,31,32
 205 -4 205 -4 166 36.5 c 128,-1,33
 127 77 127 77 127 150 c 0,0,1
211 148 m 0,34,35
 211 117 211 117 225 94 c 128,-1,36
 239 71 239 71 272 71 c 0,37,38
 315 71 315 71 351 109 c 128,-1,39
 387 147 387 147 405 197 c 128,-1,40
 423 247 423 247 423 293 c 0,41,42
 423 373 423 373 361 373 c 128,-1,43
 299 373 299 373 255 300 c 128,-1,44
 211 227 211 227 211 148 c 0,34,35
EndSplineSet
EndChar

StartChar: r
Encoding: 114 114 85
Width: 525
GlyphClass: 2
Flags: W
ItalicCorrection: 173
AnchorPoint: "Anchor-5" 331 448 basechar 0
AnchorPoint: "Anchor-4" 200 0 basechar 0
AnchorPoint: "Anchor-3" 678 611 basechar 0
AnchorPoint: "Anchor-2" 469 -222 basechar 0
LayerCount: 2
Fore
SplineSet
87 296 m 0,0,1
 87 304 87 304 94 326 c 128,-1,2
 101 348 101 348 115 376.5 c 128,-1,3
 129 405 129 405 156 426.5 c 128,-1,4
 183 448 183 448 216 448 c 0,5,6
 247 448 247 448 272 434 c 128,-1,7
 297 420 297 420 309 397 c 1,8,9
 367 448 367 448 436 448 c 0,10,11
 498 448 498 448 538 417.5 c 128,-1,12
 578 387 578 387 578 338 c 0,13,14
 578 304 578 304 563.5 290 c 128,-1,15
 549 276 549 276 531 276 c 0,16,17
 514 276 514 276 503 287.5 c 128,-1,18
 492 299 492 299 492 315 c 0,19,20
 492 318 492 318 492.5 324 c 128,-1,21
 493 330 493 330 493 334 c 0,22,23
 493 354 493 354 472.5 363.5 c 128,-1,24
 452 373 452 373 432 373 c 0,25,26
 396 373 396 373 364.5 340.5 c 128,-1,27
 333 308 333 308 312.5 258.5 c 128,-1,28
 292 209 292 209 277.5 161 c 128,-1,29
 263 113 263 113 253 71 c 128,-1,30
 243 29 243 29 240 23 c 0,31,32
 228 -4 228 -4 199 -4 c 0,33,34
 161 -4 161 -4 161 35 c 0,35,36
 161 40 161 40 163 52 c 2,37,-1
 234 336 l 2,38,39
 235 340 235 340 235 348 c 0,40,41
 235 372 235 372 213 372 c 0,42,43
 201 372 201 372 193 358 c 128,-1,44
 185 344 185 344 174 306 c 0,45,46
 169 287 169 287 163 278.5 c 128,-1,47
 157 270 157 270 151.5 268.5 c 128,-1,48
 146 267 146 267 132 267 c 2,49,-1
 123 267 l 2,50,51
 104 267 104 267 95.5 276 c 128,-1,52
 87 285 87 285 87 296 c 0,0,1
EndSplineSet
EndChar

StartChar: s
Encoding: 115 115 86
Width: 525
GlyphClass: 2
Flags: W
ItalicCorrection: 173
AnchorPoint: "Anchor-5" 367 448 basechar 0
AnchorPoint: "Anchor-4" 273 0 basechar 0
AnchorPoint: "Anchor-3" 678 611 basechar 0
AnchorPoint: "Anchor-2" 469 -222 basechar 0
LayerCount: 2
Fore
SplineSet
98 94 m 0,0,1
 98 125 98 125 112.5 139 c 128,-1,2
 127 153 127 153 145 153 c 0,3,4
 161 153 161 153 172.5 142.5 c 128,-1,5
 184 132 184 132 184 114 c 0,6,7
 184 111 184 111 183.5 106.5 c 128,-1,8
 183 102 183 102 183 100 c 0,9,10
 183 91 183 91 191 85 c 0,11,12
 211 71 211 71 276 71 c 0,13,14
 315 71 315 71 343 80 c 128,-1,15
 371 89 371 89 383 102.5 c 128,-1,16
 395 116 395 116 400 126.5 c 128,-1,17
 405 137 405 137 405 146 c 0,18,19
 405 154 405 154 401 160.5 c 128,-1,20
 397 167 397 167 389 171.5 c 128,-1,21
 381 176 381 176 373.5 179.5 c 128,-1,22
 366 183 366 183 353 186 c 128,-1,23
 340 189 340 189 332.5 191 c 128,-1,24
 325 193 325 193 311.5 195 c 128,-1,25
 298 197 298 197 294 198 c 0,26,27
 260 204 260 204 236 217 c 128,-1,28
 212 230 212 230 201 247 c 128,-1,29
 190 264 190 264 186 277.5 c 128,-1,30
 182 291 182 291 182 304 c 0,31,32
 182 314 182 314 184.5 327.5 c 128,-1,33
 187 341 187 341 198.5 363.5 c 128,-1,34
 210 386 210 386 228.5 404 c 128,-1,35
 247 422 247 422 283 435 c 128,-1,36
 319 448 319 448 367 448 c 0,37,38
 424 448 424 448 466 427.5 c 128,-1,39
 508 407 508 407 508 360 c 0,40,41
 508 332 508 332 493.5 318.5 c 128,-1,42
 479 305 479 305 461 305 c 0,43,44
 442 305 442 305 431.5 317 c 128,-1,45
 421 329 421 329 422 352 c 0,46,47
 420 373 420 373 358 373 c 2,48,-1
 357 373 l 2,49,50
 309 372 309 372 286.5 354 c 128,-1,51
 264 336 264 336 264 314 c 0,52,53
 264 309 264 309 265.5 305.5 c 128,-1,54
 267 302 267 302 270.5 298.5 c 128,-1,55
 274 295 274 295 277.5 292.5 c 128,-1,56
 281 290 281 290 288 288 c 128,-1,57
 295 286 295 286 299.5 284.5 c 128,-1,58
 304 283 304 283 312.5 281 c 128,-1,59
 321 279 321 279 326 278 c 128,-1,60
 331 277 331 277 341 275.5 c 128,-1,61
 351 274 351 274 356 273 c 0,62,63
 399 266 399 266 428 250 c 128,-1,64
 457 234 457 234 468.5 214.5 c 128,-1,65
 480 195 480 195 483.5 182 c 128,-1,66
 487 169 487 169 487 156 c 0,67,68
 487 132 487 132 477 107 c 128,-1,69
 467 82 467 82 444.5 56 c 128,-1,70
 422 30 422 30 377.5 13 c 128,-1,71
 333 -4 333 -4 272 -4 c 2,72,-1
 266 -4 l 2,73,74
 172 -4 172 -4 135 26 c 128,-1,75
 98 56 98 56 98 94 c 0,0,1
EndSplineSet
EndChar

StartChar: t
Encoding: 116 116 87
Width: 525
GlyphClass: 2
Flags: W
ItalicCorrection: 173
AnchorPoint: "Anchor-5" 371 615 basechar 0
AnchorPoint: "Anchor-4" 278 0 basechar 0
AnchorPoint: "Anchor-3" 678 611 basechar 0
AnchorPoint: "Anchor-2" 469 -222 basechar 0
LayerCount: 2
Fore
SplineSet
156 399 m 0,0,1
 157 444 157 444 194 444 c 2,2,-1
 286 444 l 1,3,-1
 286 445 l 1,4,5
 319 582 319 582 327 594 c 0,6,7
 341 615 341 615 364 615 c 0,8,9
 382 615 382 615 392.5 602.5 c 128,-1,10
 403 590 403 590 403 577 c 0,11,12
 403 570 403 570 372 444 c 1,13,-1
 446 444 l 2,14,15
 482 444 482 444 482 412 c 0,16,17
 482 369 482 369 442 369 c 2,18,-1
 353 369 l 1,19,20
 349 350 349 350 332 283.5 c 128,-1,21
 315 217 315 217 300.5 159.5 c 128,-1,22
 286 102 286 102 286 96 c 0,23,24
 288 72 288 72 317 72 c 128,-1,25
 346 72 346 72 374 95.5 c 128,-1,26
 402 119 402 119 417 151 c 0,27,28
 422 163 422 163 429 169 c 128,-1,29
 436 175 436 175 441 176 c 128,-1,30
 446 177 446 177 456 177 c 2,31,-1
 469 177 l 2,32,33
 486 177 486 177 494 167.5 c 128,-1,34
 502 158 502 158 502 148 c 0,35,36
 502 114 502 114 445 55 c 128,-1,37
 388 -4 388 -4 312 -4 c 0,38,39
 265 -4 265 -4 233.5 23 c 128,-1,40
 202 50 202 50 202 93 c 0,41,42
 202 94 202 94 202 95 c 0,43,44
 202 109 202 109 238 255 c 0,45,46
 256 323 256 323 267 369 c 1,47,-1
 193 369 l 2,48,49
 156 370 156 370 156 399 c 0,0,1
EndSplineSet
EndChar

StartChar: u
Encoding: 117 117 88
Width: 525
GlyphClass: 2
Flags: W
ItalicCorrection: 173
AnchorPoint: "Anchor-5" 374 448 basechar 0
AnchorPoint: "Anchor-4" 262 0 basechar 0
AnchorPoint: "Anchor-3" 678 611 basechar 0
AnchorPoint: "Anchor-2" 469 -222 basechar 0
AnchorPoint: "Anchor-1" 366 0 basechar 0
LayerCount: 2
Fore
SplineSet
74 296 m 0,0,1
 74 313 74 313 88.5 347 c 128,-1,2
 103 381 103 381 138 414.5 c 128,-1,3
 173 448 173 448 216 448 c 0,4,5
 253 448 253 448 276 423.5 c 128,-1,6
 299 399 299 399 299 362 c 0,7,8
 299 341 299 341 267.5 251.5 c 128,-1,9
 236 162 236 162 236 119 c 0,10,11
 236 72 236 72 273 72 c 128,-1,12
 310 72 310 72 339 121 c 128,-1,13
 368 170 368 170 382 229 c 128,-1,14
 396 288 396 288 410 348.5 c 128,-1,15
 424 409 424 409 432 422 c 0,16,17
 446 444 446 444 470 444 c 0,18,19
 486 444 486 444 497.5 433.5 c 128,-1,20
 509 423 509 423 509 406 c 0,21,22
 509 400 509 400 504 378 c 2,23,-1
 439 118 l 2,24,25
 434 96 434 96 434 92 c 0,26,27
 434 80 434 80 439.5 75.5 c 128,-1,28
 445 71 445 71 451 78 c 0,29,30
 460 90 460 90 470 124 c 128,-1,31
 480 158 480 158 481 161 c 0,32,33
 489 177 489 177 525 177 c 128,-1,34
 561 177 561 177 561 148 c 0,35,36
 561 142 561 142 555 121 c 128,-1,37
 549 100 549 100 537 70.5 c 128,-1,38
 525 41 525 41 499.5 18.5 c 128,-1,39
 474 -4 474 -4 442 -4 c 0,40,41
 397 -4 397 -4 365 35 c 1,42,43
 323 -4 323 -4 268 -4 c 0,44,45
 222 -4 222 -4 187 23.5 c 128,-1,46
 152 51 152 51 152 117 c 0,47,48
 152 170 152 170 183.5 261.5 c 128,-1,49
 215 353 215 353 215 360 c 0,50,51
 215 368 215 368 214 373 c 1,52,53
 195 370 195 370 182.5 352 c 128,-1,54
 170 334 170 334 162 308.5 c 128,-1,55
 154 283 154 283 153 281 c 0,56,57
 144 267 144 267 123 267 c 2,58,-1
 109 267 l 2,59,60
 74 267 74 267 74 296 c 0,0,1
EndSplineSet
EndChar

StartChar: v
Encoding: 118 118 89
Width: 525
GlyphClass: 2
Flags: W
ItalicCorrection: 173
AnchorPoint: "Anchor-5" 355 448 basechar 0
AnchorPoint: "Anchor-4" 321 0 basechar 0
AnchorPoint: "Anchor-3" 678 611 basechar 0
AnchorPoint: "Anchor-2" 469 -222 basechar 0
LayerCount: 2
Fore
SplineSet
74 297 m 0,0,1
 76 336 76 336 120.5 392 c 128,-1,2
 165 448 165 448 229 448 c 0,3,4
 269 448 269 448 296 423 c 128,-1,5
 323 398 323 398 323 359 c 0,6,7
 323 339 323 339 291.5 254.5 c 128,-1,8
 260 170 260 170 260 130 c 0,9,10
 260 71 260 71 325 71 c 0,11,12
 360 71 360 71 386 116 c 0,13,14
 410 158 410 158 431.5 243.5 c 128,-1,15
 453 329 453 329 453 358 c 0,16,17
 453 372 453 372 449 385 c 128,-1,18
 445 398 445 398 445 404 c 0,19,20
 445 421 445 421 458.5 434.5 c 128,-1,21
 472 448 472 448 490 448 c 0,22,23
 538 448 538 448 538 365 c 0,24,25
 538 315 538 315 511 220 c 128,-1,26
 484 125 484 125 445 70 c 0,27,28
 393 -4 393 -4 320 -4 c 0,29,30
 262 -4 262 -4 219 26 c 128,-1,31
 176 56 176 56 176 127 c 0,32,33
 176 178 176 178 207 264.5 c 128,-1,34
 238 351 238 351 238 357 c 0,35,36
 238 372 238 372 222 372 c 0,37,38
 209 372 209 372 193 356 c 0,39,40
 178 341 178 341 169.5 323 c 128,-1,41
 161 305 161 305 158.5 293.5 c 128,-1,42
 156 282 156 282 147.5 274.5 c 128,-1,43
 139 267 139 267 121 267 c 2,44,-1
 110 267 l 2,45,46
 74 267 74 267 74 297 c 0,0,1
EndSplineSet
EndChar

StartChar: w
Encoding: 119 119 90
Width: 525
GlyphClass: 2
Flags: W
ItalicCorrection: 173
AnchorPoint: "Anchor-5" 392 448 basechar 0
AnchorPoint: "Anchor-4" 311 0 basechar 0
AnchorPoint: "Anchor-3" 678 611 basechar 0
AnchorPoint: "Anchor-2" 469 -222 basechar 0
LayerCount: 2
Fore
SplineSet
90 119 m 0,0,1
 90 172 90 172 119 248.5 c 128,-1,2
 148 325 148 325 148 344 c 0,3,4
 148 355 148 355 142 367 c 0,5,6
 141 367 141 367 134.5 368.5 c 128,-1,7
 128 370 128 370 124.5 371.5 c 128,-1,8
 121 373 121 373 116 376 c 128,-1,9
 111 379 111 379 108.5 384.5 c 128,-1,10
 106 390 106 390 106 398 c 0,11,12
 108 444 108 444 143 444 c 0,13,14
 170 444 170 444 193.5 421 c 128,-1,15
 217 398 217 398 217 352 c 0,16,17
 217 316 217 316 188.5 242 c 128,-1,18
 160 168 160 168 160 128 c 0,19,20
 160 71 160 71 217 71 c 0,21,22
 236 71 236 71 251 88 c 0,23,24
 282 123 282 123 319 273.5 c 128,-1,25
 356 424 356 424 359 428 c 0,26,27
 370 444 370 444 388 444 c 0,28,29
 402 444 402 444 411.5 435 c 128,-1,30
 421 426 421 426 421 412 c 0,31,32
 421 402 421 402 389 278 c 128,-1,33
 357 154 357 154 357 125 c 0,34,35
 357 71 357 71 408 71 c 0,36,37
 438 71 438 71 464 135.5 c 128,-1,38
 490 200 490 200 502 260.5 c 128,-1,39
 514 321 514 321 514 340 c 0,40,41
 514 362 514 362 507 379.5 c 128,-1,42
 500 397 500 397 500 404 c 0,43,44
 500 421 500 421 513.5 434.5 c 128,-1,45
 527 448 527 448 545 448 c 0,46,47
 590 448 590 448 590 375 c 0,48,49
 590 331 590 331 566 237 c 0,50,51
 554 192 554 192 546 164.5 c 128,-1,52
 538 137 538 137 523.5 101 c 128,-1,53
 509 65 509 65 494 45 c 128,-1,54
 479 25 479 25 456 10.5 c 128,-1,55
 433 -4 433 -4 405 -4 c 0,56,57
 338 -4 338 -4 306 44 c 1,58,-1
 305 44 l 1,59,60
 270 -4 270 -4 214 -4 c 0,61,62
 166 -4 166 -4 128 24 c 128,-1,63
 90 52 90 52 90 119 c 0,0,1
EndSplineSet
EndChar

StartChar: x
Encoding: 120 120 91
Width: 525
GlyphClass: 2
Flags: W
ItalicCorrection: 173
AnchorPoint: "Anchor-5" 374 448 basechar 0
AnchorPoint: "Anchor-4" 262 0 basechar 0
AnchorPoint: "Anchor-3" 678 611 basechar 0
AnchorPoint: "Anchor-2" 469 -222 basechar 0
LayerCount: 2
Fore
SplineSet
74 296 m 0,0,1
 74 318 74 318 94.5 352.5 c 128,-1,2
 115 387 115 387 159.5 417.5 c 128,-1,3
 204 448 204 448 258 448 c 0,4,5
 314 448 314 448 353 413 c 1,6,7
 395 448 395 448 449 448 c 0,8,9
 495 448 495 448 523.5 418.5 c 128,-1,10
 552 389 552 389 552 344 c 0,11,12
 552 306 552 306 537 291 c 128,-1,13
 522 276 522 276 503 276 c 0,14,15
 487 276 487 276 476 287.5 c 128,-1,16
 465 299 465 299 465 315 c 0,17,18
 465 316 465 316 466 325 c 128,-1,19
 467 334 467 334 467 341 c 0,20,21
 467 373 467 373 445 373 c 0,22,23
 434 373 434 373 424.5 369.5 c 128,-1,24
 415 366 415 366 408 358 c 128,-1,25
 401 350 401 350 396.5 344 c 128,-1,26
 392 338 392 338 387.5 325.5 c 128,-1,27
 383 313 383 313 381.5 307.5 c 128,-1,28
 380 302 380 302 377 289 c 128,-1,29
 374 276 374 276 374 275 c 0,30,31
 337 129 337 129 337 114 c 0,32,33
 337 94 337 94 349 82.5 c 128,-1,34
 361 71 361 71 382 71 c 0,35,36
 411 71 411 71 438 93.5 c 128,-1,37
 465 116 465 116 476 146 c 0,38,39
 484 167 484 167 491 172 c 128,-1,40
 498 177 498 177 519 177 c 2,41,-1
 520 177 l 2,42,43
 561 177 561 177 561 148 c 0,44,45
 561 108 561 108 508 52 c 128,-1,46
 455 -4 455 -4 378 -4 c 0,47,48
 325 -4 325 -4 282 31 c 1,49,50
 240 -4 240 -4 187 -4 c 0,51,52
 141 -4 141 -4 112.5 26 c 128,-1,53
 84 56 84 56 84 101 c 0,54,55
 84 138 84 138 98.5 153 c 128,-1,56
 113 168 113 168 132 168 c 0,57,58
 148 168 148 168 159.5 157 c 128,-1,59
 171 146 171 146 171 130 c 0,60,61
 171 126 171 126 169.5 115 c 128,-1,62
 168 104 168 104 168 99 c 0,63,64
 168 72 168 72 192 72 c 0,65,66
 201 72 201 72 206 74 c 0,67,68
 242 87 242 87 253 133 c 0,69,70
 298 314 298 314 298 330 c 0,71,72
 298 353 298 353 284.5 363 c 128,-1,73
 271 373 271 373 253 373 c 0,74,75
 225 373 225 373 198 351 c 128,-1,76
 171 329 171 329 160 297 c 0,77,78
 152 276 152 276 145 271.5 c 128,-1,79
 138 267 138 267 119 267 c 2,80,-1
 110 267 l 2,81,82
 74 267 74 267 74 296 c 0,0,1
EndSplineSet
EndChar

StartChar: y
Encoding: 121 121 92
Width: 525
GlyphClass: 2
Flags: W
ItalicCorrection: 173
AnchorPoint: "Anchor-5" 400 448 basechar 0
AnchorPoint: "Anchor-4" 168 -222 basechar 0
AnchorPoint: "Anchor-3" 678 611 basechar 0
AnchorPoint: "Anchor-2" 469 -222 basechar 0
LayerCount: 2
Fore
SplineSet
74 296 m 0,0,1
 74 332 74 332 117 390 c 128,-1,2
 160 448 160 448 224 448 c 0,3,4
 262 448 262 448 288 424 c 128,-1,5
 314 400 314 400 314 361 c 0,6,7
 314 340 314 340 282 253 c 128,-1,8
 250 166 250 166 250 123 c 0,9,10
 250 71 250 71 298 71 c 0,11,12
 331 71 331 71 358 101.5 c 128,-1,13
 385 132 385 132 401.5 178.5 c 128,-1,14
 418 225 418 225 430 272 c 128,-1,15
 442 319 442 319 451.5 362 c 128,-1,16
 461 405 461 405 467 417 c 0,17,18
 480 444 480 444 509 444 c 0,19,20
 525 444 525 444 536.5 433 c 128,-1,21
 548 422 548 422 548 406 c 0,22,23
 548 401 548 401 543 381 c 2,24,-1
 451 12 l 2,25,26
 436 -47 436 -47 410.5 -92.5 c 128,-1,27
 385 -138 385 -138 359 -162 c 128,-1,28
 333 -186 333 -186 302.5 -201.5 c 128,-1,29
 272 -217 272 -217 251.5 -221.5 c 128,-1,30
 231 -226 231 -226 214 -226 c 0,31,32
 169 -226 169 -226 140.5 -199 c 128,-1,33
 112 -172 112 -172 112 -131 c 0,34,35
 112 -98 112 -98 126.5 -83.5 c 128,-1,36
 141 -69 141 -69 159 -69 c 0,37,38
 175 -69 175 -69 186.5 -80 c 128,-1,39
 198 -91 198 -91 198 -108 c 0,40,41
 198 -112 198 -112 197.5 -118 c 128,-1,42
 197 -124 197 -124 197 -128 c 0,43,44
 197 -150 197 -150 222 -150 c 0,45,46
 257 -150 257 -150 301.5 -109 c 128,-1,47
 346 -68 346 -68 366 14 c 1,48,49
 330 -4 330 -4 293 -4 c 0,50,51
 243 -4 243 -4 204.5 24.5 c 128,-1,52
 166 53 166 53 166 120 c 0,53,54
 166 172 166 172 198 263.5 c 128,-1,55
 230 355 230 355 230 358 c 0,56,57
 230 372 230 372 218 372 c 0,58,59
 202 372 202 372 185 351 c 0,60,61
 171 332 171 332 164 309 c 128,-1,62
 157 286 157 286 149.5 276.5 c 128,-1,63
 142 267 142 267 118 267 c 2,64,-1
 107 267 l 2,65,66
 93 267 93 267 85 274 c 128,-1,67
 77 281 77 281 75.5 286.5 c 128,-1,68
 74 292 74 292 74 296 c 0,0,1
EndSplineSet
EndChar

StartChar: z
Encoding: 122 122 93
Width: 525
GlyphClass: 2
Flags: W
ItalicCorrection: 173
AnchorPoint: "Anchor-5" 401 448 basechar 0
AnchorPoint: "Anchor-4" 289 0 basechar 0
AnchorPoint: "Anchor-3" 678 611 basechar 0
AnchorPoint: "Anchor-2" 469 -222 basechar 0
LayerCount: 2
Fore
SplineSet
88 25 m 0,0,1
 88 33 88 33 97 49 c 0,2,3
 122 90 122 90 158.5 130.5 c 128,-1,4
 195 171 195 171 228 199.5 c 128,-1,5
 261 228 261 228 305.5 268 c 128,-1,6
 350 308 350 308 380 340 c 1,7,8
 375 342 375 342 357 349.5 c 128,-1,9
 339 357 339 357 327.5 360.5 c 128,-1,10
 316 364 316 364 306 364 c 0,11,12
 285 364 285 364 269 349 c 128,-1,13
 253 334 253 334 247 321 c 128,-1,14
 241 308 241 308 241 305 c 0,15,16
 233 288 233 288 206 288 c 2,17,-1
 201 288 l 2,18,19
 162 288 162 288 162 318 c 0,20,21
 162 352 162 352 206 400 c 128,-1,22
 250 448 250 448 311 448 c 0,23,24
 344 448 344 448 381.5 427 c 128,-1,25
 419 406 419 406 426 406 c 0,26,27
 435 406 435 406 440.5 416.5 c 128,-1,28
 446 427 446 427 455.5 437.5 c 128,-1,29
 465 448 465 448 484 448 c 2,30,-1
 494 448 l 2,31,32
 532 448 532 448 532 420 c 0,33,34
 532 412 532 412 522 394 c 0,35,36
 494 349 494 349 458 310 c 128,-1,37
 422 271 422 271 350 206.5 c 128,-1,38
 278 142 278 142 249 114 c 1,39,40
 266 111 266 111 302.5 95.5 c 128,-1,41
 339 80 339 80 358 80 c 0,42,43
 386 80 386 80 415 106 c 0,44,45
 434 124 434 124 443.5 143 c 128,-1,46
 453 162 453 162 455 172.5 c 128,-1,47
 457 183 457 183 466 189.5 c 128,-1,48
 475 196 475 196 496 196 c 0,49,50
 513 196 513 196 516 195 c 0,51,52
 524 193 524 193 531 185.5 c 128,-1,53
 538 178 538 178 538 167 c 0,54,55
 538 151 538 151 525 123.5 c 128,-1,56
 512 96 512 96 489 67 c 128,-1,57
 466 38 466 38 429.5 17 c 128,-1,58
 393 -4 393 -4 352 -4 c 0,59,60
 319 -4 319 -4 279.5 18 c 128,-1,61
 240 40 240 40 223 40 c 0,62,63
 198 40 198 40 178 22 c 0,64,65
 174 19 174 19 167.5 10.5 c 128,-1,66
 161 2 161 2 154.5 -1 c 128,-1,67
 148 -4 148 -4 135 -4 c 2,68,-1
 124 -4 l 2,69,70
 103 -4 103 -4 95.5 6 c 128,-1,71
 88 16 88 16 88 25 c 0,0,1
EndSplineSet
EndChar

StartChar: braceleft
Encoding: 123 123 94
Width: 525
GlyphClass: 2
Flags: W
ItalicCorrection: 173
LayerCount: 2
Fore
SplineSet
152 297 m 0,0,1
 152 314 152 314 157.5 325 c 128,-1,2
 163 336 163 336 173 339.5 c 128,-1,3
 183 343 183 343 187 343.5 c 128,-1,4
 191 344 191 344 198 344 c 0,5,6
 297 351 297 351 318 401 c 0,7,8
 321 409 321 409 363 575 c 0,9,10
 373 612 373 612 391 632 c 0,11,12
 444 694 444 694 570 694 c 2,13,-1
 576 694 l 2,14,15
 612 694 612 694 612 665 c 0,16,17
 612 635 612 635 594 624 c 0,18,19
 587 619 587 619 550 617.5 c 128,-1,20
 513 616 513 616 485 606 c 0,21,22
 470 600 470 600 461 591.5 c 128,-1,23
 452 583 452 583 449.5 576.5 c 128,-1,24
 447 570 447 570 443 555 c 0,25,26
 399 379 399 379 394 369 c 0,27,28
 393 366 393 366 389 360 c 0,29,30
 367 324 367 324 321 302 c 1,31,32
 358 269 358 269 358 228 c 0,33,34
 358 211 358 211 333.5 117.5 c 128,-1,35
 309 24 309 24 312 16 c 0,36,37
 317 4 317 4 340.5 -1 c 128,-1,38
 364 -6 364 -6 389.5 -7.5 c 128,-1,39
 415 -9 415 -9 419 -11 c 0,40,41
 436 -18 436 -18 436 -40 c 0,42,43
 436 -83 436 -83 395 -83 c 2,44,-1
 392 -83 l 2,45,46
 299 -83 299 -83 262.5 -52.5 c 128,-1,47
 226 -22 226 -22 226 17 c 0,48,49
 226 35 226 35 249.5 125 c 128,-1,50
 273 215 273 215 273 225 c 0,51,52
 273 245 273 245 251 255 c 128,-1,53
 229 265 229 265 200 268 c 2,54,-1
 171 270 l 1,55,56
 152 277 152 277 152 297 c 0,0,1
EndSplineSet
EndChar

StartChar: bar
Encoding: 124 124 95
Width: 525
GlyphClass: 2
Flags: W
ItalicCorrection: 173
LayerCount: 2
Fore
SplineSet
210 -42 m 0,0,1
 210 -31 210 -31 213 -22 c 2,2,-1
 381 650 l 1,3,4
 381 650 381 650 382 654 c 0,5,6
 384 659 384 659 384.5 661 c 128,-1,7
 385 663 385 663 387 668 c 128,-1,8
 389 673 389 673 391 676 c 128,-1,9
 393 679 393 679 396.5 682.5 c 128,-1,10
 400 686 400 686 404 688.5 c 128,-1,11
 408 691 408 691 413.5 692.5 c 128,-1,12
 419 694 419 694 425 694 c 0,13,14
 441 694 441 694 454 682 c 128,-1,15
 467 670 467 670 467 653 c 2,16,-1
 464 635 l 1,17,-1
 296 -36 l 1,18,-1
 295 -40 l 2,19,20
 294 -44 294 -44 293.5 -46.5 c 128,-1,21
 293 -49 293 -49 291.5 -53 c 128,-1,22
 290 -57 290 -57 288 -60 c 128,-1,23
 286 -63 286 -63 283.5 -67 c 128,-1,24
 281 -71 281 -71 278 -73.5 c 128,-1,25
 275 -76 275 -76 271.5 -78.5 c 128,-1,26
 268 -81 268 -81 263 -82 c 128,-1,27
 258 -83 258 -83 252 -83 c 0,28,29
 235 -83 235 -83 222.5 -71.5 c 128,-1,30
 210 -60 210 -60 210 -42 c 0,0,1
EndSplineSet
EndChar

StartChar: braceright
Encoding: 125 125 96
Width: 525
GlyphClass: 2
Flags: W
ItalicCorrection: 173
LayerCount: 2
Fore
SplineSet
64 -53 m 0,0,1
 64 -24 64 -24 82 -13 c 0,2,3
 88 -9 88 -9 118 -7.5 c 128,-1,4
 148 -6 148 -6 178.5 1.5 c 128,-1,5
 209 9 209 9 223 28 c 0,6,7
 226 33 226 33 234 62 c 0,8,9
 250 128 250 128 271 208 c 0,10,11
 289 278 289 278 356 309 c 1,12,-1
 356 310 l 1,13,14
 318 337 318 337 318 383 c 0,15,16
 318 400 318 400 341.5 492 c 128,-1,17
 365 584 365 584 365 590 c 0,18,19
 365 603 365 603 341 611 c 0,20,21
 324 616 324 616 295 617 c 128,-1,22
 266 618 266 618 253 623.5 c 128,-1,23
 240 629 240 629 240 647 c 0,24,25
 240 694 240 694 280 694 c 2,26,-1
 286 694 l 2,27,28
 450 692 450 692 450 594 c 0,29,30
 450 578 450 578 427 490 c 128,-1,31
 404 402 404 402 404 382 c 0,32,33
 404 377 404 377 405 375 c 0,34,35
 420 345 420 345 490 343 c 0,36,37
 525 342 525 342 525 314 c 0,38,39
 525 277 525 277 499 269 c 0,40,41
 498 269 498 269 484.5 268 c 128,-1,42
 471 267 471 267 453.5 264 c 128,-1,43
 436 261 436 261 417 255.5 c 128,-1,44
 398 250 398 250 381.5 238.5 c 128,-1,45
 365 227 365 227 358 210 c 0,46,47
 354 200 354 200 332.5 111 c 128,-1,48
 311 22 311 22 308 14 c 0,49,50
 291 -32 291 -32 239 -57.5 c 128,-1,51
 187 -83 187 -83 107 -83 c 2,52,-1
 101 -83 l 2,53,54
 64 -83 64 -83 64 -53 c 0,0,1
EndSplineSet
EndChar

StartChar: asciitilde
Encoding: 126 126 97
Width: 525
GlyphClass: 2
Flags: W
ItalicCorrection: 173
LayerCount: 2
Fore
SplineSet
228 509 m 0,0,1
 228 519 228 519 241 535 c 0,2,3
 309 611 309 611 355 611 c 0,4,5
 377 611 377 611 395 597 c 128,-1,6
 413 583 413 583 424.5 569 c 128,-1,7
 436 555 436 555 443 555 c 0,8,9
 455 555 455 555 483.5 582.5 c 128,-1,10
 512 610 512 610 525 610 c 128,-1,11
 538 610 538 610 551.5 598.5 c 128,-1,12
 565 587 565 587 565 572 c 0,13,14
 565 561 565 561 543 536 c 0,15,16
 482 470 482 470 438 470 c 0,17,18
 416 470 416 470 398 484 c 128,-1,19
 380 498 380 498 368.5 512 c 128,-1,20
 357 526 357 526 350 526 c 0,21,22
 338 526 338 526 310 498 c 128,-1,23
 282 470 282 470 269 470 c 0,24,25
 257 470 257 470 242.5 481.5 c 128,-1,26
 228 493 228 493 228 509 c 0,0,1
EndSplineSet
EndChar

StartChar: exclamdown
Encoding: 161 161 99
Width: 525
GlyphClass: 2
Flags: W
ItalicCorrection: 173
LayerCount: 2
Fore
SplineSet
146 -168 m 0,0,1
 146 -156 146 -156 155 -129 c 2,2,-1
 233 133 l 2,3,4
 237 148 237 148 243.5 155.5 c 128,-1,5
 250 163 250 163 256 164.5 c 128,-1,6
 262 166 262 166 274 166 c 2,7,-1
 317 166 l 2,8,9
 355 166 355 166 355 136 c 0,10,11
 355 132 355 132 352 117 c 2,12,-1
 300 -145 l 2,13,14
 283 -230 283 -230 212 -230 c 0,15,16
 185 -230 185 -230 165.5 -212 c 128,-1,17
 146 -194 146 -194 146 -168 c 0,0,1
264 303 m 0,18,19
 264 336 264 336 290.5 362 c 128,-1,20
 317 388 317 388 352 388 c 0,21,22
 379 388 379 388 397.5 370 c 128,-1,23
 416 352 416 352 416 324 c 0,24,25
 416 291 416 291 390 265 c 128,-1,26
 364 239 364 239 329 239 c 0,27,28
 302 239 302 239 283 257 c 128,-1,29
 264 275 264 275 264 303 c 0,18,19
EndSplineSet
EndChar

StartChar: cent
Encoding: 162 162 100
Width: 525
GlyphClass: 2
Flags: W
LayerCount: 2
Fore
SplineSet
118 161 m 0,0,1
 118 256 118 256 182 344.5 c 128,-1,2
 246 433 246 433 360 448 c 1,3,4
 376 524 376 524 385.5 540.5 c 128,-1,5
 395 557 395 557 415 557 c 2,6,-1
 418 557 l 2,7,8
 439 557 439 557 447 547 c 128,-1,9
 455 537 455 537 455 527 c 0,10,11
 455 523 455 523 437 450 c 1,12,13
 544 444 544 444 544 386 c 0,14,15
 544 366 544 366 531 352 c 128,-1,16
 518 338 518 338 498 338 c 0,17,18
 465 338 465 338 459 371 c 1,19,-1
 443 373 l 1,20,-1
 418 375 l 1,21,-1
 418 374 l 1,22,-1
 343 75 l 1,23,24
 366 83 366 83 380 96 c 128,-1,25
 394 109 394 109 398.5 120 c 128,-1,26
 403 131 403 131 414.5 139 c 128,-1,27
 426 147 426 147 446 147 c 0,28,29
 486 147 486 147 486 118 c 0,30,31
 486 109 486 109 476 92.5 c 128,-1,32
 466 76 466 76 448 56.5 c 128,-1,33
 430 37 430 37 396.5 20.5 c 128,-1,34
 363 4 363 4 324 -2 c 1,35,-1
 324 -3 l 1,36,37
 308 -78 308 -78 299 -94.5 c 128,-1,38
 290 -111 290 -111 268 -111 c 2,39,-1
 267 -111 l 2,40,41
 229 -111 229 -111 229 -80 c 0,42,43
 229 -75 229 -75 229.5 -72.5 c 128,-1,44
 230 -70 230 -70 231 -65.5 c 128,-1,45
 232 -61 232 -61 233.5 -55 c 128,-1,46
 235 -49 235 -49 239 -34 c 128,-1,47
 243 -19 243 -19 247 0 c 1,48,-1
 242 1 l 2,49,50
 238 2 238 2 230.5 4 c 128,-1,51
 223 6 223 6 213 10 c 128,-1,52
 203 14 203 14 192.5 20.5 c 128,-1,53
 182 27 182 27 171.5 35 c 128,-1,54
 161 43 161 43 151.5 55.5 c 128,-1,55
 142 68 142 68 134.5 82.5 c 128,-1,56
 127 97 127 97 122.5 117.5 c 128,-1,57
 118 138 118 138 118 161 c 0,0,1
203 170 m 0,58,59
 203 99 203 99 267 78 c 1,60,-1
 339 367 l 1,61,62
 275 348 275 348 239 287.5 c 128,-1,63
 203 227 203 227 203 170 c 0,58,59
EndSplineSet
EndChar

StartChar: sterling
Encoding: 163 163 101
Width: 525
GlyphClass: 2
Flags: W
ItalicCorrection: 173
LayerCount: 2
Fore
SplineSet
86 43 m 0,0,1
 86 75 86 75 109.5 97.5 c 128,-1,2
 133 120 133 120 161 122 c 0,3,4
 170 123 170 123 188 121 c 1,5,-1
 198 145 l 1,6,-1
 229 268 l 1,7,-1
 226 268 l 2,8,9
 223 267 223 267 221 267 c 0,10,11
 186 267 186 267 186 297 c 0,12,13
 186 343 186 343 224 343 c 2,14,-1
 248 343 l 1,15,16
 248 344 248 344 256.5 378 c 128,-1,17
 265 412 265 412 274.5 449 c 128,-1,18
 284 486 284 486 287 494 c 0,19,20
 308 555 308 555 348.5 589 c 128,-1,21
 389 623 389 623 435 623 c 0,22,23
 465 623 465 623 488 603 c 128,-1,24
 511 583 511 583 511 532 c 0,25,26
 511 512 511 512 505.5 481 c 128,-1,27
 500 450 500 450 494 439 c 0,28,29
 480 417 480 417 455 417 c 0,30,31
 439 417 439 417 427.5 427 c 128,-1,32
 416 437 416 437 416 454 c 0,33,34
 416 460 416 460 423 490.5 c 128,-1,35
 430 521 430 521 430 541 c 2,36,-1
 430 548 l 1,37,38
 418 546 418 546 408 539 c 128,-1,39
 398 532 398 532 389.5 518.5 c 128,-1,40
 381 505 381 505 375 492.5 c 128,-1,41
 369 480 369 480 363 458.5 c 128,-1,42
 357 437 357 437 353.5 423 c 128,-1,43
 350 409 350 409 343.5 382.5 c 128,-1,44
 337 356 337 356 334 343 c 1,45,-1
 356 343 l 2,46,47
 394 343 394 343 394 314 c 0,48,49
 394 268 394 268 355 268 c 2,50,-1
 314 268 l 1,51,-1
 287 158 l 1,52,-1
 279 129 l 1,53,-1
 266 94 l 1,54,55
 309 75 309 75 331 73 c 1,56,57
 339 89 339 89 344 107 c 128,-1,58
 349 125 349 125 351 133 c 128,-1,59
 353 141 353 141 363.5 146.5 c 128,-1,60
 374 152 374 152 397 152 c 0,61,62
 431 152 431 152 431 124 c 0,63,64
 431 92 431 92 399.5 44 c 128,-1,65
 368 -4 368 -4 318 -4 c 0,66,67
 289 -4 289 -4 252.5 10.5 c 128,-1,68
 216 25 216 25 215 25 c 0,69,70
 212 25 212 25 201 17.5 c 128,-1,71
 190 10 190 10 171.5 3 c 128,-1,72
 153 -4 153 -4 132 -4 c 128,-1,73
 111 -4 111 -4 98.5 9 c 128,-1,74
 86 22 86 22 86 43 c 0,0,1
EndSplineSet
EndChar

StartChar: currency
Encoding: 164 164 102
Width: 525
GlyphClass: 2
Flags: W
ItalicCorrection: 173
LayerCount: 2
Fore
SplineSet
-68 -3 m 0,0,1
 -68 1 -68 1 -67.5 4 c 128,-1,2
 -67 7 -67 7 -66 10 c 128,-1,3
 -65 13 -65 13 -62.5 16.5 c 128,-1,4
 -60 20 -60 20 -57.5 23.5 c 128,-1,5
 -55 27 -55 27 -49 32 c 128,-1,6
 -43 37 -43 37 -37.5 41.5 c 128,-1,7
 -32 46 -32 46 -21.5 54 c 128,-1,8
 -11 62 -11 62 -1.5 70 c 128,-1,9
 8 78 8 78 24 90.5 c 128,-1,10
 40 103 40 103 55 115 c 1,11,12
 35 162 35 162 35 213 c 0,13,14
 35 269 35 269 59 339 c 128,-1,15
 83 409 83 409 143 472 c 1,16,17
 139 476 139 476 89 543 c 0,18,19
 77 558 77 558 77 575 c 0,20,21
 77 593 77 593 89.5 604.5 c 128,-1,22
 102 616 102 616 118 616 c 128,-1,23
 134 616 134 616 146.5 604 c 128,-1,24
 159 592 159 592 188 552 c 0,25,26
 200 534 200 534 208 524 c 1,27,-1
 209 524 l 1,28,29
 290 576 290 576 397 576 c 0,30,31
 502 576 502 576 564 522 c 1,32,33
 655 596 655 596 669 606 c 128,-1,34
 683 616 683 616 696 616 c 0,35,36
 712 616 712 616 724.5 604 c 128,-1,37
 737 592 737 592 737 575 c 0,38,39
 737 559 737 559 727 548.5 c 128,-1,40
 717 538 717 538 660 493 c 0,41,42
 632 470 632 470 614 456 c 1,43,44
 634 409 634 409 634 359 c 0,45,46
 634 302 634 302 610.5 232.5 c 128,-1,47
 587 163 587 163 526 100 c 1,48,49
 593 18 593 18 593 -3 c 0,50,51
 593 -21 593 -21 580.5 -32.5 c 128,-1,52
 568 -44 568 -44 551 -44 c 0,53,54
 535 -44 535 -44 522.5 -32 c 128,-1,55
 510 -20 510 -20 481 20 c 0,56,57
 469 38 469 38 461 48 c 1,58,-1
 460 48 l 1,59,60
 379 -4 379 -4 272 -4 c 0,61,62
 166 -4 166 -4 105 49 c 1,63,64
 17 -22 17 -22 1.5 -33 c 128,-1,65
 -14 -44 -14 -44 -27 -44 c 0,66,67
 -43 -44 -43 -44 -55.5 -32 c 128,-1,68
 -68 -20 -68 -20 -68 -3 c 0,0,1
119 213 m 0,69,70
 119 140 119 140 163.5 109.5 c 128,-1,71
 208 79 208 79 272 79 c 0,72,73
 338 79 338 79 393 105.5 c 128,-1,74
 448 132 448 132 481.5 174 c 128,-1,75
 515 216 515 216 533 264 c 128,-1,76
 551 312 551 312 551 359 c 0,77,78
 551 432 551 432 506.5 462 c 128,-1,79
 462 492 462 492 397 492 c 0,80,81
 331 492 331 492 276 465.5 c 128,-1,82
 221 439 221 439 188 397 c 128,-1,83
 155 355 155 355 137 307 c 128,-1,84
 119 259 119 259 119 213 c 0,69,70
EndSplineSet
EndChar

StartChar: yen
Encoding: 165 165 103
Width: 525
GlyphClass: 2
Flags: W
ItalicCorrection: 173
LayerCount: 2
Fore
SplineSet
90 176 m 0,0,1
 90 214 90 214 137 214 c 2,2,-1
 273 214 l 1,3,-1
 280 245 l 1,4,-1
 275 294 l 1,5,-1
 174 294 l 2,6,7
 148 294 148 294 138.5 306 c 128,-1,8
 129 318 129 318 129 332 c 0,9,10
 129 339 129 339 131.5 346.5 c 128,-1,11
 134 354 134 354 145 362 c 128,-1,12
 156 370 156 370 174 370 c 2,13,-1
 265 370 l 1,14,-1
 245 535 l 1,15,-1
 236 535 l 2,16,17
 198 535 198 535 198 566 c 0,18,19
 198 611 198 611 239 611 c 2,20,-1
 345 611 l 2,21,22
 365 611 365 611 373.5 601.5 c 128,-1,23
 382 592 382 592 382 580 c 0,24,25
 382 535 382 535 340 535 c 2,26,-1
 335 535 l 1,27,-1
 339 500 l 1,28,-1
 343 453 l 1,29,-1
 346 402 l 1,30,-1
 346 370 l 1,31,-1
 362 370 l 1,32,-1
 397 436 l 1,33,-1
 456 535 l 1,34,35
 427 541 427 541 427 567 c 0,36,37
 427 574 427 574 429 582 c 128,-1,38
 431 590 431 590 441.5 600.5 c 128,-1,39
 452 611 452 611 470 611 c 2,40,-1
 574 611 l 2,41,42
 612 611 612 611 612 580 c 0,43,44
 612 553 612 553 598.5 544 c 128,-1,45
 585 535 585 535 571 535 c 2,46,-1
 545 535 l 1,47,-1
 442 370 l 1,48,-1
 516 370 l 2,49,50
 534 370 534 370 544.5 362 c 128,-1,51
 555 354 555 354 557 346.5 c 128,-1,52
 559 339 559 339 559 332 c 0,53,54
 559 324 559 324 556.5 317 c 128,-1,55
 554 310 554 310 543 302 c 128,-1,56
 532 294 532 294 513 294 c 2,57,-1
 410 294 l 2,58,59
 398 294 398 294 394 290 c 128,-1,60
 390 286 390 286 372 257 c 0,61,62
 365 246 365 246 357 214 c 1,63,-1
 474 214 l 2,64,65
 521 214 521 214 521 176 c 128,-1,66
 521 138 521 138 473 138 c 2,67,-1
 338 138 l 1,68,-1
 322 75 l 1,69,-1
 331 75 l 2,70,71
 369 75 369 75 369 41 c 0,72,73
 369 33 369 33 366.5 25 c 128,-1,74
 364 17 364 17 354 8.5 c 128,-1,75
 344 0 344 0 328 0 c 2,76,-1
 210 0 l 2,77,78
 173 0 173 0 173 31 c 0,79,80
 174 51 174 51 182.5 61.5 c 128,-1,81
 191 72 191 72 197.5 73.5 c 128,-1,82
 204 75 204 75 214 75 c 2,83,-1
 238 75 l 1,84,-1
 239 76 l 1,85,-1
 254 138 l 1,86,-1
 137 138 l 2,87,88
 110 138 110 138 100 150 c 128,-1,89
 90 162 90 162 90 176 c 0,0,1
EndSplineSet
EndChar

StartChar: brokenbar
Encoding: 166 166 104
Width: 525
GlyphClass: 2
Flags: W
ItalicCorrection: 173
LayerCount: 2
Fore
SplineSet
210 -42 m 0,0,1
 210 -32 210 -32 213 -23 c 2,2,-1
 275 224 l 2,3,4
 284 269 284 269 319 269 c 0,5,6
 335 269 335 269 347.5 257.5 c 128,-1,7
 360 246 360 246 360 228 c 0,8,9
 360 217 360 217 357 208 c 2,10,-1
 295 -41 l 2,11,12
 282 -82 282 -82 252 -83 c 0,13,14
 235 -83 235 -83 222.5 -71 c 128,-1,15
 210 -59 210 -59 210 -42 c 0,0,1
317 383 m 0,16,17
 317 393 317 393 320 402 c 2,18,-1
 381 649 l 2,19,20
 390 694 390 694 425 694 c 0,21,22
 441 694 441 694 454 682 c 128,-1,23
 467 670 467 670 467 652 c 0,24,25
 467 643 467 643 464 634 c 2,26,-1
 401 384 l 1,27,-1
 400 381 l 2,28,29
 399 378 399 378 398.5 376 c 128,-1,30
 398 374 398 374 396.5 370 c 128,-1,31
 395 366 395 366 393.5 363.5 c 128,-1,32
 392 361 392 361 389.5 357.5 c 128,-1,33
 387 354 387 354 384 351.5 c 128,-1,34
 381 349 381 349 377.5 346.5 c 128,-1,35
 374 344 374 344 369 343 c 128,-1,36
 364 342 364 342 358 342 c 0,37,38
 342 342 342 342 329.5 354 c 128,-1,39
 317 366 317 366 317 383 c 0,16,17
EndSplineSet
EndChar

StartChar: section
Encoding: 167 167 105
Width: 525
GlyphClass: 2
Flags: W
ItalicCorrection: 173
LayerCount: 2
Fore
SplineSet
98 -117 m 0,0,1
 98 -81 98 -81 112.5 -66 c 128,-1,2
 127 -51 127 -51 146 -51 c 0,3,4
 163 -51 163 -51 174 -62.5 c 128,-1,5
 185 -74 185 -74 185 -89 c 0,6,7
 183 -98 183 -98 183 -109 c 0,8,9
 183 -151 183 -151 219 -151 c 0,10,11
 262 -151 262 -151 301.5 -117 c 128,-1,12
 341 -83 341 -83 341 -46 c 0,13,14
 341 -6 341 -6 256 30 c 0,15,16
 221 45 221 45 188.5 80 c 128,-1,17
 156 115 156 115 156 169 c 0,18,19
 156 216 156 216 184.5 261.5 c 128,-1,20
 213 307 213 307 255 332 c 1,21,22
 220 379 220 379 220 424 c 0,23,24
 220 496 220 496 278 555.5 c 128,-1,25
 336 615 336 615 408 615 c 0,26,27
 456 615 456 615 489.5 584.5 c 128,-1,28
 523 554 523 554 523 506 c 0,29,30
 523 469 523 469 508.5 454.5 c 128,-1,31
 494 440 494 440 475 440 c 0,32,33
 459 440 459 440 447.5 450.5 c 128,-1,34
 436 461 436 461 436 478 c 0,35,36
 436 482 436 482 437.5 490.5 c 128,-1,37
 439 499 439 499 439 504 c 0,38,39
 439 539 439 539 402 539 c 0,40,41
 359 539 359 539 319.5 505.5 c 128,-1,42
 280 472 280 472 280 434 c 0,43,44
 280 415 280 415 295.5 399 c 128,-1,45
 311 383 311 383 326 375.5 c 128,-1,46
 341 368 341 368 367 357 c 0,47,48
 406 340 406 340 435.5 304.5 c 128,-1,49
 465 269 465 269 465 219 c 0,50,51
 465 124 465 124 366 55 c 1,52,53
 401 15 401 15 401 -36 c 0,54,55
 401 -107 401 -107 344 -166.5 c 128,-1,56
 287 -226 287 -226 213 -226 c 0,57,58
 165 -226 165 -226 131.5 -195.5 c 128,-1,59
 98 -165 98 -165 98 -117 c 0,0,1
216 179 m 0,60,61
 216 151 216 151 249.5 128.5 c 128,-1,62
 283 106 283 106 298 106 c 0,63,64
 328 106 328 106 366.5 138.5 c 128,-1,65
 405 171 405 171 405 210 c 0,66,67
 405 238 405 238 372 260 c 128,-1,68
 339 282 339 282 323 282 c 0,69,70
 294 282 294 282 255 250 c 128,-1,71
 216 218 216 218 216 179 c 0,60,61
EndSplineSet
EndChar

StartChar: dieresis
Encoding: 168 168 106
Width: 525
GlyphClass: 2
Flags: W
ItalicCorrection: 173
LayerCount: 2
Fore
SplineSet
237 544 m 0,0,1
 237 572 237 572 258.5 591.5 c 128,-1,2
 280 611 280 611 305 611 c 0,3,4
 328 611 328 611 343.5 596.5 c 128,-1,5
 359 582 359 582 359 558 c 0,6,7
 359 531 359 531 338 511 c 128,-1,8
 317 491 317 491 291 491 c 0,9,10
 269 491 269 491 253 506 c 128,-1,11
 237 521 237 521 237 544 c 0,0,1
441 544 m 0,12,13
 441 571 441 571 462 591 c 128,-1,14
 483 611 483 611 509 611 c 0,15,16
 531 611 531 611 547 596 c 128,-1,17
 563 581 563 581 563 558 c 0,18,19
 563 530 563 530 541.5 510.5 c 128,-1,20
 520 491 520 491 495 491 c 0,21,22
 472 491 472 491 456.5 505.5 c 128,-1,23
 441 520 441 520 441 544 c 0,12,13
EndSplineSet
EndChar

StartChar: copyright
Encoding: 169 169 107
Width: 525
GlyphClass: 2
Flags: W
ItalicCorrection: 173
LayerCount: 2
Fore
SplineSet
10 41 m 0,0,1
 10 126 10 126 35 230.5 c 128,-1,2
 60 335 60 335 94 412 c 0,3,4
 151 542 151 542 240.5 622 c 128,-1,5
 330 702 330 702 428 702 c 0,6,7
 465 702 465 702 499 688 c 128,-1,8
 533 674 533 674 564 644.5 c 128,-1,9
 595 615 595 615 614 559 c 128,-1,10
 633 503 633 503 633 428 c 0,11,12
 633 344 633 344 608 240 c 128,-1,13
 583 136 583 136 549 60 c 0,14,15
 487 -82 487 -82 396.5 -156 c 128,-1,16
 306 -230 306 -230 215 -230 c 0,17,18
 132 -230 132 -230 71 -164 c 128,-1,19
 10 -98 10 -98 10 41 c 0,0,1
93 44 m 0,20,21
 93 -5 93 -5 102.5 -45 c 128,-1,22
 112 -85 112 -85 141 -116 c 128,-1,23
 170 -147 170 -147 216 -147 c 0,24,25
 238 -147 238 -147 263.5 -139 c 128,-1,26
 289 -131 289 -131 326 -105 c 128,-1,27
 363 -79 363 -79 396.5 -38.5 c 128,-1,28
 430 2 430 2 464 74.5 c 128,-1,29
 498 147 498 147 522 241 c 0,30,31
 550 357 550 357 550 431 c 0,32,33
 550 465 550 465 544.5 496 c 128,-1,34
 539 527 539 527 526 556 c 128,-1,35
 513 585 513 585 488 602 c 128,-1,36
 463 619 463 619 428 619 c 0,37,38
 406 619 406 619 380 611 c 128,-1,39
 354 603 354 603 317.5 577 c 128,-1,40
 281 551 281 551 247.5 511 c 128,-1,41
 214 471 214 471 179.5 398.5 c 128,-1,42
 145 326 145 326 121 232 c 0,43,44
 93 116 93 116 93 44 c 0,20,21
147 132 m 0,45,46
 147 193 147 193 170 261 c 128,-1,47
 193 329 193 329 243.5 382.5 c 128,-1,48
 294 436 294 436 358 436 c 0,49,50
 394 436 394 436 420 417 c 0,51,52
 423 419 423 419 428.5 424 c 128,-1,53
 434 429 434 429 436.5 430.5 c 128,-1,54
 439 432 439 432 444.5 434 c 128,-1,55
 450 436 450 436 456 436 c 2,56,-1
 457 436 l 2,57,58
 474 436 474 436 482 426.5 c 128,-1,59
 490 417 490 417 490 407 c 0,60,61
 490 399 490 399 476.5 347 c 128,-1,62
 463 295 463 295 461 291 c 0,63,64
 453 273 453 273 426 273 c 2,65,-1
 418 273 l 2,66,67
 381 273 381 273 381 305 c 0,68,69
 381 308 381 308 381.5 316 c 128,-1,70
 382 324 382 324 382 327 c 0,71,72
 382 360 382 360 363 360 c 0,73,74
 315 360 315 360 273.5 287 c 128,-1,75
 232 214 232 214 232 140 c 0,76,77
 232 67 232 67 279 67 c 0,78,79
 295 67 295 67 310 82 c 128,-1,80
 325 97 325 97 333 118 c 0,81,82
 341 140 341 140 352 145 c 0,83,84
 361 149 361 149 377 149 c 0,85,86
 417 149 417 149 417 118 c 0,87,88
 417 109 417 109 415 104 c 0,89,90
 400 55 400 55 355.5 23.5 c 128,-1,91
 311 -8 311 -8 263 -8 c 0,92,93
 217 -8 217 -8 182 25.5 c 128,-1,94
 147 59 147 59 147 132 c 0,45,46
EndSplineSet
EndChar

StartChar: ordfeminine
Encoding: 170 170 108
Width: 525
GlyphClass: 2
Flags: W
ItalicCorrection: 173
LayerCount: 2
Fore
SplineSet
28 226 m 0,0,1
 28 241 28 241 38 251 c 128,-1,2
 48 261 48 261 62 263 c 0,3,4
 69 264 69 264 84 264 c 2,5,-1
 416 264 l 2,6,7
 435 264 435 264 446 256 c 128,-1,8
 457 248 457 248 459.5 240.5 c 128,-1,9
 462 233 462 233 462 226 c 128,-1,10
 462 219 462 219 459.5 211.5 c 128,-1,11
 457 204 457 204 446 196 c 128,-1,12
 435 188 435 188 416 188 c 2,13,-1
 72 188 l 2,14,15
 54 188 54 188 43.5 196 c 128,-1,16
 33 204 33 204 30.5 211.5 c 128,-1,17
 28 219 28 219 28 226 c 0,0,1
118 469 m 0,18,19
 118 552 118 552 172.5 625 c 128,-1,20
 227 698 227 698 315 698 c 0,21,22
 359 698 359 698 391 675 c 1,23,24
 406 687 406 687 422 687 c 128,-1,25
 438 687 438 687 449.5 676.5 c 128,-1,26
 461 666 461 666 461 649 c 0,27,28
 461 640 461 640 437 545.5 c 128,-1,29
 413 451 413 451 413 443 c 0,30,31
 413 432 413 432 419.5 425.5 c 128,-1,32
 426 419 426 419 435 419 c 0,33,34
 457 419 457 419 474 485 c 0,35,36
 480 510 480 510 487.5 517 c 128,-1,37
 495 524 495 524 517 524 c 2,38,-1
 519 524 l 2,39,40
 560 524 560 524 560 495 c 0,41,42
 560 488 560 488 553 466 c 128,-1,43
 546 444 546 444 532.5 415 c 128,-1,44
 519 386 519 386 492 364.5 c 128,-1,45
 465 343 465 343 432 343 c 0,46,47
 379 343 379 343 348 381 c 1,48,-1
 347 381 l 1,49,50
 300 343 300 343 240 343 c 0,51,52
 185 343 185 343 151.5 377.5 c 128,-1,53
 118 412 118 412 118 469 c 0,18,19
202 472 m 0,54,55
 202 419 202 419 245 419 c 0,56,57
 292 419 292 419 322.5 469 c 128,-1,58
 353 519 353 519 353 570 c 0,59,60
 353 623 353 623 310 623 c 0,61,62
 262 623 262 623 232 572 c 128,-1,63
 202 521 202 521 202 472 c 0,54,55
EndSplineSet
EndChar

StartChar: guillemotleft
Encoding: 171 171 109
Width: 525
GlyphClass: 2
Flags: W
ItalicCorrection: 173
LayerCount: 2
Fore
SplineSet
100 214 m 0,0,1
 100 226 100 226 117 243 c 0,2,3
 161 284 161 284 221 340 c 0,4,5
 290 405 290 405 304 416 c 128,-1,6
 318 427 318 427 333 427 c 0,7,8
 334 427 334 427 335 427 c 2,9,-1
 336 427 l 2,10,11
 373 427 373 427 373 398 c 0,12,13
 373 388 373 388 359.5 374 c 128,-1,14
 346 360 346 360 284 302 c 0,15,16
 225 248 225 248 182 208 c 1,17,18
 191 195 191 195 272 53 c 0,19,20
 280 40 280 40 280 27 c 0,21,22
 280 0 280 0 245 0 c 2,23,-1
 242 0 l 2,24,25
 227 0 227 0 219.5 5 c 128,-1,26
 212 10 212 10 203 25 c 0,27,28
 124 162 124 162 112 184 c 128,-1,29
 100 206 100 206 100 214 c 0,0,1
242 214 m 0,30,31
 242 227 242 227 259 243 c 0,32,33
 303 284 303 284 363 340 c 0,34,35
 432 405 432 405 446 416 c 128,-1,36
 460 427 460 427 475 427 c 0,37,38
 476 427 476 427 477 427 c 2,39,-1
 479 427 l 2,40,41
 515 427 515 427 515 398 c 0,42,43
 515 388 515 388 503.5 376 c 128,-1,44
 492 364 492 364 414 291 c 0,45,46
 361 242 361 242 325 208 c 0,47,48
 327 205 327 205 414 53 c 0,49,50
 422 40 422 40 422 27 c 0,51,52
 422 0 422 0 387 0 c 2,53,-1
 384 0 l 2,54,55
 370 0 370 0 362.5 4.5 c 128,-1,56
 355 9 355 9 346 25 c 0,57,58
 244 207 244 207 242 214 c 0,30,31
EndSplineSet
Substitution2: "'locl' Localized Forms in Latin lookup 10 subtable" guillemotleft.lat
AlternateSubs2: "'salt' Stylistic Alternatives in Latin lookup 7 subtable" guillemotleft.lat
Substitution2: "'locl' Localized Forms in Greek lookup 2 subtable" guillemotleft.gr
AlternateSubs2: "'salt' Stylistic Alternatives in Greek lookup 1 subtable" guillemotleft.gr
EndChar

StartChar: logicalnot
Encoding: 172 172 110
Width: 525
GlyphClass: 2
Flags: W
ItalicCorrection: 173
LayerCount: 2
Fore
SplineSet
161 329 m 0,0,1
 161 338 161 338 163.5 346 c 128,-1,2
 166 354 166 354 178 362.5 c 128,-1,3
 190 371 190 371 211 371 c 2,4,-1
 480 371 l 2,5,6
 507 371 507 371 517.5 357.5 c 128,-1,7
 528 344 528 344 528 329 c 0,8,9
 528 324 528 324 525.5 314.5 c 128,-1,10
 523 305 523 305 523 304 c 2,11,-1
 462 57 l 1,12,-1
 461 53 l 2,13,14
 460 49 460 49 459.5 46.5 c 128,-1,15
 459 44 459 44 457 39.5 c 128,-1,16
 455 35 455 35 453 31.5 c 128,-1,17
 451 28 451 28 447 24 c 128,-1,18
 443 20 443 20 439 17.5 c 128,-1,19
 435 15 435 15 429.5 13 c 128,-1,20
 424 11 424 11 417 11 c 0,21,22
 400 11 400 11 388 24 c 128,-1,23
 376 37 376 37 376 53 c 0,24,25
 376 60 376 60 384.5 94 c 128,-1,26
 393 128 393 128 408 187 c 128,-1,27
 423 246 423 246 433 288 c 1,28,-1
 213 288 l 1,29,-1
 211 288 l 2,30,31
 209 287 209 287 207 287 c 0,32,33
 182 287 182 287 171.5 300.5 c 128,-1,34
 161 314 161 314 161 329 c 0,0,1
EndSplineSet
EndChar

StartChar: uni00AD
Encoding: 173 173 111
Width: 525
GlyphClass: 2
Flags: W
ItalicCorrection: 173
LayerCount: 2
Fore
SplineSet
242 215 m 0,0,1
 242 221 242 221 243.5 229.5 c 128,-1,2
 245 238 245 238 255 249 c 128,-1,3
 265 260 265 260 282 260 c 2,4,-1
 354 260 l 2,5,6
 376 260 376 260 384 249.5 c 128,-1,7
 392 239 392 239 392 229 c 0,8,9
 392 222 392 222 390.5 214 c 128,-1,10
 389 206 389 206 379.5 195.5 c 128,-1,11
 370 185 370 185 354 185 c 2,12,-1
 281 185 l 2,13,14
 258 185 258 185 250 195 c 128,-1,15
 242 205 242 205 242 215 c 0,0,1
EndSplineSet
EndChar

StartChar: registered
Encoding: 174 174 112
Width: 525
GlyphClass: 2
Flags: W
ItalicCorrection: 173
LayerCount: 2
Fore
SplineSet
10 41 m 0,0,1
 10 126 10 126 35 230.5 c 128,-1,2
 60 335 60 335 94 412 c 0,3,4
 151 542 151 542 240.5 622 c 128,-1,5
 330 702 330 702 428 702 c 0,6,7
 465 702 465 702 499 688 c 128,-1,8
 533 674 533 674 564 644.5 c 128,-1,9
 595 615 595 615 614 559 c 128,-1,10
 633 503 633 503 633 428 c 0,11,12
 633 344 633 344 608 240 c 128,-1,13
 583 136 583 136 549 60 c 0,14,15
 487 -82 487 -82 396.5 -156 c 128,-1,16
 306 -230 306 -230 215 -230 c 0,17,18
 132 -230 132 -230 71 -164 c 128,-1,19
 10 -98 10 -98 10 41 c 0,0,1
93 50 m 0,20,21
 93 47 93 47 93.5 43 c 128,-1,22
 94 39 94 39 94 37 c 1,23,24
 99 60 99 60 108 67.5 c 128,-1,25
 117 75 117 75 135 75 c 2,26,-1
 154 75 l 1,27,-1
 223 352 l 1,28,29
 212 352 212 352 206 353 c 0,30,31
 181 359 181 359 181 384 c 0,32,33
 181 414 181 414 205 425 c 0,34,35
 214 428 214 428 225 428 c 2,36,-1
 346 428 l 2,37,38
 411 428 411 428 435.5 400.5 c 128,-1,39
 460 373 460 373 460 337 c 0,40,41
 460 299 460 299 440 262.5 c 128,-1,42
 420 226 420 226 387 204 c 1,43,44
 397 184 397 184 397 160 c 0,45,46
 397 146 397 146 388 110 c 1,47,48
 401 122 401 122 423 122 c 0,49,50
 466 122 466 122 466 92 c 0,51,52
 466 86 466 86 461 69 c 1,53,54
 510 178 510 178 530 273.5 c 128,-1,55
 550 369 550 369 550 428 c 0,56,57
 550 463 550 463 544.5 494.5 c 128,-1,58
 539 526 539 526 526 555.5 c 128,-1,59
 513 585 513 585 488 602 c 128,-1,60
 463 619 463 619 428 619 c 0,61,62
 388 619 388 619 335.5 590.5 c 128,-1,63
 283 562 283 562 231 487 c 0,64,65
 165 393 165 393 129 261.5 c 128,-1,66
 93 130 93 130 93 50 c 0,20,21
94 23 m 1,67,68
 105 -147 105 -147 215 -147 c 0,69,70
 234 -147 234 -147 257 -140 c 128,-1,71
 280 -133 280 -133 310 -116.5 c 128,-1,72
 340 -100 340 -100 373 -64 c 128,-1,73
 406 -28 406 -28 436 22 c 1,74,75
 424 10 424 10 417.5 5 c 128,-1,76
 411 0 411 0 400 -4 c 128,-1,77
 389 -8 389 -8 375 -8 c 0,78,79
 340 -8 340 -8 318 14 c 128,-1,80
 296 36 296 36 296 69 c 0,81,82
 296 84 296 84 304 116.5 c 128,-1,83
 312 149 312 149 312 159 c 0,84,85
 312 171 312 171 306 173.5 c 128,-1,86
 300 176 300 176 285 176 c 2,87,-1
 265 176 l 1,88,-1
 240 75 l 1,89,-1
 244 75 l 2,90,91
 281 75 281 75 281 44 c 0,92,93
 281 0 281 0 242 0 c 2,94,-1
 132 0 l 2,95,96
 106 0 106 0 94 23 c 1,67,68
284 252 m 1,97,98
 331 252 331 252 352 270 c 128,-1,99
 373 288 373 288 373 314 c 0,100,101
 373 352 373 352 318 352 c 2,102,-1
 309 352 l 1,103,-1
 284 252 l 1,97,98
EndSplineSet
EndChar

StartChar: macron
Encoding: 175 175 113
Width: 525
GlyphClass: 2
Flags: W
ItalicCorrection: 173
LayerCount: 2
Fore
SplineSet
246 573 m 0,0,1
 246 619 246 619 288 619 c 2,2,-1
 531 619 l 2,3,4
 546 619 546 619 555 612 c 128,-1,5
 564 605 564 605 566 599 c 128,-1,6
 568 593 568 593 568 588 c 0,7,8
 568 581 568 581 566.5 572.5 c 128,-1,9
 565 564 565 564 554.5 553 c 128,-1,10
 544 542 544 542 527 542 c 2,11,-1
 281 542 l 2,12,13
 260 543 260 543 253 553 c 128,-1,14
 246 563 246 563 246 573 c 0,0,1
EndSplineSet
EndChar

StartChar: degree
Encoding: 176 176 114
Width: 525
GlyphClass: 2
Flags: W
ItalicCorrection: 173
LayerCount: 2
Fore
SplineSet
254 460 m 0,0,1
 254 518 254 518 296 564.5 c 128,-1,2
 338 611 338 611 404 611 c 0,3,4
 452 611 452 611 482.5 583.5 c 128,-1,5
 513 556 513 556 513 510 c 0,6,7
 513 452 513 452 470.5 405.5 c 128,-1,8
 428 359 428 359 362 359 c 0,9,10
 315 359 315 359 284.5 386.5 c 128,-1,11
 254 414 254 414 254 460 c 0,0,1
338 463 m 128,-1,13
 338 442 338 442 363 442 c 0,14,15
 389 442 389 442 409 461.5 c 128,-1,16
 429 481 429 481 429 509 c 0,17,18
 429 527 429 527 406 527 c 0,19,20
 374 527 374 527 356 505.5 c 128,-1,12
 338 484 338 484 338 463 c 128,-1,13
EndSplineSet
EndChar

StartChar: plusminus
Encoding: 177 177 115
Width: 525
GlyphClass: 2
Flags: W
ItalicCorrection: 173
LayerCount: 2
Fore
SplineSet
116 169 m 128,-1,1
 116 178 116 178 118.5 186 c 128,-1,2
 121 194 121 194 133 202.5 c 128,-1,3
 145 211 145 211 165 211 c 2,4,-1
 272 211 l 1,5,-1
 297 311 l 1,6,-1
 210 311 l 2,7,8
 182 311 182 311 171.5 324.5 c 128,-1,9
 161 338 161 338 161 352 c 0,10,11
 161 360 161 360 163.5 368 c 128,-1,12
 166 376 166 376 178.5 385 c 128,-1,13
 191 394 191 394 211 394 c 2,14,-1
 318 394 l 1,15,16
 325 429 325 429 353 538 c 0,17,18
 361 577 361 577 397 577 c 0,19,20
 413 577 413 577 425 564.5 c 128,-1,21
 437 552 437 552 437 536 c 0,22,23
 437 529 437 529 403 394 c 1,24,-1
 490 394 l 2,25,26
 518 394 518 394 528.5 380.5 c 128,-1,27
 539 367 539 367 539 353 c 0,28,29
 539 345 539 345 536.5 337 c 128,-1,30
 534 329 534 329 521.5 320 c 128,-1,31
 509 311 509 311 489 311 c 2,32,-1
 383 311 l 1,33,-1
 358 211 l 1,34,-1
 444 211 l 2,35,36
 464 211 464 211 476 202 c 128,-1,37
 488 193 488 193 490.5 185 c 128,-1,38
 493 177 493 177 493 169 c 128,-1,39
 493 161 493 161 490 153 c 128,-1,40
 487 145 487 145 475 136 c 128,-1,41
 463 127 463 127 443 127 c 2,42,-1
 166 127 l 2,43,44
 145 127 145 127 133 135.5 c 128,-1,45
 121 144 121 144 118.5 152 c 128,-1,0
 116 160 116 160 116 169 c 128,-1,1
EndSplineSet
EndChar

StartChar: twosuperior
Encoding: 178 178 116
Width: 525
GlyphClass: 2
Flags: W
ItalicCorrection: 173
LayerCount: 2
Fore
SplineSet
166 330 m 0,0,1
 166 361 166 361 203 410 c 128,-1,2
 240 459 240 459 308 488 c 0,3,4
 320 493 320 493 347 501.5 c 128,-1,5
 374 510 374 510 395.5 517.5 c 128,-1,6
 417 525 417 525 439.5 535 c 128,-1,7
 462 545 462 545 474.5 557 c 128,-1,8
 487 569 487 569 487 582 c 0,9,10
 487 627 487 627 387 627 c 0,11,12
 351 627 351 627 329.5 622.5 c 128,-1,13
 308 618 308 618 302.5 615.5 c 128,-1,14
 297 613 297 613 291 602 c 2,15,-1
 285 591 l 2,16,17
 276 579 276 579 257 579 c 2,18,-1
 250 579 l 2,19,20
 246 578 246 578 242 578 c 0,21,22
 226 578 226 578 217 586 c 128,-1,23
 208 594 208 594 208 608 c 0,24,25
 208 632 208 632 231.5 658 c 128,-1,26
 255 684 255 684 305 695 c 0,27,28
 338 702 338 702 396 702 c 0,29,30
 495 702 495 702 533 666.5 c 128,-1,31
 571 631 571 631 571 584 c 0,32,33
 571 549 571 549 553 522.5 c 128,-1,34
 535 496 535 496 504 479 c 128,-1,35
 473 462 473 462 442.5 450.5 c 128,-1,36
 412 439 412 439 375.5 426.5 c 128,-1,37
 339 414 339 414 321 405 c 1,38,39
 336 402 336 402 360.5 395.5 c 128,-1,40
 385 389 385 389 400.5 386.5 c 128,-1,41
 416 384 416 384 433 384 c 0,42,43
 493 384 493 384 514 415 c 0,44,45
 517 419 517 419 520 426.5 c 128,-1,46
 523 434 523 434 525.5 437.5 c 128,-1,47
 528 441 528 441 536 444 c 128,-1,48
 544 447 544 447 559 447 c 2,49,-1
 561 447 l 2,50,51
 601 447 601 447 601 417 c 0,52,53
 601 381 601 381 552.5 341 c 128,-1,54
 504 301 504 301 429 301 c 0,55,56
 397 301 397 301 343 317.5 c 128,-1,57
 289 334 289 334 274 334 c 0,58,59
 255 334 255 334 245.5 317.5 c 128,-1,60
 236 301 236 301 210 301 c 2,61,-1
 203 301 l 2,62,63
 166 301 166 301 166 330 c 0,0,1
EndSplineSet
EndChar

StartChar: threesuperior
Encoding: 179 179 117
Width: 525
GlyphClass: 2
Flags: W
ItalicCorrection: 173
LayerCount: 2
Fore
SplineSet
192 422 m 0,0,1
 192 495 192 495 241 495 c 0,2,3
 257 495 257 495 268.5 484.5 c 128,-1,4
 280 474 280 474 280 457 c 0,5,6
 280 451 280 451 278 441.5 c 128,-1,7
 276 432 276 432 276 424 c 0,8,9
 276 372 276 372 331 372 c 0,10,11
 370 372 370 372 409 384 c 128,-1,12
 448 396 448 396 448 427 c 0,13,14
 448 470 448 470 381 470 c 2,15,-1
 337 470 l 2,16,17
 303 470 303 470 303 501 c 0,18,19
 303 545 303 545 345 545 c 2,20,-1
 389 545 l 2,21,22
 427 545 427 545 451.5 555.5 c 128,-1,23
 476 566 476 566 483.5 577.5 c 128,-1,24
 491 589 491 589 491 599 c 0,25,26
 491 627 491 627 420 627 c 0,27,28
 394 627 394 627 377.5 626 c 128,-1,29
 361 625 361 625 352 621.5 c 128,-1,30
 343 618 343 618 340 616 c 128,-1,31
 337 614 337 614 333.5 607.5 c 128,-1,32
 330 601 330 601 328 599 c 0,33,34
 319 587 319 587 300 587 c 2,35,-1
 288 587 l 2,36,37
 251 587 251 587 251 616 c 0,38,39
 251 636 251 636 266 655 c 0,40,41
 301 703 301 703 425 703 c 0,42,43
 510 703 510 703 543 672.5 c 128,-1,44
 576 642 576 642 576 602 c 0,45,46
 576 538 576 538 510 499 c 1,47,48
 532 470 532 470 532 430 c 0,49,50
 532 392 532 392 512.5 364.5 c 128,-1,51
 493 337 493 337 460 323 c 128,-1,52
 427 309 427 309 392.5 303 c 128,-1,53
 358 297 358 297 321 297 c 0,54,55
 258 297 258 297 225 334 c 128,-1,56
 192 371 192 371 192 422 c 0,0,1
EndSplineSet
EndChar

StartChar: acute
Encoding: 180 180 118
Width: 525
GlyphClass: 2
Flags: W
ItalicCorrection: 173
LayerCount: 2
Fore
SplineSet
348 575 m 0,0,1
 348 602 348 602 379 610 c 0,2,3
 488 641 488 641 499 641 c 0,4,5
 516 641 516 641 526.5 629 c 128,-1,6
 537 617 537 617 537 602 c 0,7,8
 537 595 537 595 536 589.5 c 128,-1,9
 535 584 535 584 531.5 579 c 128,-1,10
 528 574 528 574 524 570.5 c 128,-1,11
 520 567 520 567 512.5 563.5 c 128,-1,12
 505 560 505 560 498.5 557.5 c 128,-1,13
 492 555 492 555 479.5 551.5 c 128,-1,14
 467 548 467 548 457 545.5 c 128,-1,15
 447 543 447 543 429 538 c 128,-1,16
 411 533 411 533 397 529 c 0,17,18
 382 526 382 526 380 526 c 0,19,20
 348 526 348 526 348 575 c 0,0,1
EndSplineSet
EndChar

StartChar: uni00B5
Encoding: 181 181 119
Width: 525
GlyphClass: 2
Flags: W
ItalicCorrection: 173
LayerCount: 2
Fore
SplineSet
25 -192 m 0,0,1
 25 -183 25 -183 29 -169 c 2,2,-1
 173 406 l 2,3,4
 184 448 184 448 219 448 c 0,5,6
 235 448 235 448 246.5 437 c 128,-1,7
 258 426 258 426 258 409 c 0,8,9
 258 400 258 400 226 276 c 128,-1,10
 194 152 194 152 194 125 c 0,11,12
 194 71 194 71 246 71 c 0,13,14
 288 71 288 71 321.5 119 c 128,-1,15
 355 167 355 167 371 223.5 c 128,-1,16
 387 280 387 280 402 342.5 c 128,-1,17
 417 405 417 405 422 417 c 0,18,19
 435 444 435 444 463 444 c 0,20,21
 479 444 479 444 490.5 433 c 128,-1,22
 502 422 502 422 502 406 c 0,23,24
 502 402 502 402 495 369 c 2,25,-1
 431 116 l 2,26,27
 427 102 427 102 427 93 c 0,28,29
 427 73 427 73 441 73 c 0,30,31
 448 73 448 73 453 81 c 0,32,33
 465 100 465 100 470.5 127 c 128,-1,34
 476 154 476 154 484 165.5 c 128,-1,35
 492 177 492 177 518 177 c 0,36,37
 560 177 560 177 560 148 c 0,38,39
 560 144 560 144 556.5 129.5 c 128,-1,40
 553 115 553 115 544.5 92 c 128,-1,41
 536 69 536 69 523 48 c 128,-1,42
 510 27 510 27 487.5 11.5 c 128,-1,43
 465 -4 465 -4 438 -4 c 0,44,45
 382 -4 382 -4 355 42 c 1,46,47
 302 -4 302 -4 241 -4 c 0,48,49
 195 -4 195 -4 161 16 c 1,50,51
 152 -21 152 -21 138 -77 c 0,52,53
 107 -205 107 -205 100 -212 c 2,54,-1
 99 -213 l 2,55,56
 85 -230 85 -230 64 -230 c 0,57,58
 48 -230 48 -230 36.5 -219.5 c 128,-1,59
 25 -209 25 -209 25 -192 c 0,0,1
EndSplineSet
EndChar

StartChar: paragraph
Encoding: 182 182 120
Width: 525
GlyphClass: 2
Flags: W
ItalicCorrection: 173
LayerCount: 2
Fore
SplineSet
80 -180 m 0,0,1
 80 -172 80 -172 82.5 -164 c 128,-1,2
 85 -156 85 -156 97.5 -147.5 c 128,-1,3
 110 -139 110 -139 131 -139 c 2,4,-1
 149 -139 l 1,5,-1
 225 164 l 1,6,7
 163 197 163 197 163 292 c 0,8,9
 163 318 163 318 169 355 c 128,-1,10
 175 392 175 392 190.5 437.5 c 128,-1,11
 206 483 206 483 228.5 521 c 128,-1,12
 251 559 251 559 289.5 585 c 128,-1,13
 328 611 328 611 374 611 c 2,14,-1
 555 611 l 2,15,16
 575 611 575 611 587 602 c 128,-1,17
 599 593 599 593 601.5 585 c 128,-1,18
 604 577 604 577 604 569 c 0,19,20
 604 528 604 528 553 528 c 2,21,-1
 535 528 l 1,22,-1
 369 -139 l 1,23,-1
 371 -139 l 2,24,25
 396 -139 396 -139 406.5 -152.5 c 128,-1,26
 417 -166 417 -166 417 -180 c 0,27,28
 417 -188 417 -188 414 -196.5 c 128,-1,29
 411 -205 411 -205 399 -213.5 c 128,-1,30
 387 -222 387 -222 368 -222 c 2,31,-1
 128 -222 l 2,32,33
 101 -222 101 -222 90.5 -208 c 128,-1,34
 80 -194 80 -194 80 -180 c 0,0,1
235 -139 m 1,35,-1
 283 -139 l 1,36,-1
 449 528 l 1,37,-1
 401 528 l 1,38,-1
 235 -139 l 1,35,-1
EndSplineSet
EndChar

StartChar: periodcentered
Encoding: 183 183 121
Width: 525
GlyphClass: 2
Flags: W
ItalicCorrection: 173
LayerCount: 2
Fore
SplineSet
255 207 m 0,0,1
 255 234 255 234 276.5 254 c 128,-1,2
 298 274 298 274 324 274 c 0,3,4
 346 274 346 274 361.5 259 c 128,-1,5
 377 244 377 244 377 221 c 0,6,7
 377 195 377 195 356.5 174.5 c 128,-1,8
 336 154 336 154 309 154 c 0,9,10
 285 154 285 154 270 169.5 c 128,-1,11
 255 185 255 185 255 207 c 0,0,1
EndSplineSet
EndChar

StartChar: cedilla
Encoding: 184 184 122
Width: 525
GlyphClass: 2
Flags: W
ItalicCorrection: 173
LayerCount: 2
Fore
SplineSet
92 -179 m 0,0,1
 92 -149 92 -149 112 -138 c 0,2,3
 115 -136 115 -136 159.5 -135 c 128,-1,4
 204 -134 204 -134 241.5 -123.5 c 128,-1,5
 279 -113 279 -113 279 -86 c 0,6,7
 279 -75 279 -75 268.5 -70 c 128,-1,8
 258 -65 258 -65 245.5 -64 c 128,-1,9
 233 -63 233 -63 222.5 -56 c 128,-1,10
 212 -49 212 -49 212 -35 c 0,11,12
 212 -25 212 -25 226 31 c 0,13,14
 233 61 233 61 266 61 c 2,15,-1
 273 61 l 2,16,17
 288 61 288 61 297 54.5 c 128,-1,18
 306 48 306 48 308 42.5 c 128,-1,19
 310 37 310 37 310 31 c 0,20,21
 310 30 310 30 304 0 c 1,22,23
 325 -9 325 -9 344 -29.5 c 128,-1,24
 363 -50 363 -50 363 -83 c 0,25,26
 363 -119 363 -119 339 -149.5 c 128,-1,27
 315 -180 315 -180 269 -195 c 0,28,29
 219 -210 219 -210 134 -210 c 2,30,-1
 129 -210 l 2,31,32
 108 -210 108 -210 100 -199.5 c 128,-1,33
 92 -189 92 -189 92 -179 c 0,0,1
EndSplineSet
EndChar

StartChar: onesuperior
Encoding: 185 185 123
Width: 525
GlyphClass: 2
Flags: W
ItalicCorrection: 173
LayerCount: 2
Fore
SplineSet
208 336 m 0,0,1
 208 352 208 352 217 366.5 c 128,-1,2
 226 381 226 381 249 381 c 2,3,-1
 328 381 l 1,4,-1
 374 565 l 1,5,6
 329 546 329 546 292 546 c 0,7,8
 271 546 271 546 263 556 c 128,-1,9
 255 566 255 566 255 577 c 0,10,11
 255 611 255 611 278 619 c 0,12,13
 279 619 279 619 304.5 622 c 128,-1,14
 330 625 330 625 360 638.5 c 128,-1,15
 390 652 390 652 418 681 c 0,16,17
 419 682 419 682 422.5 685.5 c 128,-1,18
 426 689 426 689 427 690 c 128,-1,19
 428 691 428 691 431 693.5 c 128,-1,20
 434 696 434 696 436.5 696.5 c 128,-1,21
 439 697 439 697 442.5 698 c 128,-1,22
 446 699 446 699 450 699 c 2,23,-1
 456 699 l 1,24,-1
 456 700 l 1,25,26
 484 695 484 695 484 669 c 0,27,28
 484 658 484 658 480 644 c 2,29,-1
 414 381 l 1,30,-1
 461 381 l 2,31,32
 501 381 501 381 501 350 c 0,33,34
 501 343 501 343 499.5 334.5 c 128,-1,35
 498 326 498 326 488 315.5 c 128,-1,36
 478 305 478 305 460 305 c 2,37,-1
 246 305 l 2,38,39
 208 305 208 305 208 336 c 0,0,1
EndSplineSet
EndChar

StartChar: ordmasculine
Encoding: 186 186 124
Width: 525
GlyphClass: 2
Flags: W
ItalicCorrection: 173
LayerCount: 2
Fore
SplineSet
28 226 m 0,0,1
 28 241 28 241 38 251 c 128,-1,2
 48 261 48 261 62 263 c 0,3,4
 69 264 69 264 83 264 c 2,5,-1
 378 264 l 2,6,7
 393 264 393 264 400 263 c 0,8,9
 415 262 415 262 424.5 251 c 128,-1,10
 434 240 434 240 434 226 c 0,11,12
 434 219 434 219 432 211.5 c 128,-1,13
 430 204 430 204 419 196 c 128,-1,14
 408 188 408 188 389 188 c 2,15,-1
 71 188 l 2,16,17
 46 189 46 189 37 201 c 128,-1,18
 28 213 28 213 28 226 c 0,0,1
120 477 m 0,19,20
 120 564 120 564 183 631 c 128,-1,21
 246 698 246 698 342 698 c 0,22,23
 408 698 408 698 449 663 c 128,-1,24
 490 628 490 628 490 564 c 0,25,26
 490 480 490 480 428.5 411.5 c 128,-1,27
 367 343 367 343 268 343 c 0,28,29
 201 343 201 343 160.5 378.5 c 128,-1,30
 120 414 120 414 120 477 c 0,19,20
204 481 m 0,31,32
 204 418 204 418 272 418 c 0,33,34
 334 418 334 418 370 464 c 128,-1,35
 406 510 406 510 406 561 c 0,36,37
 406 623 406 623 338 623 c 0,38,39
 277 623 277 623 240.5 577.5 c 128,-1,40
 204 532 204 532 204 481 c 0,31,32
EndSplineSet
EndChar

StartChar: guillemotright
Encoding: 187 187 125
Width: 525
GlyphClass: 2
Flags: W
ItalicCorrection: 173
LayerCount: 2
Fore
SplineSet
115 29 m 0,0,1
 115 43 115 43 135 61 c 0,2,3
 289 205 289 205 306 219 c 1,4,5
 283 259 283 259 251 314 c 0,6,7
 207 390 207 390 207 398 c 0,8,9
 207 427 207 427 243 427 c 2,10,-1
 246 427 l 2,11,12
 262 427 262 427 269.5 422 c 128,-1,13
 277 417 277 417 285 403 c 0,14,15
 364 266 364 266 376 243.5 c 128,-1,16
 388 221 388 221 388 213 c 0,17,18
 388 201 388 201 371 184 c 0,19,20
 327 143 327 143 267 87 c 0,21,22
 198 22 198 22 183.5 11 c 128,-1,23
 169 0 169 0 153 0 c 0,24,25
 115 0 115 0 115 29 c 0,0,1
258 29 m 0,26,27
 258 41 258 41 278 61 c 0,28,29
 441 213 441 213 448 219 c 1,30,31
 353 385 353 385 351 393 c 0,32,33
 350 396 350 396 350 398 c 0,34,35
 350 427 350 427 386 427 c 2,36,-1
 389 427 l 2,37,38
 405 427 405 427 412 422 c 128,-1,39
 419 417 419 417 427 403 c 0,40,41
 529 220 529 220 531 213 c 0,42,43
 531 202 531 202 513 184 c 0,44,45
 465 139 465 139 402 80 c 0,46,47
 338 20 338 20 325 10 c 128,-1,48
 312 0 312 0 296 0 c 2,49,-1
 295 0 l 2,50,51
 258 0 258 0 258 29 c 0,26,27
EndSplineSet
Substitution2: "'locl' Localized Forms in Latin lookup 10 subtable" guillemotright.lat
AlternateSubs2: "'salt' Stylistic Alternatives in Latin lookup 7 subtable" guillemotright.lat
Substitution2: "'locl' Localized Forms in Greek lookup 2 subtable" guillemotright.gr
AlternateSubs2: "'salt' Stylistic Alternatives in Greek lookup 1 subtable" guillemotright.gr
EndChar

StartChar: onequarter
Encoding: 188 188 126
Width: 525
GlyphClass: 2
Flags: W
ItalicCorrection: 173
LayerCount: 2
Fore
SplineSet
66 41 m 0,0,1
 66 61 66 61 82 67 c 128,-1,2
 98 73 98 73 148.5 76 c 128,-1,3
 199 79 199 79 239 86 c 0,4,5
 246 87 246 87 250.5 88 c 128,-1,6
 255 89 255 89 259 90.5 c 128,-1,7
 263 92 263 92 265 92.5 c 128,-1,8
 267 93 267 93 269 94.5 c 128,-1,9
 271 96 271 96 271.5 96.5 c 128,-1,10
 272 97 272 97 274 99.5 c 128,-1,11
 276 102 276 102 277 103 c 0,12,13
 289 119 289 119 311 119 c 0,14,15
 318 119 318 119 322 118 c 1,16,-1
 332 158 l 1,17,-1
 339 184 l 1,18,-1
 345 195 l 1,19,-1
 130 195 l 2,20,21
 111 195 111 195 98.5 206.5 c 128,-1,22
 86 218 86 218 86 236 c 0,23,24
 86 278 86 278 139 278 c 2,25,-1
 505 278 l 2,26,27
 526 278 526 278 538 269 c 128,-1,28
 550 260 550 260 552.5 252 c 128,-1,29
 555 244 555 244 555 236 c 128,-1,30
 555 228 555 228 552.5 220 c 128,-1,31
 550 212 550 212 538.5 203.5 c 128,-1,32
 527 195 527 195 507 195 c 2,33,-1
 416 195 l 1,34,35
 420 186 420 186 420 177 c 0,36,37
 420 166 420 166 388 37 c 1,38,39
 395 37 395 37 405 37 c 128,-1,40
 415 37 415 37 419 36.5 c 128,-1,41
 423 36 423 36 428.5 36 c 128,-1,42
 434 36 434 36 436.5 35 c 128,-1,43
 439 34 439 34 442 33.5 c 128,-1,44
 445 33 445 33 447 30.5 c 128,-1,45
 449 28 449 28 451.5 26 c 128,-1,46
 454 24 454 24 457 20 c 0,47,48
 467 7 467 7 467 -4 c 0,49,50
 467 -26 467 -26 446.5 -32 c 128,-1,51
 426 -38 426 -38 369 -38 c 1,52,53
 369 -39 369 -39 360 -75.5 c 128,-1,54
 351 -112 351 -112 341 -151 c 128,-1,55
 331 -190 331 -190 329 -195 c 0,56,57
 326 -204 326 -204 315 -213 c 128,-1,58
 304 -222 304 -222 288 -222 c 128,-1,59
 272 -222 272 -222 260.5 -211 c 128,-1,60
 249 -200 249 -200 249 -183 c 2,61,-1
 285 -33 l 1,62,63
 203 -29 203 -29 202 -29 c 0,64,65
 171 -29 171 -29 146 -14.5 c 128,-1,66
 121 0 121 0 109 0 c 2,67,-1
 108 0 l 2,68,69
 86 0 86 0 76 15 c 128,-1,70
 66 30 66 30 66 41 c 0,0,1
222 391 m 0,71,72
 222 412 222 412 232.5 423.5 c 128,-1,73
 243 435 243 435 249.5 436 c 128,-1,74
 256 437 256 437 263 437 c 2,75,-1
 342 437 l 1,76,-1
 378 578 l 1,77,78
 340 565 340 565 295 564 c 0,79,80
 275 564 275 564 267 573.5 c 128,-1,81
 259 583 259 583 259 593 c 0,82,83
 259 616 259 616 269 627 c 0,84,85
 276 635 276 635 291.5 638 c 128,-1,86
 307 641 307 641 324.5 641.5 c 128,-1,87
 342 642 342 642 368 652.5 c 128,-1,88
 394 663 394 663 419 684 c 0,89,90
 436 699 436 699 451 699 c 2,91,-1
 456 699 l 1,92,-1
 456 700 l 1,93,94
 484 694 484 694 484 669 c 1,95,-1
 427 437 l 1,96,-1
 475 437 l 2,97,98
 515 437 515 437 515 406 c 0,99,100
 515 361 515 361 472 361 c 2,101,-1
 262 361 l 2,102,103
 223 361 223 361 222 391 c 0,71,72
EndSplineSet
EndChar

StartChar: onehalf
Encoding: 189 189 127
Width: 525
GlyphClass: 2
Flags: W
ItalicCorrection: 173
LayerCount: 2
Fore
SplineSet
33 -201 m 0,0,1
 33 -180 33 -180 55 -149.5 c 128,-1,2
 77 -119 77 -119 125 -95 c 0,3,4
 151 -82 151 -82 209.5 -64.5 c 128,-1,5
 268 -47 268 -47 305 -31 c 128,-1,6
 342 -15 342 -15 342 4 c 0,7,8
 342 19 342 19 321.5 31.5 c 128,-1,9
 301 44 301 44 255 44 c 2,10,-1
 254 44 l 2,11,12
 232 44 232 44 213.5 41 c 128,-1,13
 195 38 195 38 183.5 33.5 c 128,-1,14
 172 29 172 29 163 23.5 c 128,-1,15
 154 18 154 18 149 11.5 c 128,-1,16
 144 5 144 5 141 0.5 c 128,-1,17
 138 -4 138 -4 136 -8 c 2,18,-1
 135 -13 l 1,19,20
 126 -29 126 -29 100 -29 c 2,21,-1
 93 -29 l 2,22,23
 56 -29 56 -29 56 0 c 0,24,25
 56 42 56 42 109.5 80.5 c 128,-1,26
 163 119 163 119 255 119 c 0,27,28
 348 119 348 119 387.5 84.5 c 128,-1,29
 427 50 427 50 427 6 c 0,30,31
 427 -3 427 -3 422 -25 c 1,32,33
 430 -24 430 -24 443 -24 c 0,34,35
 483 -24 483 -24 483 -53 c 0,36,37
 483 -69 483 -69 470 -97 c 128,-1,38
 457 -125 457 -125 434.5 -155.5 c 128,-1,39
 412 -186 412 -186 374 -208 c 128,-1,40
 336 -230 336 -230 293 -230 c 0,41,42
 264 -230 264 -230 213 -218.5 c 128,-1,43
 162 -207 162 -207 138 -207 c 0,44,45
 124 -207 124 -207 114 -210 c 1,46,47
 105 -230 105 -230 77 -230 c 2,48,-1
 71 -230 l 2,49,50
 33 -230 33 -230 33 -201 c 0,0,1
87 236 m 0,51,52
 87 252 87 252 98 264 c 128,-1,53
 109 276 109 276 127 277 c 0,54,55
 135 278 135 278 152 278 c 2,56,-1
 504 278 l 2,57,58
 525 278 525 278 537.5 269.5 c 128,-1,59
 550 261 550 261 553 252.5 c 128,-1,60
 556 244 556 244 556 236 c 0,61,62
 556 218 556 218 543.5 206.5 c 128,-1,63
 531 195 531 195 512 195 c 2,64,-1
 134 195 l 2,65,66
 115 195 115 195 103.5 203.5 c 128,-1,67
 92 212 92 212 89.5 220 c 128,-1,68
 87 228 87 228 87 236 c 0,51,52
223 391 m 0,69,70
 223 412 223 412 233.5 423.5 c 128,-1,71
 244 435 244 435 250.5 436 c 128,-1,72
 257 437 257 437 264 437 c 2,73,-1
 342 437 l 1,74,-1
 378 578 l 1,75,76
 340 565 340 565 296 564 c 0,77,78
 276 564 276 564 268 573.5 c 128,-1,79
 260 583 260 583 260 593 c 0,80,81
 260 616 260 616 270 627 c 0,82,83
 277 635 277 635 292.5 638 c 128,-1,84
 308 641 308 641 325 641.5 c 128,-1,85
 342 642 342 642 368 652.5 c 128,-1,86
 394 663 394 663 419 684 c 0,87,88
 436 699 436 699 451 699 c 2,89,-1
 456 699 l 1,90,-1
 457 700 l 1,91,92
 484 695 484 695 484 669 c 1,93,-1
 428 437 l 1,94,-1
 475 437 l 2,95,96
 515 437 515 437 515 406 c 0,97,98
 515 361 515 361 473 361 c 2,99,-1
 262 361 l 2,100,101
 224 361 224 361 223 391 c 0,69,70
232 -141 m 1,102,103
 283 -148 283 -148 296 -148 c 0,104,105
 316 -148 316 -148 334 -139 c 128,-1,106
 352 -130 352 -130 363.5 -116 c 128,-1,107
 375 -102 375 -102 381.5 -91.5 c 128,-1,108
 388 -81 388 -81 393 -70 c 1,109,-1
 392 -70 l 1,110,111
 376 -85 376 -85 349.5 -98 c 128,-1,112
 323 -111 323 -111 304 -118 c 128,-1,113
 285 -125 285 -125 259.5 -132.5 c 128,-1,114
 234 -140 234 -140 232 -141 c 1,102,103
EndSplineSet
EndChar

StartChar: threequarters
Encoding: 190 190 128
Width: 525
GlyphClass: 2
Flags: W
ItalicCorrection: 173
LayerCount: 2
Fore
SplineSet
65 41 m 0,0,1
 65 64 65 64 91.5 69.5 c 128,-1,2
 118 75 118 75 173.5 77.5 c 128,-1,3
 229 80 229 80 270 93 c 1,4,5
 285 119 285 119 312 119 c 0,6,7
 318 119 318 119 322 118 c 1,8,-1
 332 158 l 1,9,-1
 339 183 l 1,10,-1
 344 195 l 1,11,-1
 138 195 l 2,12,13
 103 195 103 195 91 217 c 0,14,15
 86 227 86 227 86 236 c 128,-1,16
 86 245 86 245 89 253 c 128,-1,17
 92 261 92 261 104 269.5 c 128,-1,18
 116 278 116 278 137 278 c 2,19,-1
 505 278 l 2,20,21
 525 278 525 278 537.5 269 c 128,-1,22
 550 260 550 260 552.5 252 c 128,-1,23
 555 244 555 244 555 236 c 128,-1,24
 555 228 555 228 552.5 220 c 128,-1,25
 550 212 550 212 538 203.5 c 128,-1,26
 526 195 526 195 506 195 c 2,27,-1
 416 195 l 1,28,29
 420 186 420 186 420 175 c 0,30,31
 420 167 420 167 417 154 c 128,-1,32
 414 141 414 141 405 107.5 c 128,-1,33
 396 74 396 74 388 37 c 1,34,35
 395 37 395 37 405 36.5 c 128,-1,36
 415 36 415 36 419 36 c 128,-1,37
 423 36 423 36 429 35.5 c 128,-1,38
 435 35 435 35 437 34.5 c 128,-1,39
 439 34 439 34 442 33 c 128,-1,40
 445 32 445 32 447 30 c 128,-1,41
 449 28 449 28 451 26 c 128,-1,42
 453 24 453 24 456 20 c 0,43,44
 467 6 467 6 467 -5 c 0,45,46
 467 -26 467 -26 445.5 -32 c 128,-1,47
 424 -38 424 -38 368 -38 c 1,48,49
 368 -39 368 -39 358.5 -76.5 c 128,-1,50
 349 -114 349 -114 339 -153 c 128,-1,51
 329 -192 329 -192 328 -195 c 0,52,53
 325 -204 325 -204 314 -213 c 128,-1,54
 303 -222 303 -222 287 -222 c 128,-1,55
 271 -222 271 -222 259.5 -211 c 128,-1,56
 248 -200 248 -200 248 -183 c 2,57,-1
 284 -33 l 1,58,59
 264 -32 264 -32 242 -31 c 128,-1,60
 220 -30 220 -30 211.5 -29.5 c 128,-1,61
 203 -29 203 -29 191 -28 c 128,-1,62
 179 -27 179 -27 176 -26.5 c 128,-1,63
 173 -26 173 -26 166 -24 c 128,-1,64
 159 -22 159 -22 155.5 -20 c 128,-1,65
 152 -18 152 -18 145 -14 c 0,66,67
 117 0 117 0 112 0 c 2,68,-1
 107 0 l 2,69,70
 89 0 89 0 77 14.5 c 128,-1,71
 65 29 65 29 65 41 c 0,0,1
205 477 m 0,72,73
 205 518 205 518 220 534.5 c 128,-1,74
 235 551 235 551 254 551 c 0,75,76
 270 551 270 551 281.5 539.5 c 128,-1,77
 293 528 293 528 293 512 c 0,78,79
 293 506 293 506 291.5 497 c 128,-1,80
 290 488 290 488 290 479 c 0,81,82
 290 461 290 461 295.5 449.5 c 128,-1,83
 301 438 301 438 311.5 434 c 128,-1,84
 322 430 322 430 328.5 429 c 128,-1,85
 335 428 335 428 346 428 c 0,86,87
 378 428 378 428 417.5 436 c 128,-1,88
 457 444 457 444 457 463 c 0,89,90
 457 470 457 470 453 475 c 0,91,92
 441 497 441 497 386 497 c 2,93,-1
 345 497 l 2,94,95
 309 497 309 497 309 527 c 0,96,97
 309 535 309 535 311 544 c 128,-1,98
 313 553 313 553 323 562.5 c 128,-1,99
 333 572 333 572 349 572 c 2,100,-1
 389 572 l 2,101,102
 427 572 427 572 452 579 c 128,-1,103
 477 586 477 586 484.5 593.5 c 128,-1,104
 492 601 492 601 492 607 c 0,105,106
 492 627 492 627 419 627 c 0,107,108
 384 627 384 627 363.5 624 c 128,-1,109
 343 621 343 621 337 617.5 c 128,-1,110
 331 614 331 614 328.5 610 c 128,-1,111
 326 606 326 606 319.5 603 c 128,-1,112
 313 600 313 600 298 600 c 2,113,-1
 290 600 l 2,114,115
 254 600 254 600 254 630 c 0,116,117
 254 639 254 639 258.5 650.5 c 128,-1,118
 263 662 263 662 283 676.5 c 128,-1,119
 303 691 303 691 335 697 c 0,120,121
 362 702 362 702 418 702 c 0,122,123
 420 702 420 702 423.5 702.5 c 128,-1,124
 427 703 427 703 429 703 c 0,125,126
 512 703 512 703 545 675.5 c 128,-1,127
 578 648 578 648 578 612 c 0,128,129
 578 563 578 563 521 525 c 1,130,131
 541 500 541 500 541 465 c 0,132,133
 541 423 541 423 515 400.5 c 128,-1,134
 489 378 489 378 442 365 c 0,135,136
 397 353 397 353 334 353 c 0,137,138
 270 353 270 353 237.5 390 c 128,-1,139
 205 427 205 427 205 477 c 0,72,73
EndSplineSet
EndChar

StartChar: questiondown
Encoding: 191 191 129
Width: 525
GlyphClass: 2
Flags: W
ItalicCorrection: 173
LayerCount: 2
Fore
SplineSet
89 -120 m 0,0,1
 89 -27 89 -27 183 30 c 0,2,3
 269 82 269 82 274 88 c 0,4,5
 279 93 279 93 284 111 c 1,6,7
 262 104 262 104 252.5 84 c 128,-1,8
 243 64 243 64 215 64 c 2,9,-1
 209 64 l 2,10,11
 171 64 171 64 171 94 c 0,12,13
 171 127 171 127 211 158 c 128,-1,14
 251 189 251 189 296 189 c 0,15,16
 326 189 326 189 344.5 170.5 c 128,-1,17
 363 152 363 152 363 120 c 0,18,19
 363 64 363 64 325 26 c 0,20,21
 310 11 310 11 267.5 -11.5 c 128,-1,22
 225 -34 225 -34 196.5 -59 c 128,-1,23
 168 -84 168 -84 168 -118 c 0,24,25
 168 -155 168 -155 217 -155 c 0,26,27
 251 -155 251 -155 281 -140 c 128,-1,28
 311 -125 311 -125 323 -99 c 1,29,-1
 325 -92 l 2,30,31
 327 -86 327 -86 330 -81 c 128,-1,32
 333 -76 333 -76 338 -69.5 c 128,-1,33
 343 -63 343 -63 351.5 -59.5 c 128,-1,34
 360 -56 360 -56 370 -56 c 0,35,36
 386 -56 386 -56 397.5 -66.5 c 128,-1,37
 409 -77 409 -77 409 -94 c 0,38,39
 409 -139 409 -139 352.5 -184.5 c 128,-1,40
 296 -230 296 -230 213 -230 c 0,41,42
 158 -230 158 -230 123.5 -201.5 c 128,-1,43
 89 -173 89 -173 89 -120 c 0,0,1
283 322 m 0,44,45
 283 350 283 350 304.5 369.5 c 128,-1,46
 326 389 326 389 351 389 c 0,47,48
 374 389 374 389 389.5 374.5 c 128,-1,49
 405 360 405 360 405 336 c 0,50,51
 405 309 405 309 384 289 c 128,-1,52
 363 269 363 269 337 269 c 0,53,54
 315 269 315 269 299 284 c 128,-1,55
 283 299 283 299 283 322 c 0,44,45
EndSplineSet
EndChar

StartChar: Acircumflex
Encoding: 194 194 132
Width: 525
GlyphClass: 2
Flags: W
ItalicCorrection: 173
AnchorPoint: "Anchor-5" 477 845 basechar 0
AnchorPoint: "Anchor-4" 262 0 basechar 0
LayerCount: 2
Fore
SplineSet
73 31 m 0,0,1
 73 76 73 76 112 76 c 1,2,-1
 117 75 l 1,3,-1
 134 75 l 1,4,-1
 345 571 l 2,5,6
 357 599 357 599 368 609 c 128,-1,7
 379 619 379 619 406 619 c 2,8,-1
 434 619 l 2,9,10
 466 619 466 619 466 587 c 0,11,12
 466 586 466 586 465.5 583 c 128,-1,13
 465 580 465 580 465 579 c 2,14,-1
 431 124 l 2,15,16
 429 90 429 90 427 75 c 1,17,-1
 429 75 l 2,18,19
 471 75 471 75 471 45 c 0,20,21
 471 0 471 0 428 0 c 2,22,-1
 322 0 l 2,23,24
 302 0 302 0 293.5 9.5 c 128,-1,25
 285 19 285 19 285 31 c 0,26,27
 285 75 285 75 327 75 c 2,28,-1
 342 75 l 1,29,-1
 348 150 l 1,30,-1
 251 150 l 1,31,-1
 220 75 l 1,32,33
 258 75 258 75 258 45 c 0,34,35
 258 0 258 0 217 0 c 2,36,-1
 140 0 l 2,37,38
 138 0 138 0 131 -0.5 c 128,-1,39
 124 -1 124 -1 120 -1 c 0,40,41
 73 -1 73 -1 73 31 c 0,0,1
262 712 m 2,42,43
 262 724 262 724 274.5 735 c 128,-1,44
 287 746 287 746 359 798 c 0,45,46
 405 831 405 831 435 853 c 0,47,48
 452 865 452 865 462 865 c 0,49,50
 474 865 474 865 488 850 c 0,51,52
 491 847 491 847 584 741 c 0,53,54
 600 723 600 723 600 711 c 0,55,56
 600 696 600 696 582 680 c 128,-1,57
 564 664 564 664 550 664 c 0,58,59
 538 664 538 664 529.5 672.5 c 128,-1,60
 521 681 521 681 480 736 c 0,61,62
 462 758 462 758 452 772 c 1,63,64
 424 751 424 751 387 720.5 c 128,-1,65
 350 690 350 690 332 677.5 c 128,-1,66
 314 665 314 665 304 665 c 0,67,68
 287 665 287 665 274.5 682 c 128,-1,69
 262 699 262 699 262 711 c 2,70,-1
 262 712 l 2,42,43
282 225 m 1,71,-1
 355 225 l 1,72,73
 366 398 366 398 397 541 c 1,74,75
 367 436 367 436 282 225 c 1,71,-1
EndSplineSet
Substitution2: "'locl' Localized Forms in Latin lookup 9 subtable" Acircumflex.vn
AlternateSubs2: "'ss01' Style Set 1 lookup 8 subtable" Acircumflex.vn
AlternateSubs2: "'salt' Stylistic Alternatives in Latin lookup 7 subtable" Acircumflex.vn
EndChar

StartChar: Atilde
Encoding: 195 195 133
Width: 525
GlyphClass: 2
Flags: W
ItalicCorrection: 173
AnchorPoint: "Anchor-5" 476 841 basechar 0
AnchorPoint: "Anchor-4" 262 0 basechar 0
LayerCount: 2
Fore
SplineSet
73 31 m 0,0,1
 73 76 73 76 112 76 c 1,2,-1
 117 75 l 1,3,-1
 134 75 l 1,4,-1
 345 571 l 2,5,6
 357 599 357 599 368 609 c 128,-1,7
 379 619 379 619 406 619 c 2,8,-1
 434 619 l 2,9,10
 466 619 466 619 466 587 c 0,11,12
 466 586 466 586 465.5 583 c 128,-1,13
 465 580 465 580 465 579 c 2,14,-1
 431 124 l 2,15,16
 429 90 429 90 427 75 c 1,17,-1
 429 75 l 2,18,19
 471 75 471 75 471 45 c 0,20,21
 471 0 471 0 428 0 c 2,22,-1
 322 0 l 2,23,24
 302 0 302 0 293.5 9.5 c 128,-1,25
 285 19 285 19 285 31 c 0,26,27
 285 75 285 75 327 75 c 2,28,-1
 342 75 l 1,29,-1
 348 150 l 1,30,-1
 251 150 l 1,31,-1
 220 75 l 1,32,33
 258 75 258 75 258 45 c 0,34,35
 258 0 258 0 217 0 c 2,36,-1
 140 0 l 2,37,38
 138 0 138 0 131 -0.5 c 128,-1,39
 124 -1 124 -1 120 -1 c 0,40,41
 73 -1 73 -1 73 31 c 0,0,1
245 747 m 0,42,43
 245 756 245 756 259 774 c 0,44,45
 283 800 283 800 298.5 815 c 128,-1,46
 314 830 314 830 342 845.5 c 128,-1,47
 370 861 370 861 395 861 c 0,48,49
 424 861 424 861 448.5 843.5 c 128,-1,50
 473 826 473 826 492 809 c 128,-1,51
 511 792 511 792 525 792 c 0,52,53
 547 792 547 792 583 826 c 128,-1,54
 619 860 619 860 631 860 c 0,55,56
 646 860 646 860 658.5 848 c 128,-1,57
 671 836 671 836 671 822 c 0,58,59
 671 811 671 811 658 795 c 0,60,61
 578 708 578 708 521 708 c 0,62,63
 498 708 498 708 477.5 719 c 128,-1,64
 457 730 457 730 444.5 742.5 c 128,-1,65
 432 755 432 755 418 766 c 128,-1,66
 404 777 404 777 392 777 c 2,67,-1
 391 777 l 2,68,69
 368 776 368 776 333 742.5 c 128,-1,70
 298 709 298 709 286 709 c 0,71,72
 272 709 272 709 258.5 720.5 c 128,-1,73
 245 732 245 732 245 747 c 0,42,43
282 225 m 1,74,-1
 355 225 l 1,75,76
 366 398 366 398 397 541 c 1,77,78
 367 436 367 436 282 225 c 1,74,-1
EndSplineSet
Substitution2: "'locl' Localized Forms in Latin lookup 9 subtable" Atilde.vn
AlternateSubs2: "'ss01' Style Set 1 lookup 8 subtable" Atilde.vn
AlternateSubs2: "'salt' Stylistic Alternatives in Latin lookup 7 subtable" Atilde.vn
EndChar

StartChar: AE
Encoding: 198 198 136
Width: 525
GlyphClass: 2
Flags: W
ItalicCorrection: 173
AnchorPoint: "Anchor-5" 452 619 basechar 0
AnchorPoint: "Anchor-4" 261 0 basechar 0
LayerCount: 2
Fore
SplineSet
69 31 m 0,0,1
 69 75 69 75 110 75 c 2,2,-1
 122 75 l 1,3,-1
 312 537 l 1,4,5
 291 548 291 548 291 566 c 0,6,7
 291 611 291 611 333 611 c 2,8,-1
 559 611 l 2,9,10
 600 611 600 611 600 580 c 0,11,12
 600 572 600 572 586 518 c 128,-1,13
 572 464 572 464 570 460 c 0,14,15
 561 441 561 441 539 441 c 0,16,17
 521 441 521 441 513 451 c 128,-1,18
 505 461 505 461 505 471 c 0,19,20
 505 472 505 472 520 535 c 1,21,-1
 466 535 l 1,22,-1
 421 354 l 1,23,-1
 486 354 l 2,24,25
 521 354 521 354 521 323 c 0,26,27
 521 307 521 307 516 297 c 128,-1,28
 511 287 511 287 502.5 283.5 c 128,-1,29
 494 280 494 280 490 279.5 c 128,-1,30
 486 279 486 279 481 279 c 2,31,-1
 402 279 l 1,32,-1
 351 75 l 1,33,-1
 412 75 l 1,34,35
 415 87 415 87 418.5 101 c 128,-1,36
 422 115 422 115 423.5 123 c 128,-1,37
 425 131 425 131 427.5 141 c 128,-1,38
 430 151 430 151 432 156 c 128,-1,39
 434 161 434 161 436.5 167 c 128,-1,40
 439 173 439 173 441.5 175.5 c 128,-1,41
 444 178 444 178 448 180.5 c 128,-1,42
 452 183 452 183 456 184 c 128,-1,43
 460 185 460 185 466 185 c 0,44,45
 484 185 484 185 492 175 c 128,-1,46
 500 165 500 165 500 154 c 0,47,48
 500 150 500 150 472 39 c 0,49,50
 468 25 468 25 466 19 c 128,-1,51
 464 13 464 13 455.5 6.5 c 128,-1,52
 447 0 447 0 432 0 c 2,53,-1
 275 0 l 2,54,55
 238 0 238 0 238 34 c 0,56,57
 238 75 238 75 281 75 c 1,58,-1
 305 169 l 1,59,-1
 229 169 l 1,60,-1
 191 75 l 1,61,62
 220 69 220 69 220 44 c 0,63,64
 220 0 220 0 179 0 c 2,65,-1
 106 0 l 2,66,67
 69 0 69 0 69 31 c 0,0,1
260 244 m 1,68,-1
 323 244 l 1,69,-1
 324 245 l 1,70,-1
 396 535 l 1,71,-1
 381 535 l 1,72,-1
 260 244 l 1,68,-1
EndSplineSet
EndChar

StartChar: Ccedilla
Encoding: 199 199 137
Width: 525
GlyphClass: 2
Flags: W
ItalicCorrection: 173
AnchorPoint: "Anchor-5" 424 619 basechar 0
LayerCount: 2
Fore
SplineSet
103 -179 m 0,0,1
 103 -172 103 -172 104.5 -164 c 128,-1,2
 106 -156 106 -156 116 -145.5 c 128,-1,3
 126 -135 126 -135 143 -135 c 2,4,-1
 156 -135 l 2,5,6
 298 -135 298 -135 298 -87 c 0,7,8
 298 -67 298 -67 259 -64 c 0,9,10
 227 -63 227 -63 227 -32 c 0,11,12
 227 -16 227 -16 235 -1 c 1,13,14
 134 34 134 34 134 183 c 0,15,16
 134 273 134 273 177 392.5 c 128,-1,17
 220 512 220 512 299 572 c 0,18,19
 359 619 359 619 424 619 c 0,20,21
 473 619 473 619 515 585 c 1,22,23
 534 607 534 607 542.5 613 c 128,-1,24
 551 619 551 619 563 619 c 0,25,26
 580 619 580 619 588 609.5 c 128,-1,27
 596 600 596 600 596 590 c 0,28,29
 596 589 596 589 559 439 c 0,30,31
 554 417 554 417 545 412 c 128,-1,32
 536 407 536 407 518 407 c 2,33,-1
 513 407 l 2,34,35
 475 407 475 407 475 437 c 0,36,37
 475 442 475 442 476 454 c 128,-1,38
 477 466 477 466 477 474 c 0,39,40
 477 544 477 544 428 544 c 0,41,42
 402 544 402 544 370 524 c 128,-1,43
 338 504 338 504 314 474 c 0,44,45
 266 415 266 415 242 330.5 c 128,-1,46
 218 246 218 246 218 188 c 0,47,48
 218 138 218 138 237 103 c 128,-1,49
 256 68 256 68 299 67 c 0,50,51
 330 67 330 67 359.5 94 c 128,-1,52
 389 121 389 121 403 160 c 0,53,54
 404 162 404 162 406 168 c 128,-1,55
 408 174 408 174 408.5 175 c 128,-1,56
 409 176 409 176 411 180.5 c 128,-1,57
 413 185 413 185 415 186.5 c 128,-1,58
 417 188 417 188 420 190.5 c 128,-1,59
 423 193 423 193 426.5 193.5 c 128,-1,60
 430 194 430 194 435.5 195 c 128,-1,61
 441 196 441 196 447 196 c 0,62,63
 489 196 489 196 489 166 c 0,64,65
 489 130 489 130 446 74.5 c 128,-1,66
 403 19 403 19 328 -3 c 1,67,68
 383 -29 383 -29 383 -83 c 0,69,70
 383 -119 383 -119 357.5 -150.5 c 128,-1,71
 332 -182 332 -182 284 -196 c 0,72,73
 233 -210 233 -210 147 -210 c 2,74,-1
 141 -210 l 2,75,76
 103 -210 103 -210 103 -179 c 0,0,1
EndSplineSet
EndChar

StartChar: Egrave
Encoding: 200 200 138
Width: 525
GlyphClass: 2
Flags: W
ItalicCorrection: 173
AnchorPoint: "Anchor-5" 457 789 basechar 0
AnchorPoint: "Anchor-4" 259 0 basechar 0
LayerCount: 2
Fore
SplineSet
63 31 m 0,0,1
 63 68 63 68 91 74 c 0,2,3
 96 75 96 75 107 75 c 2,4,-1
 132 75 l 1,5,-1
 247 535 l 1,6,-1
 234 535 l 2,7,8
 197 535 197 535 197 566 c 0,9,10
 197 611 197 611 234 611 c 2,11,-1
 553 611 l 2,12,13
 590 611 590 611 590 580 c 0,14,15
 590 572 590 572 576 517.5 c 128,-1,16
 562 463 562 463 560 459 c 0,17,18
 551 441 551 441 523 441 c 0,19,20
 506 441 506 441 502 442 c 0,21,22
 480 448 480 448 480 470 c 0,23,24
 480 475 480 475 495 535 c 1,25,-1
 332 535 l 1,26,-1
 287 354 l 1,27,-1
 366 354 l 1,28,-1
 366 355 l 1,29,30
 374 392 374 392 382 401.5 c 128,-1,31
 390 411 390 411 413 411 c 0,32,33
 432 411 432 411 439 407 c 0,34,35
 457 397 457 397 457 380 c 0,36,37
 457 375 457 375 427 255 c 0,38,39
 422 233 422 233 412 227.5 c 128,-1,40
 402 222 402 222 385 222 c 2,41,-1
 380 222 l 2,42,43
 342 222 342 222 342 253 c 0,44,45
 342 259 342 259 347 279 c 1,46,-1
 268 279 l 1,47,-1
 218 75 l 1,48,-1
 398 75 l 1,49,50
 401 87 401 87 404.5 102 c 128,-1,51
 408 117 408 117 410 124.5 c 128,-1,52
 412 132 412 132 414.5 142 c 128,-1,53
 417 152 417 152 419 156.5 c 128,-1,54
 421 161 421 161 423 167 c 128,-1,55
 425 173 425 173 427.5 175 c 128,-1,56
 430 177 430 177 433 180 c 128,-1,57
 436 183 436 183 440 183.5 c 128,-1,58
 444 184 444 184 448.5 184.5 c 128,-1,59
 453 185 453 185 460 185 c 2,60,-1
 462 185 l 2,61,62
 502 185 502 185 502 157 c 0,63,64
 502 146 502 146 475 41 c 0,65,66
 471 24 471 24 468 17.5 c 128,-1,67
 465 11 465 11 457 5.5 c 128,-1,68
 449 0 449 0 434 0 c 2,69,-1
 100 0 l 2,70,71
 63 0 63 0 63 31 c 0,0,1
355 757 m 0,72,73
 355 774 355 774 368 787.5 c 128,-1,74
 381 801 381 801 399 801 c 0,75,76
 408 801 408 801 505 776 c 0,77,78
 535 768 535 768 535 744 c 0,79,80
 535 733 535 733 524.5 712.5 c 128,-1,81
 514 692 514 692 495 692 c 0,82,83
 492 692 492 692 402 715 c 1,84,-1
 395 716 l 2,85,86
 388 718 388 718 386 719 c 128,-1,87
 384 720 384 720 377.5 722.5 c 128,-1,88
 371 725 371 725 368.5 727.5 c 128,-1,89
 366 730 366 730 362 734.5 c 128,-1,90
 358 739 358 739 356.5 744.5 c 128,-1,91
 355 750 355 750 355 757 c 0,72,73
EndSplineSet
Substitution2: "'locl' Localized Forms in Latin lookup 9 subtable" Egrave.vn
AlternateSubs2: "'ss01' Style Set 1 lookup 8 subtable" Egrave.vn
AlternateSubs2: "'salt' Stylistic Alternatives in Latin lookup 7 subtable" Egrave.vn
EndChar

StartChar: Ecircumflex
Encoding: 202 202 140
Width: 525
GlyphClass: 2
Flags: W
ItalicCorrection: 173
AnchorPoint: "Anchor-5" 473 853 basechar 0
AnchorPoint: "Anchor-4" 259 0 basechar 0
LayerCount: 2
Fore
SplineSet
63 31 m 0,0,1
 63 68 63 68 91 74 c 0,2,3
 96 75 96 75 107 75 c 2,4,-1
 132 75 l 1,5,-1
 247 535 l 1,6,-1
 234 535 l 2,7,8
 197 535 197 535 197 566 c 0,9,10
 197 611 197 611 234 611 c 2,11,-1
 553 611 l 2,12,13
 590 611 590 611 590 580 c 0,14,15
 590 572 590 572 576 517.5 c 128,-1,16
 562 463 562 463 560 459 c 0,17,18
 551 441 551 441 523 441 c 0,19,20
 506 441 506 441 502 442 c 0,21,22
 480 448 480 448 480 470 c 0,23,24
 480 475 480 475 495 535 c 1,25,-1
 332 535 l 1,26,-1
 287 354 l 1,27,-1
 366 354 l 1,28,-1
 366 355 l 1,29,30
 374 392 374 392 382 401.5 c 128,-1,31
 390 411 390 411 413 411 c 0,32,33
 432 411 432 411 439 407 c 0,34,35
 457 397 457 397 457 380 c 0,36,37
 457 375 457 375 427 255 c 0,38,39
 422 233 422 233 412 227.5 c 128,-1,40
 402 222 402 222 385 222 c 2,41,-1
 380 222 l 2,42,43
 342 222 342 222 342 253 c 0,44,45
 342 259 342 259 347 279 c 1,46,-1
 268 279 l 1,47,-1
 218 75 l 1,48,-1
 398 75 l 1,49,50
 401 87 401 87 404.5 102 c 128,-1,51
 408 117 408 117 410 124.5 c 128,-1,52
 412 132 412 132 414.5 142 c 128,-1,53
 417 152 417 152 419 156.5 c 128,-1,54
 421 161 421 161 423 167 c 128,-1,55
 425 173 425 173 427.5 175 c 128,-1,56
 430 177 430 177 433 180 c 128,-1,57
 436 183 436 183 440 183.5 c 128,-1,58
 444 184 444 184 448.5 184.5 c 128,-1,59
 453 185 453 185 460 185 c 2,60,-1
 462 185 l 2,61,62
 502 185 502 185 502 157 c 0,63,64
 502 146 502 146 475 41 c 0,65,66
 471 24 471 24 468 17.5 c 128,-1,67
 465 11 465 11 457 5.5 c 128,-1,68
 449 0 449 0 434 0 c 2,69,-1
 100 0 l 2,70,71
 63 0 63 0 63 31 c 0,0,1
270 712 m 2,72,73
 270 724 270 724 283 735.5 c 128,-1,74
 296 747 296 747 381 808 c 0,75,76
 419 836 419 836 443 853 c 0,77,78
 460 865 460 865 470 865 c 0,79,80
 484 865 484 865 504 842 c 0,81,82
 598 735 598 735 602 729 c 0,83,84
 608 720 608 720 608 711 c 0,85,86
 608 696 608 696 590 680 c 128,-1,87
 572 664 572 664 558 664 c 0,88,89
 546 664 546 664 537.5 672.5 c 128,-1,90
 529 681 529 681 488 736 c 0,91,92
 470 758 470 758 460 772 c 1,93,94
 431 751 431 751 394.5 720.5 c 128,-1,95
 358 690 358 690 340 677.5 c 128,-1,96
 322 665 322 665 312 665 c 0,97,98
 295 665 295 665 282.5 682 c 128,-1,99
 270 699 270 699 270 711 c 2,100,-1
 270 712 l 2,72,73
EndSplineSet
Substitution2: "'locl' Localized Forms in Latin lookup 9 subtable" Ecircumflex.vn
AlternateSubs2: "'ss01' Style Set 1 lookup 8 subtable" Ecircumflex.vn
AlternateSubs2: "'salt' Stylistic Alternatives in Latin lookup 7 subtable" Ecircumflex.vn
EndChar

StartChar: Icircumflex
Encoding: 206 206 144
Width: 525
GlyphClass: 2
Flags: W
ItalicCorrection: 173
AnchorPoint: "Anchor-5" 475 853 basechar 0
AnchorPoint: "Anchor-4" 261 0 basechar 0
LayerCount: 2
Fore
SplineSet
103 31 m 0,0,1
 103 75 103 75 144 75 c 2,2,-1
 237 75 l 1,3,-1
 352 535 l 1,4,-1
 274 535 l 2,5,6
 253 535 253 535 244.5 545 c 128,-1,7
 236 555 236 555 236 567 c 0,8,9
 237 586 237 586 245 596.5 c 128,-1,10
 253 607 253 607 260 609 c 128,-1,11
 267 611 267 611 277 611 c 2,12,-1
 535 611 l 2,13,14
 573 611 573 611 573 580 c 0,15,16
 573 535 573 535 532 535 c 2,17,-1
 438 535 l 1,18,-1
 323 75 l 1,19,-1
 402 75 l 2,20,21
 439 75 439 75 439 44 c 0,22,23
 438 25 438 25 430 14.5 c 128,-1,24
 422 4 422 4 415 2 c 128,-1,25
 408 0 408 0 398 0 c 2,26,-1
 140 0 l 2,27,28
 103 0 103 0 103 31 c 0,0,1
270 712 m 2,29,30
 270 724 270 724 283 735.5 c 128,-1,31
 296 747 296 747 381 808 c 0,32,33
 419 836 419 836 443 853 c 0,34,35
 460 865 460 865 470 865 c 0,36,37
 484 865 484 865 504 842 c 0,38,39
 598 735 598 735 602 729 c 0,40,41
 608 720 608 720 608 711 c 0,42,43
 608 696 608 696 590 680 c 128,-1,44
 572 664 572 664 558 664 c 0,45,46
 546 664 546 664 537.5 672.5 c 128,-1,47
 529 681 529 681 488 736 c 0,48,49
 470 758 470 758 460 772 c 1,50,51
 431 751 431 751 394.5 720.5 c 128,-1,52
 358 690 358 690 340 677.5 c 128,-1,53
 322 665 322 665 312 665 c 0,54,55
 295 665 295 665 282.5 682 c 128,-1,56
 270 699 270 699 270 711 c 2,57,-1
 270 712 l 2,29,30
EndSplineSet
EndChar

StartChar: Eth
Encoding: 208 208 146
Width: 525
GlyphClass: 2
Flags: W
ItalicCorrection: 173
LayerCount: 2
Fore
SplineSet
62 30 m 0,0,1
 62 49 62 49 70.5 60 c 128,-1,2
 79 71 79 71 86 73.5 c 128,-1,3
 93 76 93 76 101 76 c 2,4,-1
 104 75 l 1,5,-1
 124 75 l 1,6,-1
 171 262 l 1,7,-1
 170 262 l 2,8,9
 128 262 128 262 128 294 c 0,10,11
 128 338 128 338 167 338 c 2,12,-1
 190 338 l 1,13,-1
 239 535 l 1,14,-1
 235 535 l 2,15,16
 195 535 195 535 195 566 c 0,17,18
 195 574 195 574 197 583 c 128,-1,19
 199 592 199 592 209.5 601.5 c 128,-1,20
 220 611 220 611 238 611 c 2,21,-1
 418 611 l 2,22,23
 454 611 454 611 480 595.5 c 128,-1,24
 506 580 506 580 519.5 554 c 128,-1,25
 533 528 533 528 539 500 c 128,-1,26
 545 472 545 472 545 440 c 0,27,28
 545 381 545 381 527 308.5 c 128,-1,29
 509 236 509 236 476 165.5 c 128,-1,30
 443 95 443 95 387 47.5 c 128,-1,31
 331 0 331 0 265 0 c 2,32,-1
 100 0 l 2,33,34
 62 0 62 0 62 30 c 0,0,1
210 75 m 1,35,-1
 262 75 l 2,36,37
 310 75 310 75 350 115 c 128,-1,38
 390 155 390 155 412 212.5 c 128,-1,39
 434 270 434 270 446 324.5 c 128,-1,40
 458 379 458 379 458 416 c 0,41,42
 458 535 458 535 377 535 c 2,43,-1
 325 535 l 1,44,-1
 276 338 l 1,45,-1
 338 338 l 2,46,47
 360 338 360 338 368.5 328 c 128,-1,48
 377 318 377 318 377 306 c 0,49,50
 377 298 377 298 375 289.5 c 128,-1,51
 373 281 373 281 363 271.5 c 128,-1,52
 353 262 353 262 336 262 c 2,53,-1
 256 262 l 1,54,-1
 210 75 l 1,35,-1
EndSplineSet
EndChar

StartChar: Ntilde
Encoding: 209 209 147
Width: 525
GlyphClass: 2
Flags: W
ItalicCorrection: 173
LayerCount: 2
Fore
SplineSet
63 31 m 0,0,1
 63 75 63 75 105 75 c 2,2,-1
 127 75 l 1,3,-1
 242 535 l 1,4,5
 219 535 219 535 207.5 541 c 128,-1,6
 196 547 196 547 196 569 c 0,7,8
 196 576 196 576 198.5 584.5 c 128,-1,9
 201 593 201 593 211 602 c 128,-1,10
 221 611 221 611 237 611 c 2,11,-1
 325 611 l 2,12,13
 355 611 355 611 361 590 c 128,-1,14
 367 569 367 569 368 467 c 0,15,16
 369 374 369 374 371 307 c 2,17,-1
 371 282 l 1,18,-1
 372 265 l 1,19,-1
 372 201 l 1,20,-1
 371 187 l 1,21,-1
 371 171 l 2,22,23
 371 148 371 148 367 83 c 1,24,-1
 480 535 l 1,25,-1
 473 535 l 2,26,27
 434 535 434 535 434 569 c 0,28,29
 434 577 434 577 436.5 585 c 128,-1,30
 439 593 439 593 449 602 c 128,-1,31
 459 611 459 611 475 611 c 2,32,-1
 577 611 l 2,33,34
 614 611 614 611 614 580 c 0,35,36
 614 535 614 535 572 535 c 2,37,-1
 549 535 l 1,38,39
 546 519 546 519 538 489 c 2,40,-1
 425 38 l 2,41,42
 420 16 420 16 412 8 c 128,-1,43
 404 0 404 0 383 0 c 2,44,-1
 349 0 l 2,45,46
 326 1 326 1 319.5 11 c 128,-1,47
 313 21 313 21 312 39 c 0,48,49
 310 113 310 113 308.5 178 c 128,-1,50
 307 243 307 243 306.5 278.5 c 128,-1,51
 306 314 306 314 306 323 c 2,52,-1
 306 385 l 2,53,54
 306 413 306 413 310 529 c 1,55,-1
 197 75 l 1,56,-1
 205 75 l 2,57,58
 243 75 243 75 243 42 c 0,59,60
 243 33 243 33 240.5 24.5 c 128,-1,61
 238 16 238 16 227.5 8 c 128,-1,62
 217 0 217 0 200 0 c 2,63,-1
 100 0 l 2,64,65
 63 0 63 0 63 31 c 0,0,1
245 747 m 0,66,67
 245 756 245 756 259 774 c 0,68,69
 283 800 283 800 298.5 815 c 128,-1,70
 314 830 314 830 342 845.5 c 128,-1,71
 370 861 370 861 395 861 c 0,72,73
 424 861 424 861 448.5 843.5 c 128,-1,74
 473 826 473 826 492 809 c 128,-1,75
 511 792 511 792 525 792 c 0,76,77
 547 792 547 792 583 826 c 128,-1,78
 619 860 619 860 631 860 c 0,79,80
 646 860 646 860 658.5 848 c 128,-1,81
 671 836 671 836 671 822 c 0,82,83
 671 811 671 811 658 795 c 0,84,85
 578 708 578 708 521 708 c 0,86,87
 498 708 498 708 477.5 719 c 128,-1,88
 457 730 457 730 444.5 742.5 c 128,-1,89
 432 755 432 755 418 766 c 128,-1,90
 404 777 404 777 392 777 c 2,91,-1
 391 777 l 2,92,93
 368 776 368 776 333 742.5 c 128,-1,94
 298 709 298 709 286 709 c 0,95,96
 272 709 272 709 258.5 720.5 c 128,-1,97
 245 732 245 732 245 747 c 0,66,67
EndSplineSet
EndChar

StartChar: Ograve
Encoding: 210 210 148
Width: 525
GlyphClass: 2
Flags: W
ItalicCorrection: 173
AnchorPoint: "Anchor-5" 459 782 basechar 0
LayerCount: 2
Fore
SplineSet
105 26 m 0,0,1
 105 65 105 65 157.5 279 c 128,-1,2
 210 493 210 493 236 564 c 0,3,4
 246 589 246 589 252.5 597 c 128,-1,5
 259 605 259 605 294 612 c 128,-1,6
 329 619 329 619 402 619 c 2,7,-1
 431 619 l 2,8,9
 493 619 493 619 525 614 c 128,-1,10
 557 609 557 609 564.5 602.5 c 128,-1,11
 572 596 572 596 572 584 c 0,12,13
 572 544 572 544 517.5 325.5 c 128,-1,14
 463 107 463 107 440 45 c 0,15,16
 431 22 431 22 423.5 13.5 c 128,-1,17
 416 5 416 5 383.5 -1.5 c 128,-1,18
 351 -8 351 -8 283 -8 c 2,19,-1
 262 -8 l 2,20,21
 166 -8 166 -8 135.5 -1.5 c 128,-1,22
 105 5 105 5 105 26 c 0,0,1
201 92 m 0,23,24
 201 84 201 84 204.5 79.5 c 128,-1,25
 208 75 208 75 223.5 71 c 128,-1,26
 239 67 239 67 269 67 c 2,27,-1
 290 67 l 2,28,29
 350 67 350 67 365 85 c 0,30,31
 380 104 380 104 428 301 c 128,-1,32
 476 498 476 498 476 519 c 0,33,34
 476 534 476 534 460.5 539 c 128,-1,35
 445 544 445 544 400 544 c 2,36,-1
 394 544 l 2,37,38
 357 544 357 544 338.5 540 c 128,-1,39
 320 536 320 536 314.5 530 c 128,-1,40
 309 524 309 524 304 511 c 0,41,42
 290 470 290 470 245.5 294 c 128,-1,43
 201 118 201 118 201 92 c 0,23,24
347 757 m 0,44,45
 347 774 347 774 360 788 c 128,-1,46
 373 802 373 802 391 802 c 0,47,48
 398 802 398 802 498 776 c 0,49,50
 528 769 528 769 528 745 c 0,51,52
 528 733 528 733 516.5 713 c 128,-1,53
 505 693 505 693 487 693 c 0,54,55
 480 693 480 693 394 715 c 1,56,-1
 387 716 l 2,57,58
 380 718 380 718 378 719 c 128,-1,59
 376 720 376 720 369.5 722.5 c 128,-1,60
 363 725 363 725 360.5 727.5 c 128,-1,61
 358 730 358 730 354 734.5 c 128,-1,62
 350 739 350 739 348.5 744.5 c 128,-1,63
 347 750 347 750 347 757 c 0,44,45
EndSplineSet
Substitution2: "'locl' Localized Forms in Latin lookup 9 subtable" Ograve.vn
AlternateSubs2: "'ss01' Style Set 1 lookup 8 subtable" Ograve.vn
AlternateSubs2: "'salt' Stylistic Alternatives in Latin lookup 7 subtable" Ograve.vn
EndChar

